<svg xmlns="http://www.w3.org/2000/svg" xmlns:xlink="http://www.w3.org/1999/xlink" viewBox="0 0 280 296"><defs><style>.cls-1{isolation:isolate;}.cls-2{fill:#fff2cc;}.cls-3{fill:url(#_526);}.cls-11,.cls-12,.cls-13,.cls-16,.cls-17,.cls-18,.cls-19,.cls-21,.cls-4,.cls-5,.cls-7,.cls-8,.cls-9{mix-blend-mode:multiply;}.cls-16,.cls-17,.cls-18,.cls-4{opacity:0.6;}.cls-4{fill:url(#_20);}.cls-5{fill:#d077b7;}.cls-6{fill:url(#_526-2);}.cls-11,.cls-12,.cls-13,.cls-7,.cls-8,.cls-9{opacity:0.85;}.cls-7{fill:url(#_393_2);}.cls-8{fill:url(#_393_2-2);}.cls-9{fill:url(#_393_2-3);}.cls-10{fill:url(#_526-3);}.cls-11{fill:url(#_393_2-4);}.cls-12{fill:url(#_393_2-5);}.cls-13{fill:url(#_393_2-6);}.cls-14{fill:url(#_129);}.cls-15{fill:#ffbe00;}.cls-16{fill:url(#_6);}.cls-17{fill:url(#_6-2);}.cls-18{fill:url(#_6-3);}.cls-19{fill:#ce478a;opacity:0.8;}.cls-20,.cls-23{fill:#1a1a1a;}.cls-20{stroke:#1a1a1a;stroke-width:0;}.cls-20,.cls-24{stroke-miterlimit:10;}.cls-21{fill:#7a369e;}.cls-21,.cls-22{opacity:0.5;}.cls-22{fill:#ffd1dd;mix-blend-mode:soft-light;}.cls-24{stroke:#000;}</style><linearGradient id="_526" x1="139.6" y1="293.6" x2="139.6" y2="217.53" gradientUnits="userSpaceOnUse"><stop offset="0" stop-color="#c34433"/><stop offset="0.08" stop-color="#b73b31"/><stop offset="0.31" stop-color="#9b272c"/><stop offset="0.54" stop-color="#871828"/><stop offset="0.77" stop-color="#7b0f26"/><stop offset="1" stop-color="#770c25"/></linearGradient><linearGradient id="_20" x1="160.59" y1="278.8" x2="161.79" y2="228" gradientUnits="userSpaceOnUse"><stop offset="0" stop-color="#ffe7d8"/><stop offset="0.29" stop-color="#edbde1"/><stop offset="0.59" stop-color="#dc97ea"/><stop offset="0.84" stop-color="#d280ef"/><stop offset="0.99" stop-color="#ce77f1"/></linearGradient><linearGradient id="_526-2" x1="69.64" y1="196.03" x2="69.64" y2="144.99" xlink:href="#_526"/><linearGradient id="_393_2" x1="70.27" y1="179.9" x2="70.27" y2="153.08" gradientUnits="userSpaceOnUse"><stop offset="0" stop-color="#ffe9da"/><stop offset="0.99" stop-color="#b44cf3"/></linearGradient><linearGradient id="_393_2-2" x1="74.01" y1="180.04" x2="74.01" y2="163.59" xlink:href="#_393_2"/><linearGradient id="_393_2-3" x1="91.36" y1="183.82" x2="67.97" y2="183.82" xlink:href="#_393_2"/><linearGradient id="_526-3" x1="305.98" y1="196.03" x2="305.98" y2="144.99" gradientTransform="matrix(-1, 0, 0, 1, 515.54, 0)" xlink:href="#_526"/><linearGradient id="_393_2-4" x1="306.62" y1="179.9" x2="306.62" y2="153.08" gradientTransform="matrix(-1, 0, 0, 1, 515.54, 0)" xlink:href="#_393_2"/><linearGradient id="_393_2-5" x1="310.35" y1="180.04" x2="310.35" y2="163.59" gradientTransform="matrix(-1, 0, 0, 1, 515.54, 0)" xlink:href="#_393_2"/><linearGradient id="_393_2-6" x1="327.23" y1="183.82" x2="305.08" y2="183.82" gradientTransform="matrix(-1, 0, 0, 1, 515.54, 0)" xlink:href="#_393_2"/><linearGradient id="_129" x1="139.49" y1="241.13" x2="139.49" y2="49.64" gradientUnits="userSpaceOnUse"><stop offset="0" stop-color="#c1492c"/><stop offset="0.17" stop-color="#c44038"/><stop offset="0.43" stop-color="#c73646"/><stop offset="0.52" stop-color="#b72b3e"/><stop offset="0.68" stop-color="#a31d35"/><stop offset="0.84" stop-color="#97152f"/><stop offset="1" stop-color="#93122d"/></linearGradient><linearGradient id="_6" x1="139.59" y1="264.77" x2="139.59" y2="293.6" gradientUnits="userSpaceOnUse"><stop offset="0" stop-color="#705ab5"/><stop offset="0.19" stop-color="#8861c4"/><stop offset="0.54" stop-color="#ae6ddd"/><stop offset="0.82" stop-color="#c574ec"/><stop offset="0.99" stop-color="#ce77f1"/></linearGradient><linearGradient id="_6-2" x1="141.22" y1="289.26" x2="175.23" y2="274.33" xlink:href="#_6"/><linearGradient id="_6-3" x1="139.01" y1="264.48" x2="139.01" y2="282.75" xlink:href="#_6"/></defs><g class="cls-1"><g id="Layer_2" data-name="Layer 2"><g id="Layer_1-2" data-name="Layer 1"><rect class="cls-2" width="280" height="296"/><path class="cls-3" d="M216.34,290.56s-52,3-76.74,3-76.74-3-76.74-3,30.85-11.52,34.28-19c1.73-3.78,2.41-17.43,2.67-30.06.25-12.47.08-23.95.08-23.95l39.71.56,39.71-.56s-.46,31.18,1.26,46.59a28.45,28.45,0,0,0,1.48,7.42C185.48,279,216.34,290.56,216.34,290.56Z"/><path class="cls-4" d="M158.31,223.07c-11.23,19.51-12.46,41.7-7.09,56.89,1.77,5,25.36-49.68,23.44-56.89S164.06,213.06,158.31,223.07Z"/><path class="cls-5" d="M180.57,264.12c-.28.08-.58.26-.85.16-25-9.1-19.34,15.68-39.25,15.68-10,0-23.33-26.19-29.79-33-5.91-6.21-10.87-5.51-10.87-5.51.25-12.47.08-23.95.08-23.95l39.71.56,39.71-.56S178.85,248.71,180.57,264.12Z"/><path class="cls-6" d="M77.35,147.58s-10.81-3.8-13.88-2.2-7.63,9.59-7.06,19.07c.16,2.55,2.2,14.57,10.34,20.45,2.36,1.71,4.65,9.67,10,10.87,5.62,1.26,6.14-2.48,6.14-2.48Z"/><path class="cls-7" d="M80,169.36s-6-18.6-14-16c-6.3,2-5.37,15.66-5.37,15.66s1.76-12.12,9-8.22c3.85,2.07-2.33,5.54-2.33,10.53s4.22,10.87,5.75,7.73S75.43,164.37,80,169.36Z"/><path class="cls-8" d="M79.57,167.1s-4.53-7.17-9.93-1,2.11,17.37,3.42,12.93,2.25-11,4.6-10.3a3.82,3.82,0,0,1,2.64,3.09Z"/><path class="cls-9" d="M73,193.57c.63,1.07,5.78,3.81,8.49,1.05,2.27-2.32-.93-20.35-1.23-22.81,0,0,1,19.05-.3,19.82C75.56,194.29,70.94,190,73,193.57Z"/><path class="cls-10" d="M201.85,147.58s10.81-3.8,13.88-2.2,7.63,9.59,7.05,19.07c-.15,2.55-2.19,14.57-10.33,20.45-2.36,1.71-4.65,9.67-10,10.87-5.61,1.26-6.14-2.48-6.14-2.48Z"/><path class="cls-11" d="M199.2,169.36s6-18.6,14-16c6.3,2,5.38,15.66,5.38,15.66s-1.76-12.12-9.05-8.22c-3.85,2.07,2.33,5.54,2.33,10.53s-4.22,10.87-5.76,7.73S203.77,164.37,199.2,169.36Z"/><path class="cls-12" d="M199.62,167.1s4.54-7.17,9.94-1-2.11,17.37-3.43,12.93-2.24-11-4.59-10.3a3.82,3.82,0,0,0-2.64,3.09Z"/><path class="cls-13" d="M206.16,193.57c-.63,1.07-5.78,3.81-8.49,1.05-2.27-2.32.93-20.35,1.23-22.81,0,0-1,19.05.3,19.82C197.31,190.5,206,193.81,206.16,193.57Z"/><path class="cls-14" d="M202.24,161.31c-2.86,22.92-6,42-7.4,44.82-1.11,2.29-5.15,6.59-10.74,11.4h0c-12.22,10.54-31.86,23.59-44.5,23.59-7.83,0-18.36-5-28.14-11.34h0A152.73,152.73,0,0,1,95.9,218.22h0c-6-5.1-10.37-9.7-11.53-12.09C83,203.29,79.79,184.06,76.92,161c-5.57-33.82-2.84-75.66,2.36-82.81C83,73.06,87.65,62.65,99,58.5c14.32-5.23,31-8.86,40.6-8.86,17.27,0,50.51,15.22,59,26.83C203.79,83.64,208.27,127.75,202.24,161.31Z"/><path class="cls-15" d="M236.77,296H42.4l41.54-16,4.6-15.19a73.88,73.88,0,0,1,10-.29l-.92,5.5S108.24,281,139.58,281C167.46,281,181.5,270,181.5,270l-.81-4.86-.11-.64a73.8,73.8,0,0,1,10,.29l4.6,15.19Z"/><path class="cls-16" d="M88.54,264.77c-.79,2.62,20.37,20.86,50.47,20.86,32.42,0,51.62-20.86,51.62-20.86l4.6,15.19s-33.77,13.64-57.82,13.64C111.57,293.6,83.94,280,83.94,280Z"/><path class="cls-17" d="M130.89,285.26c37.93,3.58,58.91-19.85,58.91-19.85s-18.6,20.06-23.39,21.28C151.32,290.53,130.89,285.26,130.89,285.26Z"/><path class="cls-18" d="M174.77,274.77c-9.19,4-32.21,10.87-53.64,6.65-20.49-4-29.26-13.17-29.65-14.45s6.27-1.79,7.11-2.49l-.92,5.5S108.24,281,139.58,281C167.46,281,181.5,270,181.5,270l-.81-4.86c2.56.14,5.11.28,5.65.28C187.49,265.4,184,270.74,174.77,274.77Z"/><path class="cls-19" d="M184.1,217.54h0c-12.22,10.54-31.86,23.59-44.5,23.59-7.83,0-18.36-5-28.14-11.34h0A151.62,151.62,0,0,1,95.9,218.22c.81.52,23.19,15,28.72,16s23.79.51,28.39,0S183.69,217.79,184.1,217.54Z"/><path class="cls-20" d="M193,208c-2.13,4-13.8,9.64-15,9.28-.6-.18-10.44,3.5-12,5.47-2.77,3.44-2.62.24-3.5-.26-1.35,1.15-16.87,4.66-24,4.66s-19.11-4-20.46-5.17.31,3.91-3.9.06c-2.83-3.25-14.91-7-15.51-6.79C97.37,215.56,88.14,212,86,208c-2-3.82-5.15-19.58-5.46-21.11.13.79.8,5.15,1.25,9.16.49,4.43,2.9,14.25,5.16,16s23.53,22.08,28.66,24.32c3.23,1.41,5.25,4.53,3.81,5.16a47.75,47.75,0,0,0,19.71,2.56c3.67-.36,15.59-5.69,16.16-2.3,0,0,2,.66,9.75-4.57,3.47-2.36,24.78-23.38,27-25.17s4.69-11.61,5.17-16c.44-4,1.11-8.37,1.23-9.16C198.2,188.37,195.08,204.13,193,208Z"/><path class="cls-21" d="M118.4,230.17c-3.57.08-1.79,3.22,1.66,7.91s13.17,5.74,18.42,5.11,14.58-8.75,18.85-3.07c1.72,2.29,6.63-16.88,3-15.22s-9.46,8.88-17.44,8.24S122.44,230.07,118.4,230.17Z"/><path class="cls-21" d="M89.49,213.22c1.28,2.95,12.16,11.49,13.6,11.68s-3-7.31-5.37-8.9S88.63,211.22,89.49,213.22Z"/><path class="cls-21" d="M178.43,218.36c-5.48.76-8.91,8.2-9.09,9.23s-2,6-2.93,6.21-1.19-2.91-1.57-2.7-2.31,3.51-1.05,4.81,3.39-1,9.83-7.37S190.12,213.6,189,213.7,181.4,218,178.43,218.36Z"/><path class="cls-22" d="M119.94,223.94c-1.39,0,2.94,6,4.76,6.47s16.1,3,20.09,2.24,9.3-5.74,9.93-7-10.47,2.58-20.9,1.43C127,226.35,122.81,223.94,119.94,223.94Z"/><path class="cls-23" d="M207,120.79l-2.29,18.39c-.41-5.38-1.38-13.51-1.63-16.49-.59-6.87-11.58-23.18-11.58-23.18s.06-19.73-13.87-23.75c-12.9-3.72-71.39-4.14-79.82-1.23C87.72,78,87.67,96,87.67,96l-11,20.58S74.19,137.11,74.18,137c-1.33-7.14-2.83-14.15-4.15-21.29C67.37,82.86,83.43,68.16,92.7,59.07c11.54-11.3,50.63-28.4,86.59-5.6S207,120.79,207,120.79Z"/><rect x="108.16" y="132.68" width="7.52" height="7.52"/><rect x="164.6" y="132.68" width="7.52" height="7.52"/><path class="cls-24" d="M205,130.12v-1.2c-1.78-.13-11.82-.2-13.58-.37a2.29,2.29,0,0,1-1.54-.6c-3.39-5.21-8.51-7.52-14.33-8.63a30.81,30.81,0,0,0-16.94,1.51c-5.26,2-9.43,5.22-11.41,10.73a27.34,27.34,0,0,0-15.85-.08,17.24,17.24,0,0,0-9.7-10.95c-9-4.23-18-4.65-27,0a13.14,13.14,0,0,0-5.74,5.45c-.9,1.67-15.42-.11-15.62-.23l-.25,2c1.18.26,13.09,2.21,14.44,2.5-.06,1.1-.15,2.31-.17,3.51-.09,6.74,1.7,12.81,6.71,17.58,6.23,5.92,13.76,7.9,22,5.65s13.31-7.9,15.14-16.27a31,31,0,0,0,.42-5.95c0-.84.15-1.3,1-1.59a24.08,24.08,0,0,1,12.06-.61c1.93.36,2.35,1,2.16,3.06a20,20,0,0,0,4.59,14.81c6.2,7.61,14.31,10.29,23.92,8.12a21.27,21.27,0,0,0,16.15-17.28,52.93,52.93,0,0,0,.18-7.46c0-.6,0-1.21,0-2C193.56,131.61,205,130.12,205,130.12Zm-86.57,24.19c-7.27,3.35-14.29,2.68-20.87-2-7.36-5.2-9.1-12.63-8.59-21.05.33-5.44,3.49-8.69,8.2-10.54,9.54-3.75,18.64-2.52,27,3.2,4.69,3.2,6.09,6.92,5.62,15.3A19.06,19.06,0,0,1,118.43,154.31Zm54.73,3.42c-12.4,2.45-24.47-7.16-25.08-19.77-.3-5.92,2.09-10.2,6.88-13.38s9.84-4.45,17.11-4.34a26.11,26.11,0,0,1,13,4.31c3.91,2.62,5,6.44,5.28,10.76A21,21,0,0,1,173.16,157.73Z"/></g></g></g></svg>