<svg xmlns="http://www.w3.org/2000/svg" xmlns:xlink="http://www.w3.org/1999/xlink" viewBox="0 0 280 296"><defs><style>.cls-1{isolation:isolate;}.cls-2{fill:#fcccdb;}.cls-3{fill:url(#_526);}.cls-11,.cls-12,.cls-13,.cls-15,.cls-17,.cls-18,.cls-19,.cls-21,.cls-22,.cls-4,.cls-5,.cls-7,.cls-8,.cls-9{mix-blend-mode:multiply;}.cls-17,.cls-18,.cls-19,.cls-4{opacity:0.6;}.cls-4{fill:url(#_20);}.cls-5{fill:#d077b7;}.cls-6{fill:url(#_526-2);}.cls-11,.cls-12,.cls-13,.cls-7,.cls-8,.cls-9{opacity:0.85;}.cls-7{fill:url(#_393_2);}.cls-8{fill:url(#_393_2-2);}.cls-9{fill:url(#_393_2-3);}.cls-10{fill:url(#_526-3);}.cls-11{fill:url(#_393_2-4);}.cls-12{fill:url(#_393_2-5);}.cls-13{fill:url(#_393_2-6);}.cls-14{fill:url(#_129);}.cls-15{fill:#ce478a;opacity:0.8;}.cls-16{fill:#790025;}.cls-17{fill:url(#_6);}.cls-18{fill:url(#_6-2);}.cls-19{fill:url(#_6-3);}.cls-20,.cls-21,.cls-22{fill:#1a1a1a;stroke:#1a1a1a;stroke-width:0;}.cls-20,.cls-21,.cls-22,.cls-23{stroke-miterlimit:10;}.cls-22{opacity:0.5;}.cls-23{stroke:#000;}</style><linearGradient id="_526" x1="140.01" y1="293.64" x2="140.01" y2="219.03" gradientUnits="userSpaceOnUse"><stop offset="0" stop-color="#c34433"/><stop offset="0.08" stop-color="#b73b31"/><stop offset="0.31" stop-color="#9b272c"/><stop offset="0.54" stop-color="#871828"/><stop offset="0.77" stop-color="#7b0f26"/><stop offset="1" stop-color="#770c25"/></linearGradient><linearGradient id="_20" x1="160.61" y1="279.13" x2="161.78" y2="229.29" gradientUnits="userSpaceOnUse"><stop offset="0" stop-color="#ffe7d8"/><stop offset="0.29" stop-color="#edbde1"/><stop offset="0.59" stop-color="#dc97ea"/><stop offset="0.84" stop-color="#d280ef"/><stop offset="0.99" stop-color="#ce77f1"/></linearGradient><linearGradient id="_526-2" x1="71.38" y1="197.93" x2="71.38" y2="147.86" xlink:href="#_526"/><linearGradient id="_393_2" x1="72.01" y1="182.11" x2="72.01" y2="155.8" gradientUnits="userSpaceOnUse"><stop offset="0" stop-color="#ffe9da"/><stop offset="0.99" stop-color="#b44cf3"/></linearGradient><linearGradient id="_393_2-2" x1="75.67" y1="182.24" x2="75.67" y2="166.11" xlink:href="#_393_2"/><linearGradient id="_393_2-3" x1="92.69" y1="185.95" x2="69.74" y2="185.95" xlink:href="#_393_2"/><linearGradient id="_526-3" x1="1005.14" y1="197.93" x2="1005.14" y2="147.86" gradientTransform="matrix(-1, 0, 0, 1, 1213.78, 0)" xlink:href="#_526"/><linearGradient id="_393_2-4" x1="1005.76" y1="182.11" x2="1005.76" y2="155.8" gradientTransform="matrix(-1, 0, 0, 1, 1213.78, 0)" xlink:href="#_393_2"/><linearGradient id="_393_2-5" x1="1009.42" y1="182.24" x2="1009.42" y2="166.11" gradientTransform="matrix(-1, 0, 0, 1, 1213.78, 0)" xlink:href="#_393_2"/><linearGradient id="_393_2-6" x1="1025.98" y1="185.95" x2="1004.25" y2="185.95" gradientTransform="matrix(-1, 0, 0, 1, 1213.78, 0)" xlink:href="#_393_2"/><linearGradient id="_129" x1="140.01" y1="242.17" x2="140.01" y2="54.32" gradientUnits="userSpaceOnUse"><stop offset="0" stop-color="#c1492c"/><stop offset="0.17" stop-color="#c44038"/><stop offset="0.43" stop-color="#c73646"/><stop offset="0.52" stop-color="#b72b3e"/><stop offset="0.68" stop-color="#a31d35"/><stop offset="0.84" stop-color="#97152f"/><stop offset="1" stop-color="#93122d"/></linearGradient><linearGradient id="_6" x1="140" y1="265.37" x2="140" y2="293.64" gradientUnits="userSpaceOnUse"><stop offset="0" stop-color="#705ab5"/><stop offset="0.19" stop-color="#8861c4"/><stop offset="0.54" stop-color="#ae6ddd"/><stop offset="0.82" stop-color="#c574ec"/><stop offset="0.99" stop-color="#ce77f1"/></linearGradient><linearGradient id="_6-2" x1="141.6" y1="289.39" x2="174.97" y2="274.74" xlink:href="#_6"/><linearGradient id="_6-3" x1="139.43" y1="265.08" x2="139.43" y2="283" xlink:href="#_6"/></defs><g class="cls-1"><g id="Layer_2" data-name="Layer 2"><g id="Layer_1-2" data-name="Layer 1"><rect class="cls-2" width="280" height="296"/><path class="cls-3" d="M215.3,290.66s-51,3-75.29,3-75.28-3-75.28-3S95,279.37,98.37,272c1.69-3.7,2.36-17.09,2.61-29.48s.08-23.49.08-23.49l38.95.54,39-.54s-.45,30.58,1.23,45.7a28,28,0,0,0,1.46,7.27C185,279.37,215.3,290.66,215.3,290.66Z"/><path class="cls-4" d="M158.36,224.45c-11,19.15-12.21,40.92-6.94,55.82,1.73,4.9,24.87-48.74,23-55.82S164,214.64,158.36,224.45Z"/><path class="cls-5" d="M180.2,264.73c-.27.07-.56.25-.83.15-24.57-8.93-19,15.39-38.5,15.39-9.82,0-22.89-25.7-29.23-32.35-5.79-6.08-10.66-5.4-10.66-5.4.24-12.24.08-23.49.08-23.49l38.95.54,39-.54S178.52,249.61,180.2,264.73Z"/><path class="cls-6" d="M79,150.4s-10.61-3.72-13.62-2.15-7.48,9.4-6.92,18.7c.15,2.51,2.15,14.3,10.14,20.07,2.31,1.67,4.56,9.48,9.83,10.66,5.51,1.23,6-2.44,6-2.44Z"/><path class="cls-7" d="M81.55,171.77S75.67,153.52,67.78,156c-6.18,2-5.27,15.36-5.27,15.36s1.72-11.89,8.87-8.06c3.78,2-2.28,5.43-2.28,10.32s4.14,10.66,5.64,7.59S77.06,166.87,81.55,171.77Z"/><path class="cls-8" d="M81.13,169.56s-4.45-7-9.75-1,2.07,17,3.36,12.69,2.21-10.74,4.51-10.11a3.74,3.74,0,0,1,2.59,3Z"/><path class="cls-9" d="M74.72,195.52c.62,1,5.67,3.74,8.33,1,2.23-2.28-.91-20-1.21-22.37,0,0,1,18.68-.29,19.43C77.19,196.22,72.66,192,74.72,195.52Z"/><path class="cls-10" d="M201.08,150.4s10.6-3.72,13.61-2.15,7.49,9.4,6.92,18.7c-.15,2.51-2.15,14.3-10.13,20.07-2.32,1.67-4.57,9.48-9.84,10.66-5.51,1.23-6-2.44-6-2.44Z"/><path class="cls-11" d="M198.48,171.77s5.88-18.25,13.77-15.73c6.18,2,5.27,15.36,5.27,15.36s-1.73-11.89-8.88-8.06c-3.78,2,2.29,5.43,2.29,10.32s-4.14,10.66-5.65,7.59S203,166.87,198.48,171.77Z"/><path class="cls-12" d="M198.9,169.56s4.44-7,9.74-1-2.07,17-3.36,12.69-2.2-10.74-4.5-10.11a3.76,3.76,0,0,0-2.6,3Z"/><path class="cls-13" d="M205.31,195.52c-.62,1-5.67,3.74-8.33,1-2.23-2.28.91-20,1.2-22.37,0,0-1,18.68.3,19.43C196.63,192.5,205.17,195.76,205.31,195.52Z"/><path class="cls-14" d="M201.46,163.87c-2.8,22.48-5.92,41.2-7.26,44-1.09,2.24-5,6.46-10.53,11.19h0c-12,10.34-31.26,23.14-43.66,23.14-7.68,0-18-4.91-27.6-11.12h0A150.56,150.56,0,0,1,97.15,219.7h0c-5.88-5-10.17-9.51-11.31-11.86-1.35-2.78-4.49-21.65-7.3-44.27-4.37-35.15-8-79.37-2.84-86.38,3.67-5,13.36-10.1,24.5-14.17,14-5.13,30.37-8.7,39.82-8.7,16.94,0,56,11.47,64.33,22.87C209.46,84.22,205.84,128.67,201.46,163.87Z"/><path class="cls-15" d="M183.67,219h0c-12,10.34-31.26,23.14-43.66,23.14-7.68,0-18-4.91-27.6-11.12h0A149.45,149.45,0,0,1,97.15,219.7c.79.51,22.75,14.71,28.17,15.7s23.34.5,27.85,0S183.27,219.27,183.67,219Z"/><path class="cls-16" d="M235.33,296H44.67l40.74-15.73,4.52-14.9a72.7,72.7,0,0,1,9.86-.29l-.91,5.39s10.37,10.85,41.12,10.85c27.35,0,41.12-10.85,41.12-10.85l-.8-4.76-.11-.63a72.7,72.7,0,0,1,9.86.29l4.52,14.9Z"/><path class="cls-17" d="M89.93,265.37c-.78,2.56,20,20.46,49.5,20.46,31.8,0,50.64-20.46,50.64-20.46l4.52,14.9s-33.13,13.37-56.73,13.37c-25.34,0-52.45-13.37-52.45-13.37Z"/><path class="cls-18" d="M131.47,285.46C168.67,289,189.26,266,189.26,266S171,285.67,166.32,286.87C151.51,290.63,131.47,285.46,131.47,285.46Z"/><path class="cls-19" d="M174.51,275.18c-9,3.95-31.59,10.66-52.62,6.52-20.09-4-28.7-12.92-29.08-14.18s6.16-1.75,7-2.44l-.91,5.39s10.37,10.85,41.12,10.85c27.35,0,41.12-10.85,41.12-10.85l-.8-4.76c2.52.14,5,.27,5.54.27C187,266,183.53,271.22,174.51,275.18Z"/><path class="cls-20" d="M212.05,84.55c-1.11,4.52-2,9.18-2.81,13.73l-.39,2.42c-2.68,16.9-2,48-2,48a7.44,7.44,0,0,0-4.05,4l-6.61-30c0-.24-5.19-15.07-5.17-15.31a18.33,18.33,0,0,1,.23-1.85c.84-5.11-.68-9.47-.42-9.89,0,0,0,0,0,0h0l-.6-.18c-20.61-6.25-50.81-7.32-50.81-7.32S108.7,89.16,88,95.57h0a75.15,75.15,0,0,0-.7,11.61L86,110.46l-5.15,13.07-3.65,29.16a11.66,11.66,0,0,0-5.11-4.22s.82-23.86-.36-34.59c-.15-1.36-.32-2.77-.49-4.22-.86-6.83-2-14.5-3.73-22-.23-1.06-.48-2.12-.73-3.16,0,0,.09-.26.28-.72.36-.86,1-2.43,2.06-4.44v0a73.92,73.92,0,0,1,8.44-13.13s-4.25-1.4,0-4.92A17,17,0,0,1,84,58.43a39.25,39.25,0,0,1,6.9-1.11L95.82,55s1.92-5.87,5.74-8.92,7.52,1.18,7.52,1.18l7.53-2.35s-.54-3.28,4.66-4.22,12.85,1.4,12.85,1.4h10.62s.19-2.57,5.39-1.63,12.12,4.45,12.12,4.45l7.4,2.31.13,0s.29-.05.8-.1h0c2.05-.21,7.47-.47,10.53,2a6.64,6.64,0,0,1,2.05,2.5,3.65,3.65,0,0,1-.13,3.37L188,57.32s9,.48,13.28,4,0,4.92,0,4.92a74,74,0,0,1,8.45,13.13v0C211.27,82.49,212.05,84.55,212.05,84.55Z"/><path class="cls-21" d="M209.7,79.39v0a74,74,0,0,0-8.45-13.13,1.33,1.33,0,0,0,.21-.08A3.13,3.13,0,0,0,202.92,65a1.7,1.7,0,0,0,.17-1.28c-10.63-.75-20.86-.5-27.34-1.59h0l-.81-.15c-.27,0-.5-.11-.69-.16h0c-1.35-.25-2.5-1.94-5.47-2.14,0,0-4.33.16-10.78,0-10.57-.27-14.23-2.84-14.54-3.08-1.84-.42-9.72-.74-9.72-.74-2.23,0-9.21,2.1-13.07,1.75-14.07.73-12.73,2.63-12.73,2.63C106,62.87,94.2,65.79,86.63,63.7c-2-.55-2.89-1.21-3.15-1.9a1.29,1.29,0,0,1-.06-.7c.31-1.71,3.75-3.34,3.75-3.34a31.93,31.93,0,0,0-3.18.67,16.93,16.93,0,0,0-6.38,2.88c-4.25,3.52,0,4.93,0,4.93a73.92,73.92,0,0,0-8.44,13.13v0s0,0,0,0a0,0,0,0,1,0,0c-1,2-1.67,3.52-2,4.36-.09.23-.17.41-.21.53s0,0,0,0h0l0,.09s0,0,0,0h0v0s4.1,4.69,6.42,6.1a49.32,49.32,0,0,0,5.89,2.81s.68,5.63,4.51,5.87S88,95.57,88,95.57l.27-.08c20.67-6.34,51.14-7.42,51.14-7.42s30.73,1.09,51.41,7.5c0,0,.46,3.36,3.5,3.73l.26,0h.62c3.83-.24,4.52-5.87,4.52-5.87a48.74,48.74,0,0,0,5.88-2.81c2.33-1.41,6.43-6.1,6.43-6.1S211.27,82.49,209.7,79.39Z"/><path class="cls-21" d="M106.58,58.33c1.31-.41,0-1.45-1-2.84h0c-.45-.34-.44-.7.12-1.06,4.39-2.82,14.94-3.85,21.47-1.71a10.63,10.63,0,0,1,1,.38c7.49,2.59,16.58,2.44,23.91,1.53a24.44,24.44,0,0,1,3.28-.47h0c6.29-.47,12.28,1.46,13.51,4.78a28.38,28.38,0,0,0,10.85.37h0l1.11-.19h0c4.71-.82,10-1.46,10.06-1.47-1.75-.25-3-.32-3-.32L183.05,55a3.74,3.74,0,0,0-.19-4c-2.86,2.15-26,1.81-26.41-1.05s13.33-2.7,13.33-2.7l-.13,0-7.4-2.31-.45-.22c3.44,2.18-5.19,4-12.6,1.82s-4.46-4.42-4.46-4.42H134.12s1.12.66,2.66,1.81-10.88,4.63-20.17,1l-7.53,2.35a7.62,7.62,0,0,0-1-.94c.06.09,2.11,3.45-3.71,5.18a30.67,30.67,0,0,1-7.62,1.28,22.63,22.63,0,0,0-.9,2.22L90.9,57.32C93.05,57.18,100.87,56.78,106.58,58.33Z"/><path class="cls-21" d="M131.91,48.68c10.65-7.27,25,3.3,17.93,3.79C143,53,125.3,53.19,131.91,48.68Z"/><path class="cls-21" d="M90.33,57.36h0Z"/><path class="cls-22" d="M212.05,84.55s-4.1,4.69-6.43,6.1a48.74,48.74,0,0,1-5.88,2.81s-.69,5.63-4.52,5.87h-.07a3.57,3.57,0,0,1-.81,0c-3-.37-3.5-3.73-3.5-3.73-20.68-6.41-51.41-7.5-51.41-7.5S109,89.15,88.29,95.49l-.27.08s-.55,4-4.38,3.76-4.51-5.87-4.51-5.87a49.32,49.32,0,0,1-5.89-2.81c-2.32-1.41-6.42-6.1-6.42-6.1v0h0l0-.11h0c.06-.12,1.35-3,2-4.31l.11-.23,0-.11.12-.27a0,0,0,0,0,0,0l0,0v0c0,.27-.53,3.6,1.93,5.63a494.21,494.21,0,0,1,68.34-5.17c34.37,0,68.34,5.17,68.34,5.17,2.46-2,2-5.36,1.93-5.63C211.27,82.49,212.05,84.55,212.05,84.55Z"/><path class="cls-21" d="M188,57.32s-9.12-.8-15.48.82c0,0-1.05-2.55-4.81-3.52,0,0,10.69.82,15.5-3a3.65,3.65,0,0,1-.13,3.37Z"/><path class="cls-21" d="M126.47,50.48c.1.41-10-1.48-19.82,2a7.94,7.94,0,0,0,2.44-5.23l7.52-2.35c2.75,2.54,10.26,3,18.82.65C135.15,45.64,126.09,49,126.47,50.48Z"/><path class="cls-21" d="M209.7,79.39v0a74,74,0,0,0-8.45-13.13l-.28,0,.49,0A3.13,3.13,0,0,0,202.92,65c-14.52-.79-28.12-2.07-28.12-2.07-8.62-.74-14.23-.79-14.23-.79s5.24,1.15,6.53,3.14c1.77,2.7-2.95,5.43-15.5,4.72h-.51c-.35-.1-4.77-1.13-3.5-3.42,1-1.82,6.29-3.2,6.29-3.2s-11.81-1.43-13.15-3.2c-2.38-3.14,5.58-5.8,5.58-5.8-7.6-.6-12.51-.81-12.51-.81,4.23,2.87.67,7.52.67,7.52,8.61,1.71,15.65,7.24,5,6.75-5.86-.28-18.4.92-21.52-.5-1.21-.55-4.56-3.1,0-4.71a55.46,55.46,0,0,1,9.44-2.45,61,61,0,0,0-11.56-1.74c-3.75-.26-7.41-.29-7.41-.29s9.69,2.94,5.51,4.61c-12.65,5-31,2.68-34.07-.81-.88-1,3.82-2.62,4.17-3.51a17,17,0,0,0-6.38,2.89c-4.25,3.52,0,4.92,0,4.92a73.92,73.92,0,0,0-8.44,13.13v0a0,0,0,0,0,0,0s0,0,0,0l0,0-.12.27,0,.11-.11.23-.06.13-1.94,4.28s0,0,0,0h0v0s4.1,4.69,6.42,6.1a49.32,49.32,0,0,0,5.89,2.81s.68,5.63,4.51,5.87S88,95.57,88,95.57l.27-.08c20.67-6.34,51.14-7.42,51.14-7.42s30.73,1.09,51.41,7.5c0,0,.46,3.36,3.5,3.73l.72,0h.16c3.83-.24,4.52-5.87,4.52-5.87a48.74,48.74,0,0,0,5.88-2.81c2.33-1.41,6.43-6.1,6.43-6.1A55.26,55.26,0,0,0,209.7,79.39ZM104.21,75.31c-3.72,2.61-21.07.58-23.49-.74-1.93-1.06.8-6,14.89-5.53C100.37,69.2,106.8,73.5,104.21,75.31Zm29.59,2.92c-10.34-1.78-13.1.59-16.9-.22-10.26-2.2,2.62-8.62,15-4.35C135.29,74.81,136.84,78.75,133.8,78.23Zm60.13-4.07c-3.17,1.19-19.25-.66-27.08,0-3.44.29,2.24-6,8.34-7.4S198.68,72.39,193.93,74.16Z"/><path class="cls-20" d="M145.58,60.26l-.11.07a.67.67,0,0,0-.16-.1Z"/><rect x="109" y="137.02" width="7.55" height="7.55"/><rect x="165.74" y="137.02" width="7.55" height="7.55"/><path class="cls-23" d="M206.35,134.44v-1.2c-1.79-.13-11.88-.2-13.65-.37a2.33,2.33,0,0,1-1.54-.61c-3.42-5.23-8.57-7.56-14.41-8.67a31,31,0,0,0-17,1.52c-5.29,2-9.48,5.24-11.48,10.79a27.44,27.44,0,0,0-15.93-.09,17.35,17.35,0,0,0-9.74-11c-9-4.25-18.12-4.67-27.18,0a13.28,13.28,0,0,0-5.77,5.48c-.91,1.68-15.5-.11-15.7-.23l-.25,2c1.18.25,13.16,2.21,14.51,2.51-.05,1.1-.15,2.31-.17,3.52-.09,6.78,1.71,12.89,6.75,17.67,6.26,6,13.83,7.95,22.06,5.68S130.2,153.43,132,145a30.48,30.48,0,0,0,.42-6c0-.85.16-1.31,1-1.6a24.21,24.21,0,0,1,12.12-.62c1.94.37,2.37,1,2.18,3.09a20,20,0,0,0,4.61,14.88c6.23,7.65,14.38,10.35,24,8.16a21.36,21.36,0,0,0,16.24-17.37,53.5,53.5,0,0,0,.18-7.5c0-.6,0-1.21,0-2C194.85,136,206.35,134.44,206.35,134.44Zm-87,24.32c-7.31,3.37-14.37,2.7-21-2-7.39-5.23-9.14-12.69-8.63-21.16.34-5.47,3.51-8.74,8.25-10.6,9.59-3.76,18.74-2.52,27.18,3.23,4.72,3.21,6.12,6.95,5.65,15.37A19.16,19.16,0,0,1,119.33,158.76Zm55,3.44c-12.47,2.47-24.59-7.19-25.21-19.88-.3-5.94,2.11-10.25,6.92-13.44s9.89-4.48,17.2-4.36a26.21,26.21,0,0,1,13,4.33c3.93,2.63,5,6.47,5.31,10.81A21.14,21.14,0,0,1,174.34,162.2Z"/></g></g></g></svg>