<svg width="467" height="484" viewBox="0 0 467 484" fill="none" xmlns="http://www.w3.org/2000/svg">
<g clip-path="url(#clip0_364_7508)">
<path d="M104.34 410.86H20.04L53.61 372.09V296.55" stroke="#A5DDF7" stroke-width="10" stroke-miterlimit="10"/>
<path d="M105.83 371.42V266.95H53.52V235.29H83.79V207.91H130.61L129.34 47.3799" stroke="#A5DDF7" stroke-width="10" stroke-miterlimit="10"/>
<path d="M130.34 173.12L84.79 172.58L85.51 0.0200195" stroke="#A5DDF7" stroke-width="10" stroke-miterlimit="10"/>
<path d="M361.29 410.86H445.58L412.01 372.09V296.55" stroke="#A5DDF7" stroke-width="10" stroke-miterlimit="10"/>
<path d="M359.8 371.42V266.95H412.1V235.29H381.84V207.91H335.01L336.29 47.3799" stroke="#A5DDF7" stroke-width="10" stroke-miterlimit="10"/>
<path d="M338.01 173.12L380.83 172.58L380.11 0.0200195" stroke="#A5DDF7" stroke-width="10" stroke-miterlimit="10"/>
<path d="M222.67 172C223.18 171.424 223.807 170.964 224.509 170.648C225.21 170.333 225.971 170.169 226.74 170.169C227.509 170.169 228.27 170.333 228.971 170.648C229.673 170.964 230.3 171.424 230.81 172V178.65L234.94 178.77" stroke="white" stroke-width="0.5" stroke-miterlimit="10"/>
<path d="M238.15 172C238.661 171.424 239.289 170.963 239.991 170.648C240.694 170.332 241.455 170.169 242.225 170.169C242.995 170.169 243.756 170.332 244.459 170.648C245.161 170.963 245.789 171.424 246.3 172" stroke="white" stroke-width="0.5" stroke-miterlimit="10"/>
<path d="M230.1 184.19C230.611 184.766 231.239 185.227 231.941 185.542C232.644 185.858 233.405 186.021 234.175 186.021C234.945 186.021 235.706 185.858 236.409 185.542C237.111 185.227 237.739 184.766 238.25 184.19" stroke="white" stroke-width="0.5" stroke-miterlimit="10"/>
<path d="M393.79 462C392.3 461.87 382.25 461.15 377.27 467.79C376.518 468.804 375.919 469.923 375.49 471.11L386.15 471.06" fill="#FCCCDB"/>
<path d="M393.79 462C392.3 461.87 382.25 461.15 377.27 467.79C376.518 468.804 375.919 469.923 375.49 471.11L386.15 471.06" stroke="#032F7B" stroke-width="0.75" stroke-miterlimit="10"/>
<path d="M396.31 471.06H413.78C413.78 471.06 434.51 453.85 423.33 446.62C423.33 446.62 412.6 444.08 408.72 457.31C406.28 463.18 401.899 468.034 396.31 471.06Z" fill="#FCCCDB" stroke="#032F7B" stroke-width="0.75" stroke-miterlimit="10"/>
<path d="M354.69 327.11V381.84C354.69 381.84 353.37 391.35 361.89 396.63C370.41 401.91 400 420.15 400 420.15C400 420.15 386.3 422.55 386.23 436.32C386.23 437.01 384.39 451.4 389.33 454.1L342.64 425.19C342.64 425.19 313.5 404.09 313.04 383.9C312.58 363.71 313.04 352.69 313.04 352.69L354.69 327.11Z" fill="#3D0012" stroke="#032F7B" stroke-width="0.75" stroke-miterlimit="10"/>
<path d="M389.72 454.46C389.72 454.46 386.58 454.27 386.34 444.85L396.39 450.18C396.39 450.18 392.73 455.35 389.72 454.46Z" fill="black" stroke="#032F7B" stroke-width="0.75" stroke-miterlimit="10"/>
<path d="M400.06 420.15C400.06 420.15 403.99 420.78 403.13 432.65L391.13 424.7C391.13 424.7 396.39 418.65 400.06 420.15Z" fill="black" stroke="#032F7B" stroke-width="0.75" stroke-miterlimit="10"/>
<path d="M307.25 314.9C307.25 314.9 303.65 321.03 298.37 322.9C293.09 324.77 280.47 328.41 280.47 328.41C280.47 328.41 253.63 339.19 237.57 363.51C221.51 387.83 220.82 405.26 220.82 405.26L218.76 432.34V448.82H246.76L247.17 417.19C247.17 417.19 251.68 395.73 258.26 389.48C264.84 383.23 272.68 370.3 298.67 362.14C300.525 361.405 302.48 360.953 304.47 360.8C308.37 360.34 339.73 365.09 349.47 344.47C361.34 328.18 356.81 314.93 356.81 314.93L307.25 314.9Z" fill="#790025" stroke="#032F7B" stroke-width="0.75" stroke-miterlimit="10"/>
<path d="M331.44 358.72C331.44 358.72 314.5 370.9 316.22 395.72C316.22 395.72 312.59 389.94 313.05 373.16L312.85 360.89C312.85 360.89 317.67 360.89 319.22 360.72C323.334 360.333 327.417 359.665 331.44 358.72Z" fill="black" stroke="#032F7B" stroke-width="0.75" stroke-miterlimit="10"/>
<path d="M412.36 439L391.1 424.7C391.1 424.7 383.77 430.39 386.02 445.89L397.15 454.1C397.15 454.1 401.09 439.34 412.36 439Z" fill="#CDDFFD" stroke="#032F7B" stroke-width="0.75" stroke-miterlimit="10"/>
<path d="M423.33 446.62L411.46 438C411.46 438 403.46 435 394.16 459.16C392.43 463.676 389.694 467.739 386.16 471.04H396.32C396.32 471.04 406.48 466.04 409.4 455.21C412.4 445.51 423.33 446.62 423.33 446.62Z" fill="#790025" stroke="#032F7B" stroke-width="0.75" stroke-miterlimit="10"/>
<path d="M357.72 322.93H335.01L340.52 346.33L346.37 349.78" stroke="#032F7B" stroke-width="0.75" stroke-miterlimit="10"/>
<path d="M273.73 331.34C273.73 331.34 280.47 354.2 298.73 362.11L285.73 366.87L273.73 331.34Z" fill="black" stroke="#032F7B" stroke-width="0.75" stroke-miterlimit="10"/>
<path d="M269 244.92C269 244.92 279.49 245.09 283.79 243.92C288.09 242.75 304.67 236.58 306.11 233.92L308.43 232.75L313.1 240.17L317.85 262.37V267.71H299.4L267.74 266.84L269 244.92Z" fill="#FA99B6" stroke="#032F7B" stroke-width="0.75" stroke-miterlimit="10"/>
<path d="M196.58 244.92C196.58 244.92 186.09 245.09 181.79 243.92C177.49 242.75 160.91 236.58 159.47 233.92L157.15 232.75L152.48 240.17L147.73 262.37V267.71H166.13L197.79 266.84L196.58 244.92Z" fill="#67D598" stroke="#032F7B" stroke-width="0.75" stroke-miterlimit="10"/>
<path d="M154.81 248.71C154.81 248.71 165.36 266.95 181.19 267.29L153.78 267.64C153.78 267.64 144 260.18 154.81 248.71Z" fill="black" stroke="#032F7B" stroke-width="0.75" stroke-miterlimit="10"/>
<path d="M306.83 248.71C306.83 248.71 296.29 266.6 280.46 267L307.86 267.69C307.86 267.69 317.61 260.18 306.83 248.71Z" fill="black" stroke="#032F7B" stroke-width="0.75" stroke-miterlimit="10"/>
<path d="M218.73 448.79V471.56H268.63L263.98 465.2L242.65 457.28L239.03 448.79H218.73Z" fill="#02B954" stroke="#032F7B" stroke-width="0.75" stroke-miterlimit="10"/>
<path d="M239.06 447.73L218.76 458.74V447.73H237.34H239.06Z" fill="black" stroke="#032F7B" stroke-width="0.75" stroke-miterlimit="10"/>
<path d="M214.2 179.25L211.09 179.94L210.18 181.66L211.09 190.49L212.93 191.51L215 190.96L214.2 179.25Z" fill="#24353D" stroke="#032F7B" stroke-width="0.75" stroke-miterlimit="10"/>
<path d="M252.28 179.25L255.39 179.94L256.31 181.66L255.39 190.49L253.56 191.51L251.49 190.96L252.28 179.25Z" fill="#24353D" stroke="#032F7B" stroke-width="0.75" stroke-miterlimit="10"/>
<path d="M232.81 296.76L261.91 297.91L313.9 448.79H278.65L232.81 340.81L188.27 447.73H152.48L204.33 297.91L232.81 296.76Z" fill="#032F7B" stroke="#032F7B" stroke-width="0.75" stroke-miterlimit="10"/>
<path d="M342.73 227.74C341.8 227.87 340.82 227.97 339.82 228.04C314.59 229.79 316.11 200 316.11 200C316.11 200 321.24 184.9 336.01 178.81C336.51 179.725 336.7 180.778 336.55 181.81C336.323 182.642 335.932 183.421 335.4 184.1C333.49 187.1 332.1 187.71 331.29 189.33C330.83 190.25 330.23 192.33 331.29 193.96C332.35 195.59 335.58 195.57 336.11 195.56C337.89 195.56 338.82 194.95 339.55 195.56C339.835 195.862 340.029 196.237 340.11 196.644C340.192 197.051 340.157 197.472 340.01 197.86C339.74 199.78 337.54 199.86 335.43 200.77C333.83 201.44 330.8 202.34 329.33 205.2C328.51 206.82 327.93 211.76 327.93 211.76L342.73 227.74Z" fill="#CDDFFD" stroke="#032F7B" stroke-width="0.75" stroke-miterlimit="10"/>
<path d="M214 177.64C214 177.64 215.57 159.48 219.79 155.64C224.62 151.23 240.74 151.64 245.95 155.64C250.5 159.1 252.08 177.64 252.08 177.64H214Z" fill="black" stroke="#032F7B" stroke-width="0.75" stroke-miterlimit="10"/>
<path d="M125.41 230.4C123.962 230.3 122.52 230.126 121.09 229.88H121.61L138.39 211.77C138.39 211.77 137.83 206.83 137.01 205.21C135.54 202.35 132.5 201.45 130.9 200.78C128.8 199.9 126.59 199.78 126.32 197.87C126.173 197.482 126.138 197.061 126.22 196.654C126.301 196.247 126.495 195.872 126.78 195.57C127.51 194.96 128.44 195.57 130.23 195.57C130.75 195.57 133.95 195.65 135.04 193.97C135.419 193.257 135.617 192.463 135.617 191.655C135.617 190.848 135.419 190.053 135.04 189.34C134.22 187.72 132.83 187.08 130.93 184.11C130.398 183.431 130.007 182.652 129.78 181.82C129.643 180.945 129.764 180.048 130.13 179.24C145 185.74 150.21 201 150.21 201C150.21 201 151.79 232.24 125.41 230.4Z" fill="#CDDFFD" stroke="#032F7B" stroke-width="0.75" stroke-miterlimit="10"/>
<path d="M108.26 315.81L110.84 348.68V381.84C110.84 381.84 112.16 391.35 103.64 396.63C95.12 401.91 65.52 420.15 65.52 420.15C65.52 420.15 79.22 422.55 79.29 436.32C79.29 437.01 81.13 451.4 76.19 454.1L122.88 425.19C122.88 425.19 152.02 404.09 152.48 383.9C152.94 363.71 152.48 352.69 152.48 352.69L108.26 315.81Z" fill="#012E15" stroke="#032F7B" stroke-width="0.75" stroke-miterlimit="10"/>
<path d="M79.94 470.5L90.59 470.56C90.1659 469.371 89.5659 468.251 88.81 467.24C83.81 460.6 73.81 461.32 72.29 461.44L78.2 470.5H79.94Z" fill="#CCF1DD" stroke="#032F7B" stroke-width="0.75" stroke-miterlimit="10"/>
<path d="M75.86 454.46C75.86 454.46 79.01 454.27 79.25 444.85L69.25 450.18C69.25 450.18 72.86 455.35 75.86 454.46Z" fill="black" stroke="#032F7B" stroke-width="0.75" stroke-miterlimit="10"/>
<path d="M180.1 367.9C180.1 367.9 201.23 380.21 204.33 409.18L210.44 394.52C210.44 394.52 198.38 372.33 180.1 367.9Z" fill="black" stroke="#032F7B" stroke-width="0.75" stroke-miterlimit="10"/>
<path d="M278.77 80.4102L260.75 100.5V106.1V113.22L261.89 115.74L276.37 127.68L286.46 118.5L272.68 109.32L271.07 106.33L271.76 103.35L278.77 90.7302L279.79 87.0602L278.77 80.4102Z" fill="#CDDFFD" stroke="#032F7B" stroke-width="0.75" stroke-miterlimit="10"/>
<path d="M186.86 80.4102L204.89 100.5V106.1V113.22L203.74 115.74L189.27 127.68L179.18 118.5L192.96 109.32L194.57 106.33L193.88 103.35L186.86 90.7302L185.85 87.0602L186.86 80.4102Z" fill="#CDDFFD" stroke="#032F7B" stroke-width="0.75" stroke-miterlimit="10"/>
<path d="M220.85 201.84L217.71 220.65H251.65L244.07 201.84C244.07 201.84 257.5 192.1 250.61 172.65C249.24 168.65 247.39 167.06 245.61 165.94C240.42 162.65 232.71 158.66 221.01 165.36C217.7 167.26 214.81 173.45 214.81 173.45C214.81 173.45 209.49 193.24 220.85 201.84Z" fill="#CDDFFD" stroke="#032F7B" stroke-width="0.75" stroke-miterlimit="10"/>
<path d="M203.86 299.26L208.74 302.45H214.82H226.01L234.96 300.62L251.13 299.58L262.37 299.24L261.91 297.91H204.33L203.86 299.26Z" fill="black" stroke="#032F7B" stroke-width="0.75" stroke-miterlimit="10"/>
<path d="M275.38 187.37L279.69 199.32C283.162 207.196 284.748 215.774 284.32 224.37L292.88 210.37L275.38 187.37Z" stroke="#032F7B" stroke-width="0.75" stroke-miterlimit="10"/>
<path d="M219 216.53C219 216.53 221.57 213.18 222.56 212.17C224.61 210.086 227.156 208.558 229.96 207.73C233.4 206.73 232.71 206.81 232.71 206.81L232.77 205.43C232.77 205.43 228.77 206.15 222.64 200.87C219.177 197.991 216.307 194.466 214.19 190.49C214.19 190.49 214.64 197.82 220.84 201.84L218.39 216.53H219Z" fill="black" stroke="#032F7B" stroke-width="0.75" stroke-miterlimit="10"/>
<path d="M282.79 448.79V471.56H332.69L328.04 465.2L306.71 457.28L303.09 448.79H282.79Z" fill="#377DF7" stroke="#032F7B" stroke-width="0.75" stroke-miterlimit="10"/>
<path d="M182.99 447.73V470.5H133.09L137.74 464.14L159.07 456.22L162.69 447.73H182.99Z" fill="#377DF7" stroke="#032F7B" stroke-width="0.75" stroke-miterlimit="10"/>
<path d="M191.1 157.31L204.37 168.22L191.25 187.37L169.8 216.53L159.47 233.85L158 236.61L156.17 242.61L154.33 251.79L153.41 256.79V267.46L153.99 300.18C153.99 300.18 154.75 312.18 158.3 314.9H104.13C105.465 310.675 106.517 306.365 107.28 302C107.91 297.13 108.14 279 108.14 279C108.14 279 104.14 246.82 121.62 229.85C138.02 211.95 161.08 187.63 161.08 187.63L191.1 157.31Z" fill="#67D598" stroke="#032F7B" stroke-width="0.75" stroke-miterlimit="10"/>
<path d="M108.66 314.9H104.13C103.93 315.506 103.862 316.148 103.931 316.783C104 317.418 104.204 318.031 104.53 318.58C104.875 319.554 105.421 320.445 106.132 321.194C106.844 321.944 107.705 322.535 108.66 322.93C107.8 321.33 108.66 314.9 108.66 314.9Z" fill="black" stroke="#032F7B" stroke-width="0.75" stroke-miterlimit="10"/>
<path d="M134.05 358.14C134.05 358.14 151.05 370.9 149.31 395.76C149.31 395.76 153.11 390.02 152.65 373.24V361.1L146.14 360.67C146.14 360.67 134.56 358.55 134.05 358.14Z" fill="black" stroke="#032F7B" stroke-width="0.75" stroke-miterlimit="10"/>
<path d="M65.5197 420.15C65.5197 420.15 61.5997 420.78 62.4597 432.65L74.4597 424.7C74.4597 424.7 69.1997 418.65 65.5197 420.15Z" fill="black" stroke="#032F7B" stroke-width="0.75" stroke-miterlimit="10"/>
<path d="M54.6299 437.9L74.4299 424.7C74.4299 424.7 81.7599 430.39 79.5099 445.89L69.2499 453.3C69.2499 453.3 67.1299 449.8 64.7199 445.87C62.4599 442.19 60.0799 438.06 54.6299 437.9Z" fill="#CDDFFD" stroke="#032F7B" stroke-width="0.75" stroke-miterlimit="10"/>
<path d="M42.75 446.07L54.63 437.47C54.63 437.47 62.63 434.47 71.92 458.63C73.6477 463.144 76.384 467.204 79.92 470.5H69.77C69.77 470.5 57.34 466 54.41 455.15C51.4 445.43 42.75 446.07 42.75 446.07Z" fill="#02B954" stroke="#032F7B" stroke-width="0.75" stroke-miterlimit="10"/>
<path d="M69.7699 470.5H52.2999C52.2999 470.5 33.2999 451.32 42.7499 446.07C42.7499 446.07 51.0699 443.55 57.3699 456.76C59.8091 462.624 64.186 467.474 69.7699 470.5Z" fill="#CCF1DD" stroke="#032F7B" stroke-width="0.75" stroke-miterlimit="10"/>
<path d="M191.1 157.31L252.51 100.67L271.32 88.5898L204.37 168.22L191.1 157.31Z" fill="#CDDFFD" stroke="#032F7B" stroke-width="0.75" stroke-miterlimit="10"/>
<path d="M270.87 153.94L211.89 101.16L194.32 88.4199L258.37 164.16L270.87 153.94Z" fill="#CDDFFD" stroke="#032F7B" stroke-width="0.75" stroke-miterlimit="10"/>
<path d="M270.87 153.94L258.37 164.16L274.28 187.37L295.73 216.53L306.06 233.85L305.06 244.15C305.06 244.15 303 257.69 302.92 264C302.87 269 306.11 273.55 306.11 273.55L309.2 278.71C309.928 279.851 310.596 281.029 311.2 282.24C314.2 289.89 314.2 305.99 307.27 314.88H361.4C360.066 310.661 359.014 306.358 358.25 302C357.62 297.13 357.39 279 357.39 279C357.39 279 361.39 246.82 343.91 229.85C327.51 211.95 304.45 187.63 304.45 187.63L270.87 153.94Z" fill="#FA99B6" stroke="#032F7B" stroke-width="0.75" stroke-miterlimit="10"/>
<path d="M356.87 314.9H361.4C361.4 314.9 362.49 316.47 361.4 319.34C361.091 320.174 360.601 320.928 359.964 321.549C359.328 322.17 358.561 322.642 357.72 322.93L356.87 314.9Z" fill="black" stroke="#032F7B" stroke-width="0.75" stroke-miterlimit="10"/>
<path d="M138.39 211.73L121.61 229.84H121.09C98.56 225.84 94.89 204.45 94.89 204.45C94.89 204.45 88.89 176.45 115.31 176.23C120.396 176.135 125.444 177.134 130.11 179.16C129.745 179.967 129.623 180.864 129.76 181.74C129.987 182.572 130.378 183.351 130.91 184.03C132.81 187.03 134.2 187.64 135.02 189.26C135.399 189.973 135.597 190.768 135.597 191.575C135.597 192.382 135.399 193.177 135.02 193.89C133.93 195.57 130.73 195.5 130.21 195.49C128.42 195.49 127.49 194.88 126.76 195.49C126.475 195.791 126.281 196.167 126.2 196.574C126.118 196.981 126.153 197.402 126.3 197.79C126.57 199.71 128.78 199.79 130.88 200.7C132.48 201.37 135.52 202.27 136.99 205.13C137.83 206.79 138.39 211.73 138.39 211.73Z" fill="black" stroke="#032F7B" stroke-width="0.75" stroke-miterlimit="10"/>
<path d="M381.45 211.15C379.07 213.406 375.989 214.779 372.72 215.04C370.002 215.198 367.287 214.679 364.82 213.53C362.456 217.419 359.24 220.719 355.412 223.181C351.585 225.643 347.248 227.202 342.73 227.74L327.91 211.74C327.91 211.74 328.49 206.8 329.31 205.18C330.78 202.32 333.81 201.42 335.41 200.75C337.52 199.87 339.72 199.75 339.99 197.84C340.137 197.452 340.171 197.031 340.09 196.624C340.009 196.217 339.814 195.842 339.53 195.54C338.8 194.93 337.87 195.54 336.09 195.54C335.56 195.54 332.37 195.62 331.27 193.94C330.17 192.26 330.83 190.23 331.27 189.31C332.08 187.69 333.47 187.05 335.38 184.08C335.911 183.401 336.302 182.622 336.53 181.79C336.68 180.758 336.49 179.705 335.99 178.79C340.261 177.055 344.84 176.201 349.45 176.28C362.74 176.39 367.75 184.54 369.23 191.6C371.57 191.16 384.03 187.99 385.71 200.72C386.79 206.18 382.34 210.26 381.45 211.15Z" fill="black" stroke="#032F7B" stroke-width="0.75" stroke-miterlimit="10"/>
<path d="M158.28 314.9C158.28 314.9 161.88 321.03 167.16 322.9C172.44 324.77 180.63 326.9 185.05 328.41C198.15 332.93 211.9 339.19 227.96 363.51C244.02 387.83 244.71 405.26 244.71 405.26L246.77 432.34V448.82H218.77L218.36 417.19C218.36 417.19 213.85 395.73 207.27 389.48C200.69 383.23 193.81 370.16 167.89 362.36C167.89 362.36 164.89 361.67 161.01 361.21C157.13 360.75 127.69 364.08 116.01 344.47C105.72 327.13 108.67 314.93 108.67 314.93L158.28 314.9Z" fill="#015D2A" stroke="#032F7B" stroke-width="0.75" stroke-miterlimit="10"/>
<path d="M108.66 322.93H131.37L125.86 346.33L120.01 349.78" stroke="#032F7B" stroke-width="0.75" stroke-miterlimit="10"/>
<path d="M316.74 144.66L311.47 136.66L286.47 118.53L276.38 127.71L296.11 147.44C296.11 147.44 281.42 178.64 269.03 197.91C256.64 217.18 232.82 217.18 232.82 217.18C232.82 217.18 209 217.18 196.61 197.91C184.22 178.64 169.54 147.44 169.54 147.44L189.27 127.71L179.17 118.53L154.17 136.66L148.9 144.66L147.75 149.47V155.9L149.59 162.78L153.72 172.42L161.29 186.64L184.92 231.15L189.28 237.8L191.11 244.68L200.06 294.68L201.82 297.89H264L265.6 294.68L274.55 244.68L276.39 237.8L280.75 231.15L304.38 186.64L311.95 172.42L316.08 162.78L317.91 155.9V149.47L316.74 144.66Z" fill="#8FD4F5" stroke="#032F7B" stroke-width="0.75" stroke-miterlimit="10"/>
<path d="M221.3 176.49C221.81 175.915 222.437 175.454 223.138 175.138C223.84 174.823 224.601 174.66 225.37 174.66C226.139 174.66 226.9 174.823 227.601 175.138C228.303 175.454 228.929 175.915 229.44 176.49C229.79 176.26 225.92 183.26 225.92 183.26C227.3 183.26 232.2 183.26 233.57 183.26" stroke="#032F7B" stroke-width="0.75" stroke-miterlimit="10"/>
<path d="M236.78 176.49C237.291 175.914 237.919 175.454 238.621 175.138C239.323 174.822 240.085 174.659 240.855 174.659C241.625 174.659 242.386 174.822 243.089 175.138C243.791 175.454 244.418 175.914 244.93 176.49" stroke="#032F7B" stroke-width="0.75" stroke-miterlimit="10"/>
<path d="M228.73 188.65C229.24 189.229 229.867 189.692 230.569 190.009C231.272 190.327 232.034 190.491 232.805 190.491C233.576 190.491 234.338 190.327 235.041 190.009C235.743 189.692 236.37 189.229 236.88 188.65" stroke="#032F7B" stroke-width="0.75" stroke-miterlimit="10"/>
<path d="M162.69 447.73L182.99 458.74V447.73H164.41H162.69Z" fill="black" stroke="#032F7B" stroke-width="0.75" stroke-miterlimit="10"/>
<path d="M303.09 448.79L282.79 459.8V448.79H301.37H303.09Z" fill="black" stroke="#032F7B" stroke-width="0.75" stroke-miterlimit="10"/>
<path d="M240.61 359.19L252.16 400.29C253.029 397.986 254.047 395.741 255.21 393.57L240.61 359.19Z" fill="black" stroke="#032F7B" stroke-width="0.75" stroke-miterlimit="10"/>
<path d="M217.68 90.6702L234.24 101.69L254.37 100.64L272.68 87.8202L284.27 66.6502L286.02 42.8102L277.48 22.6802L260.92 11.6602L240.79 12.7002L222.48 25.5302L210.89 46.7002L209.14 70.5402L217.68 90.6702Z" fill="#FFBE00"/>
<path d="M195.73 90.74L213.81 102.77L235.78 101.63L255.76 87.63L268.41 64.52L270.32 38.5L261 16.53L242.93 4.5L220.95 5.64L200.97 19.64L188.32 42.74L186.41 68.77L195.73 90.74Z" fill="#FFBE00"/>
<path d="M202.86 82.64L216.98 92.04L234.16 91.15L249.78 80.21L259.67 62.15L261.17 41.8L253.87 24.63L239.75 15.23L222.57 16.12L206.95 27.06L197.06 45.12L195.57 65.47L202.86 82.64Z" fill="#F7931E"/>
<path d="M277.48 22.68L260.92 11.66L242.93 4.5L261 16.53L277.48 22.68Z" fill="#FFDE2D"/>
<path d="M254.37 100.64L235.78 101.63L213.81 102.77" fill="#FFDE2D"/>
<g style="mix-blend-mode:multiply" opacity="0.5">
<path d="M286.02 42.8098L277.48 22.6798L261 16.5298L270.32 38.4998L286.02 42.8098Z" fill="#FFDE2D"/>
</g>
<path d="M235.78 101.63L254.37 100.64L272.68 87.8199L256.09 87.3599L235.78 101.63Z" fill="#FFDE2D"/>
<g style="mix-blend-mode:multiply" opacity="0.4">
<path d="M256.09 87.36L272.68 87.82L284.27 66.65L268.41 64.52L256.09 87.36Z" fill="#FFDE2D"/>
</g>
<g style="mix-blend-mode:overlay" opacity="0.67">
<path d="M268.41 64.52L284.27 66.65L286.02 42.81L270.32 38.5L268.41 64.52Z" fill="#FFDE2D"/>
</g>
<g style="mix-blend-mode:soft-light" opacity="0.5">
<path d="M222.63 57.9096L230.75 57.5796L229.36 65.7296L237.47 65.3996L236.08 73.5496L211.73 74.5296L213.12 66.3796L221.24 66.0596L222.63 57.9096Z" fill="black"/>
<path d="M249.76 40.6398L248.37 48.7798L240.25 49.1098L238.86 57.2598L230.75 57.5798L232.14 49.4398L224.02 49.7598L222.63 57.9098L214.51 58.2398L215.91 50.0898L207.79 50.4198L209.19 42.2698L217.3 41.9398L218.69 33.7998L243.04 32.8198L241.65 40.9598L249.76 40.6398Z" fill="black"/>
</g>
<path d="M466.38 470.56H0.379883V483.18H466.38V470.56Z" fill="#032F7B" stroke="#032F7B" stroke-width="0.75" stroke-miterlimit="10"/>
</g>
<defs>
<clipPath id="clip0_364_7508">
<rect width="466.75" height="483.56" fill="white"/>
</clipPath>
</defs>
</svg>
