<svg xmlns="http://www.w3.org/2000/svg" xmlns:xlink="http://www.w3.org/1999/xlink" viewBox="0 0 280 296"><defs><style>.cls-1{isolation:isolate;}.cls-2{fill:#9bbefb;}.cls-3{fill:url(#_526);}.cls-11,.cls-12,.cls-13,.cls-15,.cls-17,.cls-18,.cls-19,.cls-21,.cls-22,.cls-4,.cls-5,.cls-7,.cls-8,.cls-9{mix-blend-mode:multiply;}.cls-17,.cls-18,.cls-19,.cls-22,.cls-4{opacity:0.6;}.cls-4{fill:url(#_20);}.cls-5{fill:#d077b7;}.cls-6{fill:url(#_526-2);}.cls-11,.cls-12,.cls-13,.cls-7,.cls-8,.cls-9{opacity:0.85;}.cls-7{fill:url(#_393_2);}.cls-8{fill:url(#_393_2-2);}.cls-9{fill:url(#_393_2-3);}.cls-10{fill:url(#_526-3);}.cls-11{fill:url(#_393_2-4);}.cls-12{fill:url(#_393_2-5);}.cls-13{fill:url(#_393_2-6);}.cls-14{fill:url(#_129);}.cls-15{fill:#ce478a;opacity:0.8;}.cls-16{fill:#055df5;}.cls-17{fill:url(#_6);}.cls-18{fill:url(#_6-2);}.cls-19{fill:url(#_6-3);}.cls-20{fill:#1a1a1a;stroke:#1a1a1a;stroke-width:0;}.cls-20,.cls-23{stroke-miterlimit:10;}.cls-21{fill:#7a369e;opacity:0.5;}.cls-22{fill:#d177b8;}.cls-23{stroke:#000;}</style><linearGradient id="_526" x1="140.01" y1="293.63" x2="140.01" y2="218.58" gradientUnits="userSpaceOnUse"><stop offset="0" stop-color="#c34433"/><stop offset="0.08" stop-color="#b73b31"/><stop offset="0.31" stop-color="#9b272c"/><stop offset="0.54" stop-color="#871828"/><stop offset="0.77" stop-color="#7b0f26"/><stop offset="1" stop-color="#770c25"/></linearGradient><linearGradient id="_20" x1="160.72" y1="279.03" x2="161.9" y2="228.91" gradientUnits="userSpaceOnUse"><stop offset="0" stop-color="#ffe7d8"/><stop offset="0.29" stop-color="#edbde1"/><stop offset="0.59" stop-color="#dc97ea"/><stop offset="0.84" stop-color="#d280ef"/><stop offset="0.99" stop-color="#ce77f1"/></linearGradient><linearGradient id="_526-2" x1="70.99" y1="197.37" x2="70.99" y2="147.01" xlink:href="#_526"/><linearGradient id="_393_2" x1="71.62" y1="181.46" x2="71.62" y2="154.99" gradientUnits="userSpaceOnUse"><stop offset="0" stop-color="#ffe9da"/><stop offset="0.99" stop-color="#b44cf3"/></linearGradient><linearGradient id="_393_2-2" x1="75.3" y1="181.59" x2="75.3" y2="165.37" xlink:href="#_393_2"/><linearGradient id="_393_2-3" x1="92.42" y1="185.32" x2="69.34" y2="185.32" xlink:href="#_393_2"/><linearGradient id="_526-3" x1="1635.61" y1="197.37" x2="1635.61" y2="147.01" gradientTransform="matrix(-1, 0, 0, 1, 1844.65, 0)" xlink:href="#_526"/><linearGradient id="_393_2-4" x1="1636.24" y1="181.46" x2="1636.24" y2="154.99" gradientTransform="matrix(-1, 0, 0, 1, 1844.65, 0)" xlink:href="#_393_2"/><linearGradient id="_393_2-5" x1="1639.92" y1="181.59" x2="1639.92" y2="165.37" gradientTransform="matrix(-1, 0, 0, 1, 1844.65, 0)" xlink:href="#_393_2"/><linearGradient id="_393_2-6" x1="1656.57" y1="185.32" x2="1634.72" y2="185.32" gradientTransform="matrix(-1, 0, 0, 1, 1844.65, 0)" xlink:href="#_393_2"/><linearGradient id="_129" x1="140.01" y1="241.86" x2="140.01" y2="52.93" gradientUnits="userSpaceOnUse"><stop offset="0" stop-color="#c1492c"/><stop offset="0.17" stop-color="#c44038"/><stop offset="0.43" stop-color="#c73646"/><stop offset="0.52" stop-color="#b72b3e"/><stop offset="0.68" stop-color="#a31d35"/><stop offset="0.84" stop-color="#97152f"/><stop offset="1" stop-color="#93122d"/></linearGradient><linearGradient id="_6" x1="140" y1="265.19" x2="140" y2="293.63" gradientUnits="userSpaceOnUse"><stop offset="0" stop-color="#705ab5"/><stop offset="0.19" stop-color="#8861c4"/><stop offset="0.54" stop-color="#ae6ddd"/><stop offset="0.82" stop-color="#c574ec"/><stop offset="0.99" stop-color="#ce77f1"/></linearGradient><linearGradient id="_6-2" x1="141.61" y1="289.35" x2="175.17" y2="274.62" xlink:href="#_6"/><linearGradient id="_6-3" x1="139.43" y1="264.9" x2="139.43" y2="282.93" xlink:href="#_6"/></defs><g class="cls-1"><g id="Layer_2" data-name="Layer 2"><g id="Layer_1-2" data-name="Layer 1"><rect class="cls-2" width="280" height="296"/><path class="cls-3" d="M215.73,290.63s-51.27,3-75.72,3-75.71-3-75.71-3,30.44-11.36,33.83-18.77c1.7-3.72,2.37-17.19,2.62-29.65.25-12.3.08-23.63.08-23.63l39.18.55,39.18-.55s-.45,30.76,1.24,46a28.61,28.61,0,0,0,1.47,7.31C185.28,279.27,215.73,290.63,215.73,290.63Z"/><path class="cls-4" d="M158.47,224c-11.08,19.25-12.29,41.15-7,56.14,1.75,4.93,25-49,23.12-56.14S164.15,214.17,158.47,224Z"/><path class="cls-5" d="M180.43,264.55c-.27.07-.56.25-.83.15-24.71-9-19.09,15.48-38.73,15.48-9.87,0-23-25.84-29.39-32.54-5.83-6.12-10.73-5.43-10.73-5.43.25-12.3.08-23.63.08-23.63l39.18.55,39.18-.55S178.74,249.34,180.43,264.55Z"/><path class="cls-6" d="M78.6,149.57s-10.67-3.75-13.7-2.17-7.52,9.45-7,18.81c.15,2.52,2.17,14.38,10.19,20.18,2.34,1.69,4.6,9.53,9.9,10.72,5.54,1.24,6.06-2.45,6.06-2.45Z"/><path class="cls-7" d="M81.21,171.06S75.3,152.7,67.36,155.23c-6.21,2-5.3,15.45-5.3,15.45s1.74-12,8.93-8.11c3.8,2-2.3,5.46-2.3,10.39s4.16,10.72,5.68,7.63S76.7,166.13,81.21,171.06Z"/><path class="cls-8" d="M80.79,168.83s-4.47-7.08-9.8-1,2.08,17.13,3.38,12.76,2.21-10.8,4.53-10.17a3.79,3.79,0,0,1,2.61,3.06Z"/><path class="cls-9" d="M74.34,195c.63,1.05,5.71,3.75,8.38,1,2.24-2.28-.92-20.07-1.21-22.49,0,0,1,18.78-.3,19.54C76.83,195.65,72.27,191.44,74.34,195Z"/><path class="cls-10" d="M201.43,149.57s10.66-3.75,13.69-2.17,7.53,9.45,7,18.81c-.15,2.52-2.16,14.38-10.19,20.18-2.33,1.69-4.59,9.53-9.89,10.72-5.54,1.24-6.06-2.45-6.06-2.45Z"/><path class="cls-11" d="M198.81,171.06s5.92-18.36,13.85-15.83c6.22,2,5.3,15.45,5.3,15.45s-1.73-12-8.92-8.11c-3.81,2,2.3,5.46,2.3,10.39s-4.17,10.72-5.68,7.63S203.32,166.13,198.81,171.06Z"/><path class="cls-12" d="M199.23,168.83s4.48-7.08,9.81-1S207,185,205.66,180.59s-2.22-10.8-4.53-10.17a3.77,3.77,0,0,0-2.61,3.06Z"/><path class="cls-13" d="M205.68,195c-.62,1.05-5.7,3.75-8.38,1-2.24-2.28.92-20.07,1.22-22.49,0,0-1,18.78.29,19.54C197,191.91,205.55,195.18,205.68,195Z"/><path class="cls-14" d="M201.81,163.11c-2.82,22.61-5.95,41.43-7.3,44.22-1.09,2.26-5.08,6.5-10.59,11.25h0C171.86,229,152.49,241.86,140,241.86c-7.72,0-18.11-4.94-27.76-11.18h0A149.74,149.74,0,0,1,96.9,219.26h0c-5.91-5-10.23-9.57-11.37-11.93-1.36-2.8-4.52-21.77-7.34-44.52-4.39-35.35-8-79.83-2.86-86.88C79,70.86,88.76,65.78,100,61.68c14.12-5.16,30.55-8.75,40.05-8.75,17,0,56.35,11.54,64.7,23C209.86,83,206.22,127.71,201.81,163.11Z"/><path class="cls-15" d="M183.92,218.59h0C171.86,229,152.48,241.86,140,241.86c-7.72,0-18.11-4.94-27.76-11.18h0A149.74,149.74,0,0,1,96.9,219.26c.8.52,22.88,14.8,28.33,15.79s23.48.5,28,0S183.52,218.83,183.92,218.59Z"/><path class="cls-16" d="M235.88,296H44.12l41-15.82,4.54-15a73.5,73.5,0,0,1,9.91-.29l-.9,5.43s10.43,10.91,41.35,10.91c27.5,0,41.35-10.91,41.35-10.91l-.8-4.8-.1-.63a73.5,73.5,0,0,1,9.91.29l4.54,15Z"/><path class="cls-17" d="M89.64,265.19c-.78,2.58,20.1,20.58,49.79,20.58,32,0,50.93-20.58,50.93-20.58l4.54,15s-33.31,13.45-57.05,13.45c-25.49,0-52.75-13.45-52.75-13.45Z"/><path class="cls-18" d="M131.42,285.4c37.42,3.53,58.12-19.59,58.12-19.59s-18.35,19.8-23.07,21C151.58,290.6,131.42,285.4,131.42,285.4Z"/><path class="cls-19" d="M174.71,275.06c-9.06,4-31.78,10.72-52.92,6.56-20.21-4-28.87-13-29.25-14.26s6.19-1.77,7-2.46l-.9,5.43s10.43,10.91,41.35,10.91c27.5,0,41.35-10.91,41.35-10.91l-.8-4.8c2.53.14,5,.28,5.57.28C187.26,265.81,183.78,271.07,174.71,275.06Z"/><path class="cls-20" d="M76.76,155S66.87,80.51,70.4,66.6C74,52.48,112.05,42.91,140.68,44.09c36.36,1.51,64.89,9,69.56,18.7,6.53,13.53-6.9,89.66-6.9,89.66s.06-21.31-4.77-32.07-4.09-32.1-6.48-35-27-9.89-51.41-10.07c-29.2-.22-50.45,9.91-51.92,11.16S87,108.86,85.89,115,77.8,137.05,76.76,155Z"/><path class="cls-21" d="M73,61.83c3.58,2.74,33.21,8.59,67,8.59s51.76-20,67.9-11.21c0,0-22.72-15-69-15.12C89.05,44,73,61.83,73,61.83Z"/><path class="cls-21" d="M80.74,123.16c-5.23,8.42-12.57-51-8.08-57,1.31-1.76,36.13,3.68,34.11,7.48s-13.43,7.72-18,12.78S87.17,112.81,80.74,123.16Z"/><path class="cls-21" d="M168.68,72c8.46,4.61,22.57,8.56,24.83,12s2.5,26.77,4.76,30.78,10.52-28.11,9.78-34.1c-2.64-21.31-5.93-24.91-17.21-20.69S166.06,70.61,168.68,72Z"/><path class="cls-22" d="M87.17,99.49C77,92.5,69.64,76.71,69.64,76.71L70.4,66.6s8.72,21.58,16.77,29.1Z"/><path class="cls-22" d="M175.71,79.52S191.12,70,193.94,57.26a15.11,15.11,0,0,1,8.26,0S193.38,61.55,187,83.05Z"/><rect x="110.05" y="127.12" width="7.24" height="7.24"/><rect x="164.38" y="127.12" width="7.24" height="7.24"/><path class="cls-23" d="M207.19,123.76v-1.27c-1.79-.08-13.06.32-14.82.19a2.29,2.29,0,0,1-1.57-.57c-3.54-5.14-8.75-7.34-14.62-8.31a31,31,0,0,0-17,2c-5.24,2.13-9.35,5.48-11.2,11.07a27.49,27.49,0,0,0-15.94.32,17.29,17.29,0,0,0-10-10.77c-9.1-4-18.23-4.21-27.17.63a13.24,13.24,0,0,0-5.63,5.63c-.87,1.7-15.69.64-15.69.64v2c1.19.23,13,1.41,14.36,1.68,0,1.1-.09,2.31-.08,3.52.08,6.78,2,12.84,7.18,17.5,6.41,5.8,14,7.6,22.2,5.12S130.4,144.8,132,136.34a31.42,31.42,0,0,0,.27-6c0-.85.12-1.32,1-1.63a24.33,24.33,0,0,1,12.11-.92c1.94.32,2.38.9,2.25,3a20,20,0,0,0,5,14.77c6.41,7.48,14.63,10,24.23,7.55a21.36,21.36,0,0,0,15.8-17.77,52.16,52.16,0,0,0,0-7.5c0-.61,0-1.22-.08-2C194.59,125.7,207.19,123.76,207.19,123.76ZM119.66,150.4c-7.22,3.56-14.29,3.06-21-1.46-7.52-5-9.46-12.46-9.16-20.94.2-5.48,3.29-8.82,8-10.8,9.48-4,18.66-3,27.25,2.54,4.79,3.09,6.28,6.8,6,15.23A19.16,19.16,0,0,1,119.66,150.4Zm55.09,2.06c-12.41,2.78-24.77-6.58-25.71-19.24-.44-5.93,1.85-10.3,6.59-13.61,4.59-3.22,9.77-4.73,17.07-4.79a26.14,26.14,0,0,1,13.13,4c4,2.54,5.16,6.35,5.58,10.68A21.14,21.14,0,0,1,174.75,152.46Z"/></g></g></g></svg>