<svg xmlns="http://www.w3.org/2000/svg" viewBox="0 0 383.16 383.19"><defs><style>.cls-1{fill:#055df5;}.cls-2{fill:#fff;}</style></defs><g id="Layer_2" data-name="Layer 2"><g id="Layer_1-2" data-name="Layer 1"><path class="cls-1" d="M380.06,162.26q-190,.18-380.06.12V377.14c2,4.58,5.52,6.06,10.44,6.05q181-.12,362.1-.06c7.91,0,10.53-2.62,10.53-10.52q0-103.26,0-206.52C383.08,164,383.51,162.26,380.06,162.26ZM271.91,251.65c-10.46,10.16-20.86,20.39-31.34,30.52a4.84,4.84,0,0,0-1.62,4.88c2.56,14.46,4.9,28.95,7.44,43.42.62,3.55-.15,6.45-3,8.61s-6,2-9.13.36c-12.87-6.76-25.76-13.5-38.57-20.36a5.06,5.06,0,0,0-5.46,0Q171,329.37,151.63,339.39c-6.44,3.35-12.73-.29-12.55-7.91,1.55-9.18,3.22-19.12,4.9-29.06.85-5,1.64-10.08,2.65-15.07.48-2.37-.26-3.88-2-5.51-10.16-9.74-20.19-19.64-30.34-29.4-2.7-2.6-4.47-5.44-3.33-9.25,1.2-4,4.44-5.36,8.27-5.9,14.29-2,28.57-4.14,42.88-6.08,2.1-.29,2.94-1.43,3.74-3.06,6.29-12.84,12.67-25.62,18.9-38.48,1.71-3.54,4-6.13,8.13-6.07,3.91.06,6.16,2.51,7.83,5.94,6.06,12.53,12.37,24.94,18.4,37.48,1.32,2.74,2.84,4,6,4.38,14.08,1.76,28.11,3.92,42.15,6,3.43.5,6.18,2,7.27,5.55S274.44,249.2,271.91,251.65Z"/><path class="cls-2" d="M240.57,282.17a4.84,4.84,0,0,0-1.62,4.88c2.56,14.46,4.9,28.95,7.44,43.42.62,3.55-.15,6.45-3,8.61s-6,2-9.13.36c-12.87-6.76-25.76-13.5-38.57-20.36a5.06,5.06,0,0,0-5.46,0Q171,329.37,151.63,339.39c-6.44,3.35-12.73-.29-12.55-7.91,1.55-9.18,3.22-19.12,4.9-29.06.85-5,1.64-10.08,2.65-15.07.48-2.37-.26-3.88-2-5.51-10.16-9.74-20.19-19.64-30.34-29.4-2.7-2.6-4.47-5.44-3.33-9.25,1.2-4,4.44-5.36,8.27-5.9,14.29-2,28.57-4.14,42.88-6.08,2.1-.29,2.94-1.43,3.74-3.06,6.29-12.84,12.67-25.62,18.9-38.48,1.71-3.54,4-6.13,8.13-6.07,3.91.06,6.16,2.51,7.83,5.94,6.06,12.53,12.37,24.94,18.4,37.48,1.32,2.74,2.84,4,6,4.38,14.08,1.76,28.11,3.92,42.15,6,3.43.5,6.18,2,7.27,5.55s-.16,6.29-2.69,8.74C261.45,261.81,251.05,272,240.57,282.17Z"/><path class="cls-1" d="M0,61.36c2.37-4.24,6-5.67,10.78-5.51,8.59.29,17.21.19,25.81,0,2.56,0,3.33.55,3.33,3.24,0,8.59-.57,17.21.39,25.79,2.15,19.14,18.88,34.33,38.32,34.79,20,.48,37.35-13.78,40.43-33.2,1.29-8.19.44-16.43.63-24.64.13-5.91,0-5.91,6.11-5.91q58.35,0,116.7,0c6.84,0,13.67.13,20.5.21.82,6.81.17,13.64.35,20.47A73.63,73.63,0,0,0,264,86.68c3.15,19.31,20.61,33.54,40.63,33,19.43-.52,36.05-15.75,38.15-35,.94-8.58.37-17.19.38-25.79,0-2.51.76-3.07,3.14-3,9.22.13,18.45,0,27.68.07,6,0,9.07,3,9.08,8.89,0,26.18-.06,52.37.1,78.56,0,3.46-1.77,3-3.9,3q-126.61,0-253.24,0-61,0-121.94,0c-1.36,0-2.72.15-4.08.24Z"/><path class="cls-1" d="M307.51,0c1.22,1.18,2.93,1,4.38,1.57A23.68,23.68,0,0,1,327.1,23.92q.19,27.87,0,55.74c-.12,13.58-10.22,23.79-23.45,24.14A23.73,23.73,0,0,1,279.4,80.44q-.58-28.62,0-57.24c.24-10.74,6.11-18.12,16.26-22,.73-.27,1.84-.09,2.09-1.24Z"/><path class="cls-1" d="M83.8,0c.83,1.46,2.43.8,3.63,1.21A23.84,23.84,0,0,1,103.74,24c.2,18.58.24,37.16,0,55.74-.17,13.07-9.21,22.58-22.1,24-11.29,1.22-22.34-6.85-25.09-18.5a29.69,29.69,0,0,1-.6-6.67q-.06-26.56,0-53.12C56,12.23,62.34,4.05,75.15.54c.17,0,.28-.35.42-.54Z"/></g></g></svg>