<svg xmlns="http://www.w3.org/2000/svg" xmlns:xlink="http://www.w3.org/1999/xlink" viewBox="0 0 280 296"><defs><style>.cls-1{isolation:isolate;}.cls-2{fill:#fff2cc;}.cls-3{fill:url(#Áåçûìÿííûé_ãðàäèåíò_2);}.cls-4{fill:#ffbe00;}.cls-5{fill:#d177b8;}.cls-10,.cls-11,.cls-13,.cls-14,.cls-17,.cls-20,.cls-5,.cls-6,.cls-7,.cls-8{mix-blend-mode:multiply;}.cls-10,.cls-11,.cls-13,.cls-14,.cls-5,.cls-6,.cls-7,.cls-8{opacity:0.6;}.cls-6{fill:url(#Áåçûìÿííûé_ãðàäèåíò_123);}.cls-7{fill:url(#Áåçûìÿííûé_ãðàäèåíò_123-2);}.cls-8{fill:url(#Áåçûìÿííûé_ãðàäèåíò_123-3);}.cls-9{fill:url(#Áåçûìÿííûé_ãðàäèåíò_87);}.cls-10{fill:url(#Áåçûìÿííûé_ãðàäèåíò_123-4);}.cls-11{fill:url(#Áåçûìÿííûé_ãðàäèåíò_123-5);}.cls-12{fill:url(#Áåçûìÿííûé_ãðàäèåíò_87-2);}.cls-13{fill:url(#Áåçûìÿííûé_ãðàäèåíò_123-6);}.cls-14{fill:url(#Áåçûìÿííûé_ãðàäèåíò_123-7);}.cls-15{fill:url(#Áåçûìÿííûé_ãðàäèåíò_163);}.cls-16,.cls-21{fill:#1a1a1a;}.cls-16,.cls-19{stroke:#1a1a1a;}.cls-16,.cls-19,.cls-22{stroke-miterlimit:10;}.cls-16{stroke-width:0;}.cls-17{fill:url(#Áåçûìÿííûé_ãðàäèåíò_123-8);}.cls-18{fill:#999;mix-blend-mode:soft-light;}.cls-19{fill:none;stroke-width:3.03px;}.cls-20{fill:#7a369e;opacity:0.5;}.cls-22{stroke:#000;}</style><linearGradient id="Áåçûìÿííûé_ãðàäèåíò_2" x1="140" y1="296" x2="140" y2="219.73" gradientUnits="userSpaceOnUse"><stop offset="0" stop-color="#ffb39d"/><stop offset="0.23" stop-color="#ff9b8e"/><stop offset="0.48" stop-color="#ff8781"/><stop offset="0.74" stop-color="#ff7b7a"/><stop offset="1" stop-color="#f77"/></linearGradient><linearGradient id="Áåçûìÿííûé_ãðàäèåíò_123" x1="162.87" y1="278.18" x2="162.87" y2="229.77" gradientUnits="userSpaceOnUse"><stop offset="0" stop-color="#ffeadb"/><stop offset="0.99" stop-color="#d177f4"/></linearGradient><linearGradient id="Áåçûìÿííûé_ãðàäèåíò_123-2" x1="181.06" y1="290.1" x2="181.06" y2="271.65" xlink:href="#Áåçûìÿííûé_ãðàäèåíò_123"/><linearGradient id="Áåçûìÿííûé_ãðàäèåíò_123-3" x1="91.89" y1="290.1" x2="91.89" y2="270.42" xlink:href="#Áåçûìÿííûé_ãðàäèåíò_123"/><linearGradient id="Áåçûìÿííûé_ãðàäèåíò_87" x1="212.14" y1="188.98" x2="212.14" y2="132.06" gradientUnits="userSpaceOnUse"><stop offset="0" stop-color="#f36b7c"/><stop offset="0.42" stop-color="#fb7379"/><stop offset="1" stop-color="#f77"/></linearGradient><linearGradient id="Áåçûìÿííûé_ãðàäèåíò_123-4" x1="213.26" y1="171.66" x2="213.26" y2="142.14" xlink:href="#Áåçûìÿííûé_ãðàäèåíò_123"/><linearGradient id="Áåçûìÿííûé_ãðàäèåíò_123-5" x1="207.39" y1="170.91" x2="207.39" y2="148.03" xlink:href="#Áåçûìÿííûé_ãðàäèåíò_123"/><linearGradient id="Áåçûìÿííûé_ãðàäèåíò_87-2" x1="2089.63" y1="188.98" x2="2089.63" y2="132.06" gradientTransform="matrix(-1, 0, 0, 1, 2156.57, 0)" xlink:href="#Áåçûìÿííûé_ãðàäèåíò_87"/><linearGradient id="Áåçûìÿííûé_ãðàäèåíò_123-6" x1="2090.75" y1="171.66" x2="2090.75" y2="142.14" gradientTransform="matrix(-1, 0, 0, 1, 2156.57, 0)" xlink:href="#Áåçûìÿííûé_ãðàäèåíò_123"/><linearGradient id="Áåçûìÿííûé_ãðàäèåíò_123-7" x1="2084.87" y1="170.91" x2="2084.87" y2="148.03" gradientTransform="matrix(-1, 0, 0, 1, 2156.57, 0)" xlink:href="#Áåçûìÿííûé_ãðàäèåíò_123"/><linearGradient id="Áåçûìÿííûé_ãðàäèåíò_163" x1="138.4" y1="244.71" x2="138.4" y2="63.06" gradientUnits="userSpaceOnUse"><stop offset="0" stop-color="#d58f9d"/><stop offset="0.28" stop-color="#eb9897"/><stop offset="0.51" stop-color="#f99e94"/><stop offset="0.57" stop-color="#fa9c8f"/><stop offset="0.78" stop-color="#fe9883"/><stop offset="1" stop-color="#ff967f"/></linearGradient><linearGradient id="Áåçûìÿííûé_ãðàäèåíò_123-8" x1="168.67" y1="49.75" x2="168.91" y2="49.75" xlink:href="#Áåçûìÿííûé_ãðàäèåíò_123"/></defs><g class="cls-1"><g id="Layer_2" data-name="Layer 2"><g id="Layer_1-2" data-name="Layer 1"><rect class="cls-2" width="280" height="296"/><path class="cls-3" d="M92.21,219.73s-1.59,43.56-2.7,47.86S31.71,296,31.71,296H248.29S186.67,274.23,185,269.25s-1.7-46.51-1.7-46.51Z"/><path class="cls-4" d="M89.73,266.33s-4.52-.53-5,0,0,4.09,0,4.09L31.71,296H248.29L191.1,271.65s-2-5.41-6.09-2.4l1.42,2s-19.19,20.54-51.17,20.54A52.75,52.75,0,0,1,89.73,266.33Z"/><path class="cls-5" d="M91.5,237.1s10.68,3,13.26,7.61S124,284,137.05,284.56s21.58-17.89,28.22-22.14S184,257.87,184,257.87l-.64-35.13-91.1-3Z"/><path class="cls-6" d="M154.15,243.61l-3.37,34.57s8.13-9.11,12.28-15.76S175,229.77,175,229.77Z"/><path class="cls-7" d="M191.1,271.65s-13.91,12.54-28.23,18.45c0,0,28.43-9.05,36.39-15Z"/><path class="cls-8" d="M84.72,270.42A190.79,190.79,0,0,0,108.6,290.1s-18-4.81-33.43-15.08Z"/><path class="cls-5" d="M98.08,276.84s14.51,13.26,39.65,13.26,40.36-11.92,40.36-11.92a74.66,74.66,0,0,1-42.83,13.64C109.75,291.82,98.08,276.84,98.08,276.84Z"/><path class="cls-9" d="M200.15,145.83s9.06-13.81,15.21-13.77c3.74,0,12.77,7.87,12.67,15.37-.14,10-9,21.44-11.24,27.29s-7.95,13.47-11.76,14.21-8.78-6.48-8.78-6.48S198.1,154.93,200.15,145.83Z"/><path class="cls-10" d="M200.82,160.52s14.88-18.38,20.29-18.38,5.41,10.46,3.23,16.42c-1.51,4.13-4.46,10.1-4.46,10.1s2.33-6.41,2.61-11.21c.43-7.37-1.21-12.74-3.07-12.72-3.42,0-6.12,4.7-6.55,6.36s2.71,8.95,1.88,14-3.88,7-4.89,6.46.55-6.27-.37-8.3-3.6-5-5.17-4.34S200.82,160.52,200.82,160.52Z"/><path class="cls-11" d="M200.82,160.52s3.67-2.19,4.78-1.49,4,3.25,4.07,4.85-.9,6.16,0,7,4.13-4.34,4.28-8.89-2.4-9.77-2.4-10.39.59-3.52.59-3.52S203.49,156.21,200.82,160.52Z"/><path class="cls-12" d="M78.93,145.83S69.87,132,63.73,132.06c-3.75,0-12.77,7.87-12.67,15.37.13,10,9,21.44,11.23,27.29s7.95,13.47,11.77,14.21,8.77-6.48,8.77-6.48S81,154.93,78.93,145.83Z"/><path class="cls-13" d="M78.27,160.52S63.39,142.14,58,142.14s-5.42,10.46-3.23,16.42c1.51,4.13,4.46,10.1,4.46,10.1s-2.34-6.41-2.62-11.21c-.43-7.37,1.21-12.74,3.08-12.72,3.42,0,6.12,4.7,6.55,6.36s-2.71,8.95-1.88,14,3.87,7,4.89,6.46-.55-6.27.37-8.3,3.6-5,5.16-4.34S78.27,160.52,78.27,160.52Z"/><path class="cls-14" d="M78.27,160.52s-3.67-2.19-4.79-1.49-3.94,3.25-4.06,4.85.9,6.16,0,7-4.14-4.34-4.28-8.89,2.4-9.77,2.4-10.39S67,148,67,148,75.59,156.21,78.27,160.52Z"/><path class="cls-15" d="M202.67,151.74c-1,10.81-3.08,20.9-3.58,32.22s-1.43,20.51-3.19,24.72a22.08,22.08,0,0,1-4,5.84h0c-5,5.65-13,11.6-18.43,17.18a50.83,50.83,0,0,1-6.18,5.39l0,0a46.24,46.24,0,0,1-9.29,5.47c-5.16,2.12-18.54,2.12-18.54,2.12s-13.38,0-18.54-2.12a50.3,50.3,0,0,1-15.5-10.88C99,225.12,89,218,84.58,211.5A15.19,15.19,0,0,1,83,208.68c-1.77-4.21-2.71-13.41-3.2-24.72s-2.59-21.41-3.57-32.22-5.2-50.55-2-59.17,44.06-29.51,65.22-29.51c14.85,0,37.94,11.39,51.48,21.16,5.76,4.15,9.79,8,10.74,10.57C204.88,103.41,203.65,140.91,202.67,151.74Z"/><path class="cls-5" d="M191.92,214.53c-5,5.65-13,11.6-18.43,17.18a50.83,50.83,0,0,1-6.18,5.39l0,0a46.24,46.24,0,0,1-9.29,5.47c-5.16,2.12-18.54,2.12-18.54,2.12s-13.38,0-18.54-2.12a50.3,50.3,0,0,1-15.5-10.88C99,225.12,89,218,84.58,211.5c0,0,7.24,6.73,14.91,13.11s20.4,18.5,40,18.5,34.21-14.5,37.26-16.72S191.52,214.84,191.92,214.53Z"/><path class="cls-16" d="M206.66,92.65,212.14,96c-3.52-13.56-22-19.73-25.13-20.67l-.44-.13c-2.7-9.23-9.82-19.22-17.26-25l-.4-.32-.19-.17A26.72,26.72,0,0,0,162.17,46a23.56,23.56,0,0,0-11.35-1.45,30.11,30.11,0,0,0-18.95-1.93,75.81,75.81,0,0,0-22.31,9h0L107.28,53l-.06,0h0c-3,1.84-5.42,3.47-7.35,4.56a.11.11,0,0,0-.06,0h0a9.9,9.9,0,0,1-3.08,1.26c-4.66.71-8.26-10.12-8.26-10.12-4.22,6.75,1,16.74,1,16.74s-10.82,1.82-16.59,10.4-4.92,24.77-4.92,24.77c1.86-5.48,6.46-15.81,6.74-16.44l-.4,1.54-.09.4c-3.44,16.06.51,56.11.51,56.11,1.49-18.4,13.12-36.16,13.12-36.16C92.67,113.58,109,115.85,110,116a16.81,16.81,0,0,1-5.88-3.49l-.06,0c-6.57-6-9.57-16.78-5.14-22.88,5.63-7.75,19-7.18,39-6.47s32.47-3,35.84-1.41,21.24,17.44,23.76,22.5,5.86,35.29,5.86,35.29l2.22-26.58c4.27,6.6,3.45,11.44,3.45,11.44a42.2,42.2,0,0,0,1.29-17.24A60.2,60.2,0,0,0,206.66,92.65Z"/><path class="cls-16" d="M152.84,45.49c9,1,10.52,8.31,10.52,8.31A35.61,35.61,0,0,0,152.84,45.49Z"/><path class="cls-17" d="M168.91,49.84l-.24-.18h.05Z"/><path class="cls-16" d="M205.6,112.88l-2.22,26.58s-3.32-30.23-5.86-35.29-20.37-21-23.76-22.5-15.88,2.11-35.84,1.41-33.33-1.28-39,6.47c-4.43,6.1-1.43,16.92,5.14,22.88-17-12.64-9.48-33.71-9.48-33.71a24.08,24.08,0,0,0-19.18,4.82c19.61-17.38,45.79-3.09,45.79-3.09l2.9.09s-4.91-12.72-14-15.82-20.74.79-20.74.79S102,57,111.49,59.24s17.65,21,17.65,21c1.88.77,6.39.21,6.39.21s-6.3-19.16-15.82-22.78c-8.35-3.16-17.41-.78-19.5-.15a47.93,47.93,0,0,1,20.07-2.24c11.38,1.18,18.7,26,18.7,26h6s.22-19.82-9.35-27.42c-9.19-7.29-27-1.31-28.39-.83l2.27-1.37h0c.67-.24,18-6.36,28.91,1.51,11.09,8,10.73,26.28,10.73,26.28,4.54.15,16.41-1.44,16.41-1.44,2.41-9.41-1.79-22.79-2.21-24.07,4.1,8.77,3.91,23.41,5.24,24s10.73-1.41,10.73-1.41c.71-16.07-7.6-24.25-10.06-26.3,7.44,5.82,14.56,15.81,17.26,25l.44.13s-1.36,6.41,4.4,8.8c5.59,2.32,14.65,8.12,15.21,8.49A105,105,0,0,0,184.73,86l8.93,9.91A41.7,41.7,0,0,1,205.6,112.88Z"/><path class="cls-5" d="M87.78,106.13s-11.63,17.76-13.12,36.16c0,0-4-40-.51-56.11l.09-.4.4-1.54c0,12.4,9.42,19.93,9.42,19.93-4.51-11.8,3.31-17.57,3.7-17.84C83.16,94.22,87.78,106.13,87.78,106.13Z"/><path class="cls-18" d="M134.41,50.92a69.74,69.74,0,0,0,13.07,2.88,39.44,39.44,0,0,0,14.58-1.44l1.34,1.54a74.36,74.36,0,0,1,2,8.17,10.36,10.36,0,0,0-6-3.32c-3.94-.7-13.29,2.46-13.29,2.46S141.88,53.63,134.41,50.92Z"/><path class="cls-18" d="M124,56.49a22.3,22.3,0,0,1,6.5,6.45l8.94-2.36s-2.34-5.57-7.72-7.87Z"/><path class="cls-18" d="M115.51,59.45s4.6,2.72,6.66,5.35l3.84-.75s-1.91-4.76-5.25-5.95A4.62,4.62,0,0,0,115.51,59.45Z"/><path class="cls-18" d="M191.83,82.23s5,2.88,10.14,5.91a10.75,10.75,0,0,0,0-4.22c-.51-1.65-8-4.5-8-4.5Z"/><path class="cls-18" d="M75.44,79.48S85.57,73.7,96.7,73.89c0,0-6.5-2.44-6.17-3.66a40.89,40.89,0,0,1,3-5.43S77.64,66.46,75.44,79.48Z"/><line class="cls-19" x1="105.38" y1="232.72" x2="104.84" y2="234.46"/><polyline class="cls-19" points="168.96 233.7 168.65 232.72 168.59 232.51"/><path class="cls-16" d="M178.24,223.41c-1.63,3.07-10.55,7.36-11.5,7.09s-3.09-6.55-2.25-11.36-1.38-12.38-3.1-12a3.1,3.1,0,0,1-1.27,3.2c-4.29,2.56-11.53-1.53-13.61-1.53-4.24,0-7.93,2.15-9,2.17-2-.18-2.17-1-6.35-1.73-6.46-1.1-12.82,3.21-15.63,2.57a4.33,4.33,0,0,1-3.27-4.07c-.4,1.54-2.91,6.54-2.06,11.35s-3.18,9.54-4.13,9.81-7.31-3.82-9-6.89c-.83.31-7.29-5.82-7.29-5.82s-1.43-1.12-4.15-3.28c2.39,2.58,10.47,15.44,12.19,16.81s17.29,13.64,21.21,15.35c2.46,1.08,4,3.47,2.91,3.95A36.57,36.57,0,0,0,137,251c2.81-.27,11.91-4.34,12.35-1.76,0,0,1.55.51,7.45-3.49C159.5,244,177,230.53,178.7,229.16s7.53-6.85,7.51-8.45a15.9,15.9,0,0,0,4.11-4.47S178.88,222.47,178.24,223.41Zm-23.69,9.16c-1,.87-12.57,5.47-18,5.47s-14.6-3.07-15.63-3.95.24,3-3,0c-5.78-5.27-6.77-15.79-6.49-16.93.4-1.59,3.37-4.83,6.69-3.75s15.39,3.64,20,3.11c10.81-1.22,19.84-.48,24.61-4.58,1.25-1.07-.18,15.29-5.2,22.69C155.39,237.85,155.58,231.69,154.55,232.57Z"/><path class="cls-20" d="M162.39,208.85c-.52.06-2.8,3.27-5.95,2.61s-3.25.56-3.54,1.8.52,1.15,5.07.78c1.41-.11,3.56-2.41,4.25-3C163.18,210.28,163.05,208.77,162.39,208.85Z"/><path class="cls-20" d="M111.55,211.56c-1.11,3-1.49,4.56-.46,3.63s3.22-2.47,5.49-2.32-2.78-1.29-3.1-1.66C112.7,210.31,112.13,210,111.55,211.56Z"/><path class="cls-16" d="M121.19,240.39c-2.73.06-1.37,2.46,1.27,6.05s10.06,4.39,14.07,3.9,11.14-6.69,14.41-2.34c1.31,1.74,5.05-14.35,2.28-13.08s-7.2,8.23-13.3,7.74S124.28,240.31,121.19,240.39Z"/><path class="cls-20" d="M125.79,214.43c10-2.49,7-2.07,10-.53s8.56-1,8.56-1a1.16,1.16,0,0,0-1.09-.93s-.48-.78,2.61,0,4.22,2.06,4.21,2.45-11.84,1.8-13,1.85C134.9,216.33,123.11,215.1,125.79,214.43Z"/><path class="cls-16" d="M99.09,227.43c1,2.26,9.29,8.78,10.39,8.93s-2.27-5.59-4.1-6.8S98.43,225.91,99.09,227.43Z"/><path class="cls-16" d="M167.07,231.36c-4.19.58-6.81,6.27-6.95,7.06s-1.56,4.6-2.24,4.75-.91-2.23-1.2-2.07-1.77,2.68-.8,3.68,2.59-.81,7.51-5.64S176,227.73,175.12,227.8,169.34,231.05,167.07,231.36Z"/><path class="cls-18" d="M122.36,235.63c-1.06,0,2.25,4.57,3.64,4.94s12.31,2.28,15.35,1.72,7.11-4.39,7.6-5.34-8,2-16,1.09C127.76,237.47,124.55,235.63,122.36,235.63Z"/><path class="cls-16" d="M131.48,225.28a57.68,57.68,0,0,0,12.47,0s-2.78,3.33-6.48,3.33S131.48,225.28,131.48,225.28Z"/><rect class="cls-21" x="109.51" y="144.27" width="7.29" height="7.29"/><rect class="cls-21" x="164.23" y="144.27" width="7.29" height="7.29"/><path class="cls-22" d="M203.4,141.78v-1.16c-1.72-.12-11.46-.19-13.16-.36a2.2,2.2,0,0,1-1.49-.58c-3.3-5.05-8.26-7.29-13.9-8.37a29.87,29.87,0,0,0-16.42,1.47c-5.11,1.93-9.15,5.06-11.08,10.41a26.36,26.36,0,0,0-15.36-.08,16.74,16.74,0,0,0-9.4-10.63c-8.68-4.09-17.48-4.5-26.21,0a12.8,12.8,0,0,0-5.57,5.28c-.88,1.62-15-.11-15.14-.22l-.24,1.9c1.13.25,12.69,2.14,14,2.43,0,1.06-.14,2.23-.16,3.39-.09,6.54,1.65,12.43,6.5,17.05,6,5.75,13.35,7.67,21.29,5.48S130,160.09,131.73,152a29.89,29.89,0,0,0,.4-5.77c0-.82.16-1.27,1-1.55a23.46,23.46,0,0,1,11.7-.59c1.87.35,2.28.93,2.09,3a19.39,19.39,0,0,0,4.46,14.36c6,7.38,13.87,10,23.18,7.87a20.63,20.63,0,0,0,15.67-16.76,51.11,51.11,0,0,0,.17-7.23c0-.58,0-1.17,0-1.94C192.31,143.23,203.4,141.78,203.4,141.78Zm-83.94,23.46c-7,3.25-13.85,2.6-20.24-1.92-7.13-5-8.82-12.24-8.32-20.41.32-5.28,3.38-8.43,7.95-10.22,9.25-3.63,18.08-2.44,26.22,3.11,4.55,3.1,5.9,6.71,5.45,14.83A18.49,18.49,0,0,1,119.46,165.24Zm53.07,3.31c-12,2.39-23.72-6.93-24.32-19.17-.29-5.73,2-9.88,6.68-13s9.53-4.31,16.58-4.2A25.28,25.28,0,0,1,184,136.39c3.8,2.54,4.82,6.24,5.12,10.42A20.38,20.38,0,0,1,172.53,168.55Z"/></g></g></g></svg>