<svg width="24" height="24" viewBox="0 0 24 24" fill="none" xmlns="http://www.w3.org/2000/svg">
<path opacity="0.4" d="M12 22C17.5228 22 22 17.5228 22 12C22 6.47715 17.5228 2 12 2C6.47715 2 2 6.47715 2 12C2 17.5228 6.47715 22 12 22Z" fill="#475569"/>
<path d="M9.46847 8.04245L16.0145 11.8612C16.0614 11.8887 16.1003 11.9279 16.1274 11.9751C16.1544 12.0222 16.1686 12.0756 16.1686 12.13C16.1686 12.1844 16.1544 12.2378 16.1274 12.2849C16.1003 12.3321 16.0614 12.3713 16.0145 12.3988L9.46847 16.2175C9.42104 16.2452 9.36714 16.2599 9.31223 16.26C9.25732 16.2601 9.20334 16.2457 9.15578 16.2183C9.10822 16.1908 9.06877 16.1513 9.04141 16.1037C9.01405 16.0561 8.99977 16.0021 9 15.9472V8.31157C8.99999 8.25677 9.01443 8.20293 9.04188 8.15549C9.06933 8.10805 9.1088 8.06869 9.15633 8.04139C9.20385 8.01409 9.25773 7.99982 9.31254 8C9.36735 8.00019 9.42113 8.01483 9.46847 8.04245Z" fill="#475569"/>
</svg>
