<svg xmlns="http://www.w3.org/2000/svg" xmlns:xlink="http://www.w3.org/1999/xlink" viewBox="0 0 280 296"><defs><style>.cls-1{isolation:isolate;}.cls-2{fill:#ccf1dd;}.cls-3{fill:url(#Áåçûìÿííûé_ãðàäèåíò_526);}.cls-4{fill:#02b954;}.cls-5{fill:#d0478c;}.cls-11,.cls-12,.cls-14,.cls-15,.cls-18,.cls-5,.cls-6,.cls-7,.cls-8,.cls-9{mix-blend-mode:multiply;}.cls-11,.cls-12,.cls-14,.cls-15,.cls-6,.cls-7,.cls-8{opacity:0.85;}.cls-6{fill:url(#Áåçûìÿííûé_ãðàäèåíò_393);}.cls-7{fill:url(#Áåçûìÿííûé_ãðàäèåíò_393-2);}.cls-8{fill:url(#Áåçûìÿííûé_ãðàäèåíò_393-3);}.cls-9{fill:#d177b8;opacity:0.6;}.cls-10{fill:url(#Áåçûìÿííûé_ãðàäèåíò_76);}.cls-11{fill:url(#Áåçûìÿííûé_ãðàäèåíò_393-4);}.cls-12{fill:url(#Áåçûìÿííûé_ãðàäèåíò_393-5);}.cls-13{fill:url(#Áåçûìÿííûé_ãðàäèåíò_76-2);}.cls-14{fill:url(#Áåçûìÿííûé_ãðàäèåíò_393-6);}.cls-15{fill:url(#Áåçûìÿííûé_ãðàäèåíò_393-7);}.cls-16{fill:url(#Áåçûìÿííûé_ãðàäèåíò_99);}.cls-17{fill:#1a1a1a;stroke:#1a1a1a;stroke-width:0;}.cls-17,.cls-19{stroke-miterlimit:10;}.cls-18{fill:#7a369e;opacity:0.5;}.cls-19{stroke:#000;}</style><linearGradient id="Áåçûìÿííûé_ãðàäèåíò_526" x1="139.08" y1="296" x2="139.08" y2="215.51" gradientUnits="userSpaceOnUse"><stop offset="0" stop-color="#c34433"/><stop offset="0.08" stop-color="#b73b31"/><stop offset="0.31" stop-color="#9b272c"/><stop offset="0.54" stop-color="#871828"/><stop offset="0.77" stop-color="#7b0f26"/><stop offset="1" stop-color="#770c25"/></linearGradient><linearGradient id="Áåçûìÿííûé_ãðàäèåíò_393" x1="163.21" y1="277.19" x2="163.21" y2="226.1" gradientUnits="userSpaceOnUse"><stop offset="0" stop-color="#ffe9da"/><stop offset="0.99" stop-color="#b44cf3"/></linearGradient><linearGradient id="Áåçûìÿííûé_ãðàäèåíò_393-2" x1="182.41" y1="289.77" x2="182.41" y2="270.3" xlink:href="#Áåçûìÿííûé_ãðàäèåíò_393"/><linearGradient id="Áåçûìÿííûé_ãðàäèåíò_393-3" x1="88.3" y1="289.77" x2="88.3" y2="269" xlink:href="#Áåçûìÿííûé_ãðàäèåíò_393"/><linearGradient id="Áåçûìÿííûé_ãðàäèåíò_76" x1="215.21" y1="183.06" x2="215.21" y2="122.98" gradientUnits="userSpaceOnUse"><stop offset="0" stop-color="#c3313b"/><stop offset="0.08" stop-color="#b72b38"/><stop offset="0.31" stop-color="#9b1e2f"/><stop offset="0.54" stop-color="#87142a"/><stop offset="0.77" stop-color="#7b0e26"/><stop offset="1" stop-color="#770c25"/></linearGradient><linearGradient id="Áåçûìÿííûé_ãðàäèåíò_393-4" x1="216.4" y1="164.77" x2="216.4" y2="133.62" xlink:href="#Áåçûìÿííûé_ãðàäèåíò_393"/><linearGradient id="Áåçûìÿííûé_ãðàäèåíò_393-5" x1="210.19" y1="163.98" x2="210.19" y2="139.83" xlink:href="#Áåçûìÿííûé_ãðàäèåíò_393"/><linearGradient id="Áåçûìÿííûé_ãðàäèåíò_76-2" x1="2694.21" y1="183.06" x2="2694.21" y2="122.98" gradientTransform="matrix(-1, 0, 0, 1, 2756.18, 0)" xlink:href="#Áåçûìÿííûé_ãðàäèåíò_76"/><linearGradient id="Áåçûìÿííûé_ãðàäèåíò_393-6" x1="2695.39" y1="164.77" x2="2695.39" y2="133.62" gradientTransform="matrix(-1, 0, 0, 1, 2756.18, 0)" xlink:href="#Áåçûìÿííûé_ãðàäèåíò_393"/><linearGradient id="Áåçûìÿííûé_ãðàäèåíò_393-7" x1="2689.19" y1="163.98" x2="2689.19" y2="139.83" gradientTransform="matrix(-1, 0, 0, 1, 2756.18, 0)" xlink:href="#Áåçûìÿííûé_ãðàäèåíò_393"/><linearGradient id="Áåçûìÿííûé_ãðàäèåíò_99" x1="137.38" y1="241.87" x2="137.38" y2="50.15" gradientUnits="userSpaceOnUse"><stop offset="0" stop-color="#dc4a44"/><stop offset="1" stop-color="#770020"/></linearGradient></defs><g class="cls-1"><g id="Layer_2" data-name="Layer 2"><g id="Layer_1-2" data-name="Layer 1"><rect class="cls-2" width="280" height="296"/><path class="cls-3" d="M88.64,215.51S87,261.47,85.79,266s-61,30-61,30H253.37s-65-23-66.79-28.23-1.79-49.09-1.79-49.09Z"/><path class="cls-4" d="M86,264.68s-4.77-.55-5.29,0,0,4.32,0,4.32L24.79,296H253.37L193,270.3s-2.08-5.71-6.43-2.53l1.5,2.14s-20.25,21.68-54,21.68A55.67,55.67,0,0,1,86,264.68Z"/><path class="cls-5" d="M87.89,233.83s11.27,3.17,14,8,20.25,41.47,34.07,42.06,22.78-18.89,29.79-23.37,19.71-4.81,19.71-4.81l-.67-37.07-96.15-3.17Z"/><path class="cls-6" d="M154,240.71l-3.56,36.48s8.58-9.62,13-16.63S176,226.1,176,226.1Z"/><path class="cls-7" d="M193,270.3s-14.68,13.24-29.8,19.47c0,0,30-9.54,38.41-15.8Z"/><path class="cls-8" d="M80.73,269a200.57,200.57,0,0,0,25.21,20.77s-19-5.08-35.28-15.91Z"/><path class="cls-9" d="M94.83,275.78s15.31,14,41.85,14,42.6-12.58,42.6-12.58a78.78,78.78,0,0,1-45.2,14.4C107.15,291.59,94.83,275.78,94.83,275.78Z"/><path class="cls-10" d="M202.56,137.51s9.56-14.57,16.05-14.53c3.95,0,13.48,8.3,13.37,16.22-.14,10.59-9.52,22.63-11.86,28.8s-8.39,14.22-12.41,15-9.27-6.84-9.27-6.84S200.4,147.12,202.56,137.51Z"/><path class="cls-11" d="M203.26,153s15.71-19.4,21.42-19.4,5.71,11,3.41,17.33c-1.6,4.36-4.71,10.66-4.71,10.66s2.46-6.77,2.76-11.83c.45-7.79-1.28-13.45-3.25-13.43-3.61,0-6.46,5-6.91,6.71s2.86,9.45,2,14.8-4.09,7.4-5.16,6.81.59-6.62-.39-8.76-3.79-5.25-5.45-4.57S203.26,153,203.26,153Z"/><path class="cls-12" d="M203.26,153s3.88-2.32,5.05-1.58,4.17,3.43,4.29,5.12-.94,6.5,0,7.34,4.37-4.59,4.52-9.38-2.53-10.32-2.53-11,.62-3.72.62-3.72S206.09,148.46,203.26,153Z"/><path class="cls-13" d="M74.63,137.51s-9.56-14.57-16-14.53c-3.95,0-13.48,8.3-13.37,16.22.14,10.59,9.52,22.63,11.86,28.8s8.39,14.22,12.41,15,9.26-6.84,9.26-6.84S76.79,147.12,74.63,137.51Z"/><path class="cls-14" d="M73.92,153s-15.7-19.4-21.41-19.4-5.71,11-3.41,17.33c1.6,4.36,4.71,10.66,4.71,10.66s-2.47-6.77-2.76-11.83c-.46-7.79,1.27-13.45,3.24-13.43,3.62,0,6.46,5,6.92,6.71s-2.86,9.45-2,14.8,4.08,7.4,5.16,6.81-.59-6.62.38-8.76,3.8-5.25,5.46-4.57S73.92,153,73.92,153Z"/><path class="cls-15" d="M73.92,153s-3.87-2.32-5-1.58-4.16,3.43-4.29,5.12,1,6.5,0,7.34-4.36-4.59-4.51-9.38,2.53-10.32,2.53-11-.62-3.72-.62-3.72S71.1,148.46,73.92,153Z"/><path class="cls-16" d="M205.21,143.75c-1,11.41-3.24,22.06-3.77,34s-1.51,21.65-3.37,26.09a23.07,23.07,0,0,1-4.19,6.16h0c-5.3,6-13.74,12.25-19.45,18.14a53.74,53.74,0,0,1-6.52,5.68l0,0a48.55,48.55,0,0,1-9.81,5.78c-5.45,2.24-19.57,2.24-19.57,2.24s-14.12,0-19.56-2.24a53.13,53.13,0,0,1-16.36-11.48c-6.75-7-17.27-14.45-22-21.33a17,17,0,0,1-1.68-3c-1.86-4.44-2.85-14.15-3.37-26.09s-2.73-22.59-3.77-34S66.29,90.4,69.66,81.31s46.5-31.16,68.83-31.16c15.67,0,40,12,54.34,22.34,6.08,4.38,10.33,8.45,11.34,11.15C207.55,92.74,206.25,132.32,205.21,143.75Z"/><path class="cls-5" d="M193.87,210c-5.3,6-13.74,12.25-19.45,18.14a53.74,53.74,0,0,1-6.52,5.68l0,0a48.55,48.55,0,0,1-9.81,5.78c-5.45,2.24-19.57,2.24-19.57,2.24s-14.12,0-19.56-2.24a53.13,53.13,0,0,1-16.36-11.48c-6.75-7-17.27-14.45-22-21.33,0,0,7.63,7.1,15.73,13.83s21.53,19.53,42.17,19.53,36.11-15.31,39.33-17.65S193.45,210.34,193.87,210Z"/><rect x="108.29" y="127.12" width="7.24" height="7.24"/><rect x="162.63" y="127.12" width="7.24" height="7.24"/><path class="cls-17" d="M70.7,132.48s8.82-12.1,8.08-24.25-1.93-22.29,1.11-26.88,26.77-2.67,60.35-2.67,50.39-2.5,53.95-.28,2.71,23.39,2.49,32.94,9.17,22.56,9.17,22.56,2-43.74-2.12-51.81S167.22,47.8,137.62,47.8,73.53,71.92,69.67,81.41,70.7,132.48,70.7,132.48Z"/><path class="cls-18" d="M76.92,72.88s24.22,5.8,63.32,5.8,55-5.8,55-5.8S169.59,47.8,137.62,47.8,76.92,72.88,76.92,72.88Z"/><path class="cls-17" d="M201.8,172.19S167.86,230.92,165.63,231c-2.71.12-9.73-7.28-12.36-5.56s-7.51,7.09-14.05,7.32h-.44c-6.54-.23-11.48-5.64-14-7.32s-9.65,5.68-12.35,5.56c-2.4-.11-37.2-58.83-37.2-58.83.49,22.1,5,43.92,6.42,46.85,1.2,2.47,5.72,7.22,11.91,12.48,2.32,2,4.87,4,7.58,6s5.56,4,8.48,5.91a101.85,101.85,0,0,0,15.28,8.3c5,2.11,9.72,3.4,13.76,3.4,13,0,33.31-13.46,45.93-24.34h0c2.88-2.48,5.37-4.84,7.28-6.86a23.5,23.5,0,0,0,3.8-4.91C197,216.12,202.09,188,201.8,172.19Z"/><path class="cls-19" d="M205.75,123.63v-1.27c-1.79-.09-13.05.32-14.82.19a2.33,2.33,0,0,1-1.56-.57c-3.55-5.15-8.75-7.34-14.62-8.31a31,31,0,0,0-17,1.94c-5.24,2.14-9.35,5.48-11.21,11.08a27.45,27.45,0,0,0-15.93.31,17.31,17.31,0,0,0-10-10.76c-9.1-4-18.22-4.22-27.16.63a13.3,13.3,0,0,0-5.64,5.62c-.86,1.7-17.57.53-17.57.53l.21,1.79c1.18.23,14.67,1.71,16,2,0,1.11-.09,2.32-.08,3.53.08,6.77,2,12.84,7.19,17.5,6.41,5.8,14,7.6,22.2,5.12s13.17-8.27,14.8-16.72a30.69,30.69,0,0,0,.27-6c0-.84.13-1.31,1-1.62a24.17,24.17,0,0,1,12.1-.92c1.95.31,2.39.9,2.25,3a20.07,20.07,0,0,0,5,14.76c6.42,7.49,14.64,10,24.24,7.56a21.4,21.4,0,0,0,15.8-17.78,53.5,53.5,0,0,0,0-7.49c0-.61,0-1.22-.09-2C193.15,125.57,205.75,123.63,205.75,123.63Zm-87.52,26.64c-7.22,3.55-14.3,3.06-21-1.46-7.52-5.05-9.46-12.46-9.16-20.94.2-5.48,3.29-8.83,8-10.8,9.49-4,18.67-3,27.25,2.54,4.8,3.09,6.29,6.8,6,15.23A19.14,19.14,0,0,1,118.23,150.27Zm55.08,2.06c-12.4,2.78-24.77-6.58-25.7-19.24-.45-5.93,1.85-10.3,6.58-13.62s9.77-4.72,17.08-4.78a26.17,26.17,0,0,1,13.13,4c4,2.53,5.15,6.35,5.57,10.67A21.14,21.14,0,0,1,173.31,152.33Z"/></g></g></g></svg>