<svg xmlns="http://www.w3.org/2000/svg" viewBox="0 0 156.93 50"><defs><style>.cls-1{fill:#055df5;}.cls-2{fill:#0a0a0a;}</style></defs><g id="Layer_2" data-name="Layer 2"><g id="Layer_1-2" data-name="Layer 1"><polygon class="cls-1" points="20.09 30 30.14 30 30.14 40 40.18 40 40.18 50 10.04 50 10.04 40 20.09 40 20.09 30"/><polygon class="cls-1" points="50.23 10 50.23 20 40.18 20 40.18 30 30.14 30 30.14 20 20.09 20 20.09 30 10.04 30 10.04 20 0 20 0 10 10.04 10 10.04 0 40.18 0 40.18 10 50.23 10"/><path class="cls-2" d="M152.31,14.25h-.47V11.66h-1v-.41h2.46v.41h-1Z"/><path class="cls-2" d="M155.12,14.25l-1-2.29v2.29h-.43v-3h.58l1,2.44,1-2.44h.58v3h-.43V12l-1,2.3Z"/><polygon class="cls-2" points="64.87 11.25 62.17 13.61 62.17 36.39 64.87 38.75 82.7 38.75 85.4 36.39 85.4 27.1 79.96 27.1 79.96 33.58 67.61 33.58 67.61 16.46 79.96 16.46 79.96 23.07 85.4 23.07 85.4 13.61 82.7 11.25 64.87 11.25"/><polygon class="cls-2" points="107.19 15.17 101 22.36 100.98 22.35 94.84 15.12 94.84 11.25 89.4 11.25 89.4 15.87 96.34 25.02 89.4 34.18 89.4 38.75 94.84 38.75 94.84 34.84 101.03 27.52 100.96 27.53 107.19 34.83 107.19 38.75 112.63 38.75 112.63 34.18 105.65 25.04 112.63 15.86 112.63 11.25 107.19 11.25 107.19 15.17"/><polygon class="cls-2" points="116.56 11.25 116.56 38.75 122 38.75 122 13.15 120.47 11.25 116.56 11.25"/><path class="cls-2" d="M144.4,11.25H126v27.5h18.36L149,34.28V15.77Zm-13,22.33V16.42h10.46l1.72,1.72V31.86l-1.72,1.72Z"/></g></g></svg>