<svg xmlns="http://www.w3.org/2000/svg" xmlns:xlink="http://www.w3.org/1999/xlink" viewBox="0 0 280 296"><defs><style>.cls-1{isolation:isolate;}.cls-2{fill:#fcccdb;}.cls-3{fill:url(#Áåçûìÿííûé_ãðàäèåíò_526);}.cls-4{fill:#790025;}.cls-5{fill:#d0478c;}.cls-11,.cls-12,.cls-14,.cls-15,.cls-5,.cls-6,.cls-7,.cls-8,.cls-9{mix-blend-mode:multiply;}.cls-11,.cls-12,.cls-14,.cls-15,.cls-6,.cls-7,.cls-8{opacity:0.85;}.cls-6{fill:url(#Áåçûìÿííûé_ãðàäèåíò_393);}.cls-7{fill:url(#Áåçûìÿííûé_ãðàäèåíò_393-2);}.cls-8{fill:url(#Áåçûìÿííûé_ãðàäèåíò_393-3);}.cls-9{fill:#d177b8;opacity:0.6;}.cls-10{fill:url(#Áåçûìÿííûé_ãðàäèåíò_76);}.cls-11{fill:url(#Áåçûìÿííûé_ãðàäèåíò_393-4);}.cls-12{fill:url(#Áåçûìÿííûé_ãðàäèåíò_393-5);}.cls-13{fill:url(#Áåçûìÿííûé_ãðàäèåíò_76-2);}.cls-14{fill:url(#Áåçûìÿííûé_ãðàäèåíò_393-6);}.cls-15{fill:url(#Áåçûìÿííûé_ãðàäèåíò_393-7);}.cls-16{fill:url(#Áåçûìÿííûé_ãðàäèåíò_99);}.cls-17{fill:#1a1a1a;stroke:#1a1a1a;stroke-width:0;}.cls-17,.cls-18{stroke-miterlimit:10;}.cls-18{stroke:#000;}</style><linearGradient id="Áåçûìÿííûé_ãðàäèåíò_526" x1="143.04" y1="296" x2="143.04" y2="216.33" gradientUnits="userSpaceOnUse"><stop offset="0" stop-color="#c34433"/><stop offset="0.08" stop-color="#b73b31"/><stop offset="0.31" stop-color="#9b272c"/><stop offset="0.54" stop-color="#871828"/><stop offset="0.77" stop-color="#7b0f26"/><stop offset="1" stop-color="#770c25"/></linearGradient><linearGradient id="Áåçûìÿííûé_ãðàäèåíò_393" x1="166.93" y1="277.39" x2="166.93" y2="226.82" gradientUnits="userSpaceOnUse"><stop offset="0" stop-color="#ffe9da"/><stop offset="0.99" stop-color="#b44cf3"/></linearGradient><linearGradient id="Áåçûìÿííûé_ãðàäèåíò_393-2" x1="185.94" y1="289.83" x2="185.94" y2="270.56" xlink:href="#Áåçûìÿííûé_ãðàäèåíò_393"/><linearGradient id="Áåçûìÿííûé_ãðàäèåíò_393-3" x1="92.78" y1="289.83" x2="92.78" y2="269.28" xlink:href="#Áåçûìÿííûé_ãðàäèåíò_393"/><linearGradient id="Áåçûìÿííûé_ãðàäèåíò_76" x1="218.4" y1="184.21" x2="218.4" y2="124.74" gradientUnits="userSpaceOnUse"><stop offset="0" stop-color="#c3313b"/><stop offset="0.08" stop-color="#b72b38"/><stop offset="0.31" stop-color="#9b1e2f"/><stop offset="0.54" stop-color="#87142a"/><stop offset="0.77" stop-color="#7b0e26"/><stop offset="1" stop-color="#770c25"/></linearGradient><linearGradient id="Áåçûìÿííûé_ãðàäèåíò_393-4" x1="219.57" y1="166.11" x2="219.57" y2="135.28" xlink:href="#Áåçûìÿííûé_ãðàäèåíò_393"/><linearGradient id="Áåçûìÿííûé_ãðàäèåíò_393-5" x1="213.43" y1="165.33" x2="213.43" y2="141.42" xlink:href="#Áåçûìÿííûé_ãðàäèåíò_393"/><linearGradient id="Áåçûìÿííûé_ãðàäèåíò_76-2" x1="734.55" y1="184.21" x2="734.55" y2="124.74" gradientTransform="matrix(-1, 0, 0, 1, 801.27, 0)" xlink:href="#Áåçûìÿííûé_ãðàäèåíò_76"/><linearGradient id="Áåçûìÿííûé_ãðàäèåíò_393-6" x1="735.72" y1="166.11" x2="735.72" y2="135.28" gradientTransform="matrix(-1, 0, 0, 1, 801.27, 0)" xlink:href="#Áåçûìÿííûé_ãðàäèåíò_393"/><linearGradient id="Áåçûìÿííûé_ãðàäèåíò_393-7" x1="729.58" y1="165.33" x2="729.58" y2="141.42" gradientTransform="matrix(-1, 0, 0, 1, 801.27, 0)" xlink:href="#Áåçûìÿííûé_ãðàäèåíò_393"/><linearGradient id="Áåçûìÿííûé_ãðàäèåíò_99" x1="142.46" y1="242.42" x2="142.46" y2="52.66" gradientUnits="userSpaceOnUse"><stop offset="0" stop-color="#dc4a44"/><stop offset="1" stop-color="#770020"/></linearGradient></defs><g class="cls-1"><g id="Layer_2" data-name="Layer 2"><g id="Layer_1-2" data-name="Layer 1"><rect class="cls-2" width="280" height="296"/><path class="cls-3" d="M93.12,216.33s-1.66,45.5-2.82,50S29.92,296,29.92,296H256.16s-64.36-22.74-66.1-27.94-1.78-48.59-1.78-48.59Z"/><path class="cls-4" d="M90.53,265s-4.73-.55-5.24,0,0,4.28,0,4.28L29.92,296H256.16l-59.74-25.44s-2-5.65-6.36-2.5l1.48,2.12s-20,21.45-53.45,21.45A55.09,55.09,0,0,1,90.53,265Z"/><path class="cls-5" d="M92.38,234.47s11.15,3.13,13.85,7.95,20,41.05,33.73,41.63,22.54-18.69,29.48-23.12S189,256.17,189,256.17l-.67-36.7-95.16-3.14Z"/><path class="cls-6" d="M157.82,241.27l-3.52,36.12s8.49-9.53,12.83-16.46,12.43-34.11,12.43-34.11Z"/><path class="cls-7" d="M196.42,270.56s-14.53,13.11-29.49,19.27c0,0,29.7-9.44,38-15.64Z"/><path class="cls-8" d="M85.29,269.28a199.16,199.16,0,0,0,24.95,20.55s-18.81-5-34.92-15.74Z"/><path class="cls-9" d="M99.25,276s15.15,13.84,41.42,13.84,42.16-12.44,42.16-12.44a78,78,0,0,1-44.74,14.24C111.43,291.63,99.25,276,99.25,276Z"/><path class="cls-10" d="M205.88,139.13s9.46-14.42,15.88-14.39c3.91,0,13.34,8.22,13.24,16.06-.15,10.49-9.43,22.4-11.74,28.51S215,183.38,211,184.15s-9.17-6.76-9.17-6.76S203.74,148.64,205.88,139.13Z"/><path class="cls-11" d="M206.57,154.48s15.55-19.2,21.2-19.2,5.65,10.92,3.37,17.15c-1.58,4.31-4.66,10.55-4.66,10.55s2.44-6.7,2.73-11.71C229.66,143.56,228,138,226,138c-3.57,0-6.39,4.91-6.84,6.64s2.83,9.35,2,14.65-4.05,7.32-5.11,6.74.58-6.55-.38-8.67-3.76-5.2-5.4-4.53S206.57,154.48,206.57,154.48Z"/><path class="cls-12" d="M206.57,154.48s3.83-2.29,5-1.56,4.12,3.39,4.25,5.06-.94,6.44,0,7.26,4.31-4.53,4.47-9.28-2.51-10.21-2.51-10.85.62-3.69.62-3.69S209.37,150,206.57,154.48Z"/><path class="cls-13" d="M79.25,139.13s-9.46-14.42-15.89-14.39c-3.91,0-13.34,8.22-13.23,16.06.14,10.49,9.42,22.4,11.74,28.51s8.3,14.07,12.28,14.84,9.17-6.76,9.17-6.76S81.39,148.64,79.25,139.13Z"/><path class="cls-14" d="M78.55,154.48S63,135.28,57.36,135.28,51.7,146.2,54,152.43c1.58,4.31,4.66,10.55,4.66,10.55s-2.44-6.7-2.73-11.71c-.45-7.71,1.26-13.31,3.21-13.29,3.58,0,6.4,4.91,6.84,6.64s-2.82,9.35-2,14.65,4,7.32,5.11,6.74-.58-6.55.39-8.67,3.75-5.2,5.39-4.53S78.55,154.48,78.55,154.48Z"/><path class="cls-15" d="M78.55,154.48s-3.83-2.29-5-1.56-4.12,3.39-4.24,5.06.94,6.44,0,7.26S65,160.71,64.84,156s2.5-10.21,2.5-10.85-.61-3.69-.61-3.69S75.76,150,78.55,154.48Z"/><path class="cls-16" d="M208.5,145.3c-1,11.3-3.21,21.84-3.73,33.66s-1.5,21.43-3.34,25.82a22.63,22.63,0,0,1-4.15,6.1h0C192,216.8,183.68,223,178,228.84a53.6,53.6,0,0,1-6.45,5.63l0,0a49,49,0,0,1-9.71,5.72c-5.39,2.21-19.37,2.21-19.37,2.21s-14,0-19.36-2.21a52.51,52.51,0,0,1-16.2-11.37c-6.68-6.88-17.09-14.3-21.75-21.11a16.68,16.68,0,0,1-1.66-2.95c-1.84-4.39-2.83-14-3.33-25.82s-2.71-22.36-3.74-33.66-2.31-50.49,1-59.49,42.91-33.15,65-33.15c15.51,0,39.64,11.9,53.79,22.11,6,4.34,10.22,8.36,11.22,11C210.81,94.81,209.53,134,208.5,145.3Z"/><path class="cls-5" d="M197.27,210.89C192,216.8,183.68,223,178,228.84a53.6,53.6,0,0,1-6.45,5.63l0,0a49,49,0,0,1-9.71,5.72c-5.39,2.21-19.37,2.21-19.37,2.21s-14,0-19.36-2.21a52.51,52.51,0,0,1-16.2-11.37c-6.68-6.88-17.09-14.3-21.75-21.11,0,0,7.56,7,15.57,13.69s21.31,19.33,41.74,19.33,35.74-15.15,38.93-17.47S196.86,211.22,197.27,210.89Z"/><path class="cls-17" d="M136.56,48.23s-.08,18.4,1.07,20.28,3.58,3,5.12,2.6,2.61-1.26,3.76-3.38,1-19.61,1-19.61-1.31-4.26-5.46-4.25C138.79,43.88,136.56,48.23,136.56,48.23Z"/><path class="cls-17" d="M152.46,50.45S149,67.21,149.69,69.13s2.58,3.35,4,3.26,2.5-.69,3.89-2.42S162,52.26,162,52.26s-.37-4.11-4-4.82C155.2,46.88,152.46,50.45,152.46,50.45Z"/><path class="cls-17" d="M165.47,55.54c0,4-2.44,14.16-5,18.2-1.1,1.7,1.92,5.16,7.72,1.79,3.09-1.8,10.09-19.79,3.21-22.3C168.66,52.24,165.47,55.54,165.47,55.54Z"/><path class="cls-17" d="M178.14,61.59c-.69,4-4.79,13.55-8,17.09-1.38,1.5,1,5.42,7.3,3.07,3.36-1.26,13.27-17.81,6.92-21.45C181.83,58.87,178.14,61.59,178.14,61.59Z"/><path class="cls-17" d="M190.63,66c-.73,3.49-4.82,11.66-8,14.46-1.35,1.18.91,5,7,3.67,3.26-.72,13.08-14.46,7-18.53C194.24,64,190.63,66,190.63,66Z"/><path class="cls-17" d="M201.57,78.45C200,81.65,199,85.07,195.22,87c-1.6.81-.38,5.09,5.87,5.31,3.33.12,11.26-7.25,6.39-12.72C205.57,77.42,201.57,78.45,201.57,78.45Z"/><path class="cls-17" d="M208.63,92.3c-2.15,1.79-3.94,3.92-7.25,4.09-1.4.07-1.88,3.52,2.52,5.66,2.35,1.14,10.36-1.63,8.6-7.08C211.81,92.82,208.63,92.3,208.63,92.3Z"/><path class="cls-17" d="M210.26,106.54c-2.25,1.22-4.25,2.81-7.26,2.36-1.27-.19-2.33,2.82,1.23,5.54,1.9,1.46,9.61.43,9-4.79C213,107.59,210.26,106.54,210.26,106.54Z"/><path class="cls-17" d="M209.57,117c-2.36,1-2.44,1.72-5.39,1-1.25-.3-2.59,2.6.72,5.64,1.76,1.62,7.47,2,7.37-3.26C212.23,118.33,209.57,117,209.57,117Z"/><path class="cls-17" d="M131.31,50.45s3.44,16.76,2.78,18.68-2.58,3.35-4,3.26-2.5-.69-3.89-2.42-4.45-17.71-4.45-17.71.38-4.11,4-4.82C128.58,46.88,131.31,50.45,131.31,50.45Z"/><path class="cls-17" d="M118.31,55.54c0,4,2.43,14.16,5,18.2,1.1,1.7-1.92,5.16-7.72,1.79-3.09-1.8-10.09-19.79-3.21-22.3C115.12,52.24,118.31,55.54,118.31,55.54Z"/><path class="cls-17" d="M105.64,61.59c.69,4,4.78,13.55,8,17.09,1.37,1.5-1,5.42-7.31,3.07C103,80.49,93.09,63.94,99.45,60.3,101.94,58.87,105.64,61.59,105.64,61.59Z"/><path class="cls-17" d="M95.78,69.32c.73,3.5,4.82,11.66,8,14.46,1.34,1.19-.91,5-7,3.67-3.25-.72-13.07-14.46-7-18.53C92.17,67.32,95.78,69.32,95.78,69.32Z"/><path class="cls-17" d="M82.75,78.45c1.58,3.2,2.57,6.62,6.35,8.53,1.6.81.38,5.09-5.86,5.31C79.9,92.41,72,85,76.84,79.57,78.75,77.42,82.75,78.45,82.75,78.45Z"/><path class="cls-17" d="M76.4,93.83c2.14,1.79,3.93,3.92,7.25,4.09,1.4.07,1.88,3.53-2.52,5.66-2.35,1.15-10.36-1.62-8.61-7.08C73.21,94.36,76.4,93.83,76.4,93.83Z"/><path class="cls-17" d="M75.3,106.54c2.25,1.22,4.25,2.81,7.26,2.36,1.27-.19,2.34,2.82-1.23,5.54-1.9,1.46-9.61.43-9-4.79C72.53,107.59,75.3,106.54,75.3,106.54Z"/><path class="cls-17" d="M75.22,117c2.36,1,2.43,1.72,5.39,1,1.25-.3,2.58,2.6-.72,5.64-1.76,1.62-7.47,2-7.37-3.26C72.56,118.33,75.22,117,75.22,117Z"/><rect x="109.51" y="137.02" width="7.55" height="7.55"/><rect x="168.19" y="137.02" width="7.55" height="7.55"/><path class="cls-18" d="M208.8,133.24c-1.18-.09-6-.15-9.59-.23a22.39,22.39,0,0,0-20.48-13.48h-6.79a22.39,22.39,0,0,0-21.48,16.3,27.51,27.51,0,0,0-15.7,0,16.74,16.74,0,0,0-2.89-5.66,22.35,22.35,0,0,0-19-10.62H106.1a22.37,22.37,0,0,0-19.44,11.4A96.07,96.07,0,0,1,76.37,130l-.25,2c.71.16,5.4.94,9.27,1.59a22.13,22.13,0,0,0-1.62,8.31A22.4,22.4,0,0,0,106.1,164.2h6.79A22.32,22.32,0,0,0,135,138.48v0a1.23,1.23,0,0,1,1-1,24.21,24.21,0,0,1,12.12-.62c1,.19,1.62.45,1.93.95a21.45,21.45,0,0,0-.39,4.11,22.4,22.4,0,0,0,22.33,22.33h6.79a22.4,22.4,0,0,0,22.33-22.33,21.73,21.73,0,0,0-.93-6.33c3.93-.48,8.67-1.1,8.67-1.1Zm-80.57,20.95a17.9,17.9,0,0,1-1.58,1.79,19.93,19.93,0,0,1-14.12,5.87h-6.07a20,20,0,0,1-20-20A19.79,19.79,0,0,1,88.09,134a19.57,19.57,0,0,1,1.68-3.13,20.36,20.36,0,0,1,2.57-3.14,19.9,19.9,0,0,1,13.85-5.86h6.34a20,20,0,0,1,15.7,32.31ZM192.49,156a20.09,20.09,0,0,1-8.39,5,19.71,19.71,0,0,1-5.73.84H172.3a20,20,0,0,1-20-20,20,20,0,0,1,5.87-14.12,19.32,19.32,0,0,1,2.16-1.87l0,0a19.92,19.92,0,0,1,11.94-4h6.07a20,20,0,0,1,17.86,11.05,18.66,18.66,0,0,1,1.2,2.92A19.91,19.91,0,0,1,192.49,156Z"/></g></g></g></svg>