<svg xmlns="http://www.w3.org/2000/svg" xmlns:xlink="http://www.w3.org/1999/xlink" viewBox="0 0 378 482.01"><defs><style>.cls-1{isolation:isolate;}.cls-2{fill:#9bbefb;}.cls-3,.cls-34{opacity:0.25;}.cls-3{fill:url(#linear-gradient);}.cls-4{fill:#032f7b;}.cls-5{fill:#0446b8;}.cls-6{fill:#055df5;}.cls-7{fill:#377df7;}.cls-11,.cls-8{fill:#699ef9;}.cls-9{fill:#cddffd;}.cls-10,.cls-24{mix-blend-mode:overlay;}.cls-10{opacity:0.94;}.cls-11,.cls-22,.cls-23{mix-blend-mode:multiply;}.cls-11{opacity:0.29;}.cls-12{fill:#f20049;}.cls-13{fill:#b50037;}.cls-14{fill:#8a0e32;}.cls-15{fill:#13aa56;}.cls-16{fill:#028b3f;}.cls-17{fill:#02b954;}.cls-18{fill:#0e7f40;}.cls-19{fill:#ffbe00;}.cls-20{fill:#f7931e;}.cls-21,.cls-22,.cls-23,.cls-24{fill:#ffde2d;}.cls-22,.cls-29,.cls-30{opacity:0.5;}.cls-23{opacity:0.4;}.cls-24{opacity:0.67;}.cls-25{fill:#ccc;}.cls-26{fill:#f2f2f2;}.cls-27{fill:#e6e6e6;}.cls-28{fill:#b3b3b3;}.cls-29{fill:url(#linear-gradient-2);}.cls-30{fill:url(#linear-gradient-3);}.cls-31{opacity:0.44;fill:url(#linear-gradient-4);}.cls-32{fill:none;stroke:#055df5;stroke-miterlimit:10;stroke-width:0.2px;}.cls-33{fill:#e9f6fd;}.cls-34{fill:url(#linear-gradient-5);}</style><linearGradient id="linear-gradient" x1="246.34" y1="382.29" x2="380.78" y2="449.84" gradientUnits="userSpaceOnUse"><stop offset="0" stop-color="#01173d" stop-opacity="0.6"/><stop offset="0.36" stop-color="#01173d" stop-opacity="0.53"/><stop offset="0.74" stop-color="#01173d" stop-opacity="0.32"/><stop offset="1" stop-color="#01173d" stop-opacity="0.1"/></linearGradient><linearGradient id="linear-gradient-2" x1="171.52" y1="237.3" x2="212.8" y2="152.84" gradientUnits="userSpaceOnUse"><stop offset="0.07" stop-color="#fff" stop-opacity="0.5"/><stop offset="0.23" stop-color="#fff" stop-opacity="0.48"/><stop offset="0.39" stop-color="#fff" stop-opacity="0.43"/><stop offset="0.56" stop-color="#fff" stop-opacity="0.35"/><stop offset="0.74" stop-color="#fff" stop-opacity="0.23"/><stop offset="0.91" stop-color="#fff" stop-opacity="0.09"/><stop offset="1" stop-color="#fff" stop-opacity="0"/></linearGradient><linearGradient id="linear-gradient-3" x1="133.67" y1="113.37" x2="321.5" y2="113.37" gradientUnits="userSpaceOnUse"><stop offset="0" stop-color="#fff" stop-opacity="0.5"/><stop offset="0.17" stop-color="#fff" stop-opacity="0.48"/><stop offset="0.35" stop-color="#fff" stop-opacity="0.43"/><stop offset="0.53" stop-color="#fff" stop-opacity="0.35"/><stop offset="0.72" stop-color="#fff" stop-opacity="0.23"/><stop offset="0.91" stop-color="#fff" stop-opacity="0.09"/><stop offset="1" stop-color="#fff" stop-opacity="0"/></linearGradient><linearGradient id="linear-gradient-4" x1="303.24" y1="285.44" x2="303.24" y2="149.65" gradientTransform="matrix(0.87, -0.5, 0, 1.15, 11.89, 119.31)" xlink:href="#linear-gradient-3"/><linearGradient id="linear-gradient-5" x1="155.67" y1="431.11" x2="257.08" y2="497.64" xlink:href="#linear-gradient"/></defs><g class="cls-1"><g id="Layer_2" data-name="Layer 2"><g id="Layer_1-2" data-name="Layer 1"><rect class="cls-2" width="378" height="482"/><polygon class="cls-3" points="227.54 420.1 337 482 378 482 378 398.02 321.45 365.87 227.54 420.1"/><polygon class="cls-4" points="321.45 333.82 321.45 365.87 227.54 420.1 227.54 388.05 321.45 333.82"/><polygon class="cls-5" points="227.54 388.05 227.54 420.1 133.63 365.87 133.63 333.82 227.54 388.05"/><polygon class="cls-6" points="227.54 279.6 321.45 333.82 227.54 388.05 133.63 333.82 227.54 279.6"/><polygon class="cls-7" points="321.45 269.92 321.45 324.14 227.54 378.38 227.54 324.15 321.45 269.92"/><polygon class="cls-8" points="227.54 324.15 227.54 378.38 133.63 324.14 133.63 269.92 227.54 324.15"/><polygon class="cls-9" points="227.54 215.7 321.45 269.92 227.54 324.15 133.63 269.92 227.54 215.7"/><polygon class="cls-10" points="321.45 269.93 274.5 297.04 227.54 269.92 227.54 215.69 321.45 269.93"/><polygon class="cls-11" points="227.54 215.69 227.54 269.92 180.58 297.04 133.63 269.93 227.54 215.69"/><polygon class="cls-6" points="225.94 128.79 227.16 120.27 233.31 114.07 242.74 111.87 252.92 114.24 261.12 120.56 265.15 129.13 263.92 137.66 257.77 143.85 248.35 146.06 238.17 143.69 229.97 137.37 225.94 128.79"/><polygon class="cls-5" points="221.16 137.26 222.5 127.96 229.21 121.2 239.5 118.79 250.61 121.38 259.56 128.28 263.96 137.63 262.62 146.94 255.91 153.7 245.62 156.11 234.51 153.52 225.55 146.62 221.16 137.26"/><polygon class="cls-6" points="225.83 137.3 226.88 130.03 232.12 124.74 240.17 122.86 248.85 124.89 255.85 130.28 259.28 137.59 258.24 144.87 252.99 150.15 244.95 152.04 236.26 150.01 229.27 144.62 225.83 137.3"/><polygon class="cls-7" points="222.43 128 226.58 120.73 233.31 114.07 229.21 121.2 222.43 128"/><polygon class="cls-7" points="239.5 118.79 242.74 111.87 252.92 114.24 250.61 121.38 239.5 118.79"/><polygon class="cls-7" points="259.56 128.28 261.12 120.56 265.15 129.13 263.96 137.63 259.56 128.28"/><polygon class="cls-12" points="254.85 275.52 253.77 264.17 246.03 255.58 233.69 252.06 220.07 254.56 208.82 262.4 202.95 273.48 204.03 284.84 211.77 293.43 224.11 296.95 237.72 294.45 248.98 286.61 254.85 275.52"/><polygon class="cls-13" points="260.64 287.03 259.46 274.63 251.01 265.26 237.54 261.42 222.68 264.15 210.4 272.71 203.99 284.81 205.17 297.2 213.62 306.58 227.08 310.42 241.94 307.69 254.23 299.13 260.64 287.03"/><polygon class="cls-12" points="254.46 286.79 253.53 277.1 246.93 269.77 236.4 266.77 224.78 268.9 215.18 275.59 210.17 285.05 211.09 294.74 217.7 302.07 228.22 305.07 239.84 302.94 249.44 296.25 254.46 286.79"/><polygon class="cls-14" points="259.54 274.69 254.52 264.82 246.03 255.58 251.01 265.26 259.54 274.69"/><polygon class="cls-14" points="237.54 261.42 233.69 252.06 220.07 254.56 222.68 264.15 237.54 261.42"/><polygon class="cls-14" points="210.4 272.71 208.82 262.4 202.95 273.48 203.99 284.81 210.4 272.71"/><polygon class="cls-15" points="163.65 228.65 156.59 229.32 151.26 234.12 149.08 241.78 150.63 250.23 155.5 257.22 162.38 260.86 169.43 260.19 174.76 255.38 176.94 247.73 175.39 239.28 170.53 232.29 163.65 228.65"/><polygon class="cls-16" points="170.79 225.05 163.09 225.79 157.28 231.03 154.89 239.39 156.58 248.61 161.9 256.24 169.41 260.22 177.1 259.48 182.92 254.24 185.3 245.88 183.61 236.66 178.3 229.03 170.79 225.05"/><polygon class="cls-17" points="170.64 228.89 164.62 229.46 160.07 233.56 158.21 240.1 159.53 247.31 163.69 253.27 169.56 256.38 175.57 255.81 180.12 251.7 181.98 245.17 180.66 237.96 176.51 232 170.64 228.89"/><polygon class="cls-18" points="163.13 225.74 157 228.85 151.26 234.12 157.28 231.03 163.13 225.74"/><polygon class="cls-18" points="154.89 239.39 149.08 241.78 150.63 250.23 156.58 248.61 154.89 239.39"/><polygon class="cls-18" points="161.9 256.24 155.5 257.22 162.38 260.86 169.41 260.22 161.9 256.24"/><polygon class="cls-19" points="267.13 247.43 273.03 251.74 280.44 251.68 287.37 247.27 291.96 239.68 292.99 230.96 290.17 223.44 284.27 219.13 276.87 219.19 269.94 223.6 265.35 231.18 264.32 239.9 267.13 247.43"/><polygon class="cls-19" points="259.08 247.1 265.52 251.8 273.6 251.74 281.16 246.93 286.17 238.65 287.29 229.13 284.22 220.91 277.79 216.21 269.7 216.27 262.14 221.09 257.13 229.37 256.01 238.89 259.08 247.1"/><polygon class="cls-20" points="261.82 244.24 266.86 247.92 273.17 247.87 279.08 244.1 283 237.63 283.88 230.19 281.48 223.77 276.45 220.09 270.13 220.14 264.22 223.91 260.3 230.38 259.42 237.82 261.82 244.24"/><polygon class="cls-21" points="290.17 223.44 284.27 219.13 277.79 216.21 284.22 220.91 290.17 223.44"/><polyline class="cls-21" points="280.44 251.68 273.6 251.74 265.52 251.8"/><polygon class="cls-22" points="292.99 230.96 290.17 223.44 284.22 220.91 287.29 229.13 292.99 230.96"/><polygon class="cls-21" points="273.6 251.74 280.44 251.68 287.37 247.27 281.29 246.83 273.6 251.74"/><polygon class="cls-23" points="281.29 246.83 287.37 247.27 291.96 239.68 286.17 238.65 281.29 246.83"/><polygon class="cls-24" points="286.17 238.65 291.96 239.68 292.99 230.96 287.29 229.13 286.17 238.65"/><polygon class="cls-25" points="200.02 207.38 202.56 214.38 208.91 218.56 217.33 218.75 225.42 214.92 231.24 208.13 233.13 200.16 230.59 193.16 224.29 189.01 215.93 188.81 207.73 192.62 201.91 199.41 200.02 207.38"/><polygon class="cls-26" points="203.63 206.59 205.62 212.06 210.54 215.31 217.08 215.47 223.49 212.49 228.04 207.18 229.52 200.95 227.53 195.48 222.61 192.23 216.07 192.07 209.66 195.05 205.11 200.36 203.63 206.59"/><polygon class="cls-27" points="236.43 205.21 234.1 198.8 230.59 193.16 233.13 200.16 236.43 205.21"/><polygon class="cls-28" points="234.7 212.51 236.43 205.21 233.13 200.16 231.24 208.13 234.7 212.51"/><polygon class="cls-27" points="208.91 218.56 214.24 222.07 221.91 222.25 217.42 218.75 208.91 218.56"/><polygon class="cls-28" points="217.37 218.72 221.86 222.23 229.36 218.74 225.42 214.92 217.37 218.72"/><polygon class="cls-27" points="225.42 214.92 229.36 218.74 234.7 212.51 231.24 208.13 225.42 214.92"/><polygon class="cls-29" points="227.49 324.15 133.58 269.92 133.68 113.37 227.59 167.6 227.49 324.15"/><polygon class="cls-30" points="227.59 167.59 133.68 113.37 227.59 59.14 321.5 113.37 227.59 167.59"/><polygon class="cls-31" points="321.41 270.21 227.5 324.15 227.59 167.59 321.5 113.36 321.41 270.21"/><polygon class="cls-32" points="227.5 167.7 227.5 324.15 133.59 269.92 133.59 113.47 227.5 167.7"/><polygon class="cls-32" points="321.41 113.47 321.41 269.92 227.5 324.15 227.5 167.7 321.41 113.47"/><polygon class="cls-32" points="227.5 59.25 321.42 113.47 227.5 167.7 133.59 113.47 227.5 59.25"/><polygon class="cls-4" points="181.66 382 175.82 378.62 175.82 371.93 181.66 375.3 181.66 382"/><polygon class="cls-4" points="181.66 382 141.31 405.29 141.31 398.61 181.66 375.31 181.66 382"/><polygon class="cls-6" points="141.31 398.61 181.66 375.31 175.83 371.93 135.49 395.22 141.31 398.61"/><polygon class="cls-4" points="52.64 427.14 52.64 419.92 73.49 406.38 73.7 406.34 73.76 406.22 88.98 397.43 109.72 394.18 130.42 397.34 151.01 410.8 151.01 418.02 145.38 429.99 130.16 438.78 129.95 438.82 129.89 438.94 114.67 447.73 93.93 450.98 73.23 447.81 58.12 439.09 52.64 427.14"/><polygon class="cls-6" points="52.64 419.92 58.27 407.94 73.49 399.15 73.7 399.12 73.76 399 88.98 390.21 109.72 386.96 130.42 390.12 145.53 398.85 151.01 410.8 145.38 422.77 130.16 431.56 129.95 431.6 129.89 431.72 114.67 440.51 93.93 443.76 73.23 440.59 58.12 431.87 52.64 419.92"/><polygon class="cls-33" points="76.63 426.47 82.58 429.9 90.73 431.15 98.9 429.87 104.89 426.41 104.91 426.36 105 426.35 110.99 422.89 111.01 422.84 107.38 422.23 107.36 422.27 102.64 425 102.57 425.01 102.55 425.05 97.83 427.77 91.39 428.78 84.97 427.8 80.27 425.09 78.57 421.38 80.32 417.67 85.05 414.94 85.05 414.94 85.11 414.93 85.13 414.89 89.86 412.16 88.86 410.05 88.78 410.07 82.79 413.53 82.77 413.57 82.77 413.58 82.68 413.59 76.69 417.05 74.48 421.76 74.47 421.76 76.63 426.47"/><polygon class="cls-33" points="121.07 400.81 127.02 404.25 129.18 408.95 126.96 413.67 120.97 417.13 120.88 417.14 120.86 417.19 114.87 420.65 114.79 420.66 113.72 418.57 113.8 418.55 118.52 415.83 118.54 415.79 118.6 415.78 123.33 413.05 125.08 409.33 123.38 405.63 118.68 402.92 112.26 401.93 105.82 402.94 101.1 405.67 101.1 405.68 101.08 405.71 101.02 405.72 96.29 408.45 96.27 408.49 92.64 407.88 92.66 407.83 98.66 404.37 98.73 404.36 98.76 404.31 104.76 400.85 112.92 399.57 112.92 399.57 121.07 400.81"/><polygon class="cls-33" points="91.65 422.58 113.93 409.71 112.44 407.89 90.15 420.75 91.65 422.58"/><polygon class="cls-34" points="232.72 460.58 238.2 472.53 233.74 482.01 139.99 482.01 139.82 481.65 145.45 469.67 160.67 460.88 160.89 460.85 160.94 460.73 176.17 451.94 196.91 448.69 217.61 451.85 222.46 454.66 255.21 435.75 261.11 439.09 228.31 458.03 232.72 460.58"/><polygon class="cls-4" points="67.62 437.15 67.62 443.83 2.03 482 0 482 0 476.19 67.62 437.15"/><polygon class="cls-6" points="0 476.19 67.62 437.15 61.8 433.77 0 469.45 0 476.19"/><path class="cls-6" d="M247.46,330c.08,2.18-2.12,3.45-4.34,4.73s-4.33,2.25-4.33.12l2.76-1.6c0,.74.75.45,1.54,0s1.64-.94,1.59-1.54c-.08-.83-5.75,3.06-5.82.44-.07-2.12,2.06-3.48,4.26-4.76s4.27-2.22,4.27-.08l-2.69,1.55c0-.73-.75-.44-1.54,0s-1.56.9-1.51,1.49C241.72,331.23,247.39,327.45,247.46,330Z"/><path class="cls-6" d="M248.28,331.52v-6.83l7.71-4.45v1.5l-5,2.86v1.16l4.52-2.61-.22,1.55-4.3,2.48v1.08l5-2.86v1.67Z"/><path class="cls-6" d="M256.49,323.36c0-2.78,2-4.83,4.59-6.32,2.36-1.36,4.13-1.62,4.4.49l-2.79,1.61c-.19-.75-.78-.9-1.69-.38a3.31,3.31,0,0,0-1.74,3c0,1.35.64,1.63,1.74,1a3.42,3.42,0,0,0,1.69-2.33l2.79-1.61c-.27,2.43-2,4.21-4.4,5.57C258.51,325.87,256.49,326.15,256.49,323.36Z"/><path class="cls-6" d="M266.12,318.06v-3.67l2.76-1.6v4c0,1,.72,1,1.61.49a2.86,2.86,0,0,0,1.6-2.34v-4l2.76-1.59V313c0,2.75-2,4.54-4.36,5.94S266.12,320.81,266.12,318.06Z"/><path class="cls-6" d="M278.53,314.06l-2.76,1.59v-6.83l6.8-3.93c1.15-.66,1.93-.09,1.93,1.22a4.52,4.52,0,0,1-1.57,3.17l1.5,1.37-2.77,1.6-1.45-1.33-1.68,1Zm0-3.75,2.51-1.45a1.43,1.43,0,0,0,.7-1.15c0-.44-.24-.62-.63-.4l-2.58,1.5Z"/><path class="cls-6" d="M285.27,310.17v-6.84l7.71-4.45v1.5l-5,2.86v1.16l4.52-2.6-.22,1.54-4.3,2.48v1.08l5-2.86v1.67Z"/><path class="cls-6" d="M238.75,345.33c0-2.78,2-4.83,4.59-6.32,2.36-1.36,4.12-1.63,4.4.49L245,341.11c-.19-.75-.79-.91-1.69-.38a3.32,3.32,0,0,0-1.75,3c0,1.34.65,1.62,1.75,1A3.45,3.45,0,0,0,245,342.4l2.79-1.61c-.28,2.43-2,4.2-4.4,5.56C240.76,347.84,238.75,348.11,238.75,345.33Z"/><path class="cls-6" d="M251.25,341.53l-2.76,1.59v-6.83l6.8-3.93c1.15-.66,1.93-.09,1.93,1.22a4.48,4.48,0,0,1-1.57,3.17l1.5,1.37-2.77,1.6-1.45-1.33-1.68,1Zm0-3.75,2.52-1.45a1.45,1.45,0,0,0,.69-1.15c0-.44-.24-.62-.62-.39l-2.59,1.49Z"/><path class="cls-6" d="M263.19,332.3v2.34l-2.77,1.6V333.9l-3.29-2.6,2.84-1.64,2.2,1.74,2.2-4.28,2.11-1.22Z"/><path class="cls-6" d="M269.7,330.88l-2.76,1.59v-6.83l6.8-3.93c1.15-.66,1.93-.09,1.93,1.22a4.2,4.2,0,0,1-1.93,3.45l-4,2.33Zm0-3.75,2.59-1.49a1.31,1.31,0,0,0,.62-1.11c0-.44-.24-.62-.62-.4l-2.59,1.49Z"/><path class="cls-6" d="M284.39,317.15l-2.84,1.64V324l-2.76,1.59v-5.25L276,322v-1.58l8.44-4.88Z"/><path class="cls-6" d="M284.69,318.81c0-2.79,2-4.84,4.59-6.32s4.58-1.76,4.58,1-2,4.84-4.58,6.32S284.69,321.59,284.69,318.81Zm2.76-1.6c0,1.35.73,1.59,1.83,1a3.44,3.44,0,0,0,1.81-3.05c0-1.35-.71-1.59-1.81-.95A3.46,3.46,0,0,0,287.45,317.21Z"/><path class="cls-6" d="M247,350.44l-2.84,1.64v5.26l-2.76,1.59v-5.25l-2.84,1.63v-1.58l8.44-4.87Z"/><path class="cls-6" d="M250.38,353.75l-2.76,1.6v-6.84l6.8-3.92c1.16-.67,1.93-.09,1.93,1.22a4.51,4.51,0,0,1-1.57,3.17l1.5,1.37-2.77,1.6-1.45-1.33-1.68,1Zm0-3.75,2.52-1.45a1.45,1.45,0,0,0,.69-1.15c0-.44-.24-.61-.62-.39l-2.59,1.49Z"/><path class="cls-6" d="M263,339.63l3.39,4.88-2.84,1.64-.54-.78-3.91,2.26-.54,1.4-2,1.13,3.39-8.79Zm-.75,4.64-1.19-1.72-1.19,3.1Z"/><path class="cls-6" d="M268.65,343.21l-1.75,1v-6.84l3.27-1.89,3.72,2.57v-4.71l1.74-1v6.84l-3.28,1.89-3.7-2.57Z"/><path class="cls-6" d="M285.11,331.74c.08,2.17-2.12,3.44-4.34,4.72s-4.34,2.25-4.34.13l2.77-1.6c0,.73.75.45,1.54,0s1.64-1,1.58-1.54c-.07-.84-5.74,3.06-5.81.44-.08-2.12,2.05-3.49,4.26-4.76S285,326.9,285,329l-2.69,1.55c0-.73-.75-.44-1.54,0s-1.56.9-1.51,1.5C279.37,332.94,285,329.15,285.11,331.74Z"/><path class="cls-6" d="M288.69,331.64l-2.76,1.59V326.4l7.71-4.46v1.59l-4.95,2.86v1.41l4.58-2.65-.21,1.63-4.37,2.53Z"/><path class="cls-6" d="M294.34,328.38v-6.84l7.71-4.45v1.5l-4.95,2.86v1.16l4.52-2.6-.22,1.54L297.1,324v1.08l4.95-2.86v1.67Z"/><path class="cls-6" d="M305.66,321.84l-2.76,1.59V316.6l6.8-3.93c1.15-.66,1.93-.09,1.93,1.22a4.52,4.52,0,0,1-1.57,3.17l1.5,1.37-2.77,1.6-1.45-1.33-1.68,1Zm0-3.75,2.52-1.45a1.45,1.45,0,0,0,.69-1.15c0-.44-.24-.62-.62-.4l-2.59,1.49Z"/></g></g></g></svg>