<svg width="383" height="383" viewBox="0 0 383 383" fill="none" xmlns="http://www.w3.org/2000/svg">
<path d="M191.8 191.525L192.06 191.665L191.85 191.475L191.8 191.525Z" fill="#FEFEFE"/>
<path d="M191.5 0L287.25 25.6561L357.344 95.75L383 191.5L357.344 287.25L287.25 357.344L191.5 383L95.75 357.344L25.6561 287.25L0 191.5L25.6561 95.75L95.75 25.6561L191.5 0Z" fill="#055DF5"/>
<path d="M309.49 129.025V130.755C303.992 138.713 297.454 145.9 290.05 152.125C289.015 152.981 288.198 154.072 287.668 155.306C287.138 156.541 286.909 157.884 287 159.225C287.07 163.119 286.89 167.013 286.46 170.885C284.699 189.911 278.845 208.332 269.3 224.885C245.06 266.425 208.67 288.185 160.71 290.365C138.62 291.365 117.59 286.645 97.7099 276.965C95.1199 275.705 92.6099 274.275 90.0999 272.855C88.4399 271.925 87.4899 270.505 88.0999 268.545C88.3062 267.693 88.8162 266.945 89.5342 266.443C90.2522 265.94 91.1289 265.717 91.9999 265.815C93.1499 265.815 94.3099 265.815 95.4599 265.815C111.023 266.039 126.375 262.199 140 254.675C142 253.545 144 252.275 146.25 250.875C145.34 250.615 144.93 250.465 144.51 250.385C135.753 248.644 127.678 244.431 121.24 238.245C115.565 232.955 111.32 226.316 108.9 218.945C108.04 216.355 109.07 215.005 111.75 215.125C112.68 215.125 113.6 215.385 114.54 215.445C116.13 215.565 117.72 215.615 119.32 215.695C118.913 215.117 118.366 214.653 117.73 214.345C101.99 205.285 93.6299 191.685 92.6499 173.545C92.4199 169.345 93.9599 168.435 97.7499 170.185C100.55 171.475 103.28 172.985 106.46 173.185L106.6 173.315L106.42 173.215C106.056 172.44 105.523 171.756 104.86 171.215C98.6319 164.116 94.6545 155.327 93.4331 145.963C92.2116 136.599 93.8012 127.083 97.9999 118.625C100.72 113.145 101.62 113.085 105.7 117.775C127.7 143.068 155.367 157.535 188.7 161.175C191.03 161.435 191.79 160.715 191.57 158.425C191.27 155.049 191.31 151.652 191.69 148.285C192.676 139.812 195.919 131.759 201.08 124.967C206.241 118.175 213.13 112.894 221.03 109.675C228.929 106.455 237.548 105.415 245.986 106.664C254.424 107.913 262.372 111.405 269 116.775C270.314 118.009 271.947 118.85 273.714 119.203C275.482 119.557 277.313 119.408 279 118.775C285.957 116.628 292.662 113.738 299 110.155C300.22 109.455 301.45 109.225 302.58 110.285C303.71 111.345 303.41 112.435 302.95 113.675C301.275 118.304 298.966 122.679 296.09 126.675C294.66 128.675 292.84 130.275 291.09 132.545C295.877 131.491 300.539 129.935 305 127.905C306.9 127.115 308.35 127.285 309.49 129.025Z" fill="#FDFEFE"/>
</svg>
