<svg xmlns="http://www.w3.org/2000/svg" viewBox="0 0 383 383"><defs><style>.cls-1{fill:#055df5;}.cls-2{fill:#fdfefe;}</style></defs><g id="Layer_2" data-name="Layer 2"><g id="Layer_1-2" data-name="Layer 1"><polygon class="cls-1" points="357.34 95.75 287.25 25.66 191.5 0 95.75 25.66 25.66 95.75 0 191.5 25.66 287.25 95.75 357.34 191.5 383 287.25 357.34 357.34 287.25 383 191.5 357.34 95.75"/><path class="cls-2" d="M288.15,111.68V271.17a7.44,7.44,0,0,0-.47,1.57c-.65,7.18-6.83,13.85-13.83,14.9-.91.14-1.8.35-2.7.53H111.7c-1.14-.24-2.3-.44-3.43-.75-8.38-2.25-13.4-8.79-13.4-17.81q0-78.23,0-156.44a18.1,18.1,0,0,1,3.55-11.31c3.92-5.15,9.29-7,15.51-7q75.75,0,151.5,0c2.32,0,4.65.16,7,.32,7.53.52,13.55,6.29,15.18,13.63C287.8,109.75,288,110.72,288.15,111.68ZM201,176.85c0-1.72,0-3.71,0-5.69,0-3.6-2-5.58-5.61-5.58q-10.49,0-21,0c-3.8,0-5.79,2-5.79,5.82q0,44.86,0,89.75c0,3.89,2.06,6,5.91,6q10.2,0,20.4,0c4.15,0,6.07-2,6.07-6.15q0-22.86,0-45.72a32.24,32.24,0,0,1,3.23-14.21A15.45,15.45,0,0,1,220.36,192c6.79.62,11.49,4.52,13.21,11.54a47.93,47.93,0,0,1,1.44,11c.15,15.62.06,31.24.06,46.86,0,3.87,1.92,5.77,5.8,5.78H262c4,0,6.14-2,6.13-6-.07-18.39-.08-36.78-.37-55.16a59.86,59.86,0,0,0-4-21.37c-3.41-8.53-9-14.9-17.79-18.16-6.68-2.49-13.65-2.82-20.64-2.2-5.88.52-11.61,1.87-16.42,5.49C206.07,171.88,203.61,174.49,201,176.85Zm-78.5,39.53v44.38c0,4.32,2,6.36,6.33,6.37h18.88c5.26,0,7.15-1.9,7.15-7.16q0-27.48,0-55,0-16.53,0-33c0-4.31-2.09-6.38-6.34-6.38q-9.92,0-19.83,0c-4.23,0-6.19,2-6.19,6.23Zm36.94-79.75a20.83,20.83,0,1,0-20.94,20.84A20.94,20.94,0,0,0,159.45,136.63Z"/></g></g></svg>