<svg xmlns="http://www.w3.org/2000/svg" xmlns:xlink="http://www.w3.org/1999/xlink" viewBox="0 0 378.63 482.1"><defs><style>.cls-1{isolation:isolate;}.cls-2{fill:#9bbefb;}.cls-3{opacity:0.25;fill:url(#linear-gradient);}.cls-4{fill:url(#linear-gradient-2);}.cls-5{fill:#f7931e;}.cls-6{fill:#ffbe00;}.cls-7{fill:#ffde2d;mix-blend-mode:overlay;opacity:0.67;}.cls-8{fill:#032f7b;}.cls-9{fill:#055df5;}.cls-10{fill:#e9f6fd;}.cls-11{fill:#0446b8;}.cls-12{fill:#f2f2f2;}.cls-13{fill:#ccc;}.cls-14{fill:#e6e6e6;}.cls-15{fill:#b50037;}.cls-16{fill:#f20049;}.cls-17{fill:#8a0e32;}.cls-18,.cls-19{opacity:0.5;}.cls-18{fill:url(#linear-gradient-3);}.cls-19{fill:url(#linear-gradient-4);}.cls-20{opacity:0.44;fill:url(#linear-gradient-5);}.cls-21{fill:none;stroke:#055df5;stroke-miterlimit:10;stroke-width:0.2px;}.cls-22{fill:#699ef9;}.cls-23{fill:url(#linear-gradient-6);}.cls-24{fill:#01173d;}.cls-25{fill:url(#linear-gradient-7);}</style><linearGradient id="linear-gradient" x1="340.92" y1="3876.69" x2="522.68" y2="3739.02" gradientTransform="translate(507.1 4252.76) rotate(180)" gradientUnits="userSpaceOnUse"><stop offset="0" stop-color="#01173d" stop-opacity="0.6"/><stop offset="0.36" stop-color="#01173d" stop-opacity="0.53"/><stop offset="0.74" stop-color="#01173d" stop-opacity="0.32"/><stop offset="1" stop-color="#01173d" stop-opacity="0.1"/></linearGradient><linearGradient id="linear-gradient-2" x1="162.39" y1="3895.85" x2="363.97" y2="3978.23" gradientTransform="translate(354.17 4252.76) rotate(180)" gradientUnits="userSpaceOnUse"><stop offset="0.02" stop-color="#055df5" stop-opacity="0.8"/><stop offset="0.31" stop-color="#055df5" stop-opacity="0.67"/><stop offset="0.93" stop-color="#055df5" stop-opacity="0.34"/><stop offset="1" stop-color="#055df5" stop-opacity="0.3"/></linearGradient><linearGradient id="linear-gradient-3" x1="-4.44" y1="440.6" x2="30.93" y2="368.22" gradientTransform="matrix(-1, 0, 0, 1, 354.17, 0)" gradientUnits="userSpaceOnUse"><stop offset="0.07" stop-color="#fff" stop-opacity="0.5"/><stop offset="0.23" stop-color="#fff" stop-opacity="0.48"/><stop offset="0.39" stop-color="#fff" stop-opacity="0.43"/><stop offset="0.56" stop-color="#fff" stop-opacity="0.35"/><stop offset="0.74" stop-color="#fff" stop-opacity="0.23"/><stop offset="0.91" stop-color="#fff" stop-opacity="0.09"/><stop offset="1" stop-color="#fff" stop-opacity="0"/></linearGradient><linearGradient id="linear-gradient-4" x1="-24.36" y1="236.59" x2="353.64" y2="236.59" gradientTransform="matrix(-1, 0, 0, 1, 354.17, 0)" gradientUnits="userSpaceOnUse"><stop offset="0" stop-color="#fff" stop-opacity="0.5"/><stop offset="0.17" stop-color="#fff" stop-opacity="0.48"/><stop offset="0.35" stop-color="#fff" stop-opacity="0.43"/><stop offset="0.53" stop-color="#fff" stop-opacity="0.35"/><stop offset="0.72" stop-color="#fff" stop-opacity="0.23"/><stop offset="0.91" stop-color="#fff" stop-opacity="0.09"/><stop offset="1" stop-color="#fff" stop-opacity="0"/></linearGradient><linearGradient id="linear-gradient-5" x1="198.91" y1="482" x2="198.91" y2="201.51" xlink:href="#linear-gradient-4"/><linearGradient id="linear-gradient-6" x1="368.8" y1="136.56" x2="371.84" y2="132.11" gradientTransform="translate(-24.95 -12.54) rotate(3.12)" gradientUnits="userSpaceOnUse"><stop offset="0" stop-color="#4e576b"/><stop offset="1" stop-color="#282d38"/></linearGradient><linearGradient id="linear-gradient-7" x1="332.47" y1="122.01" x2="339.97" y2="22.13" gradientTransform="matrix(1, 0, 0, 1, 0, 0)" xlink:href="#linear-gradient-6"/></defs><g class="cls-1"><g id="Layer_2" data-name="Layer 2"><g id="Layer_1-2" data-name="Layer 1"><rect class="cls-2" x="0.53" width="378" height="482"/><polygon class="cls-3" points="0.53 358.9 0.46 412.94 120.08 482 215 481.74 0.53 358.9"/><polygon class="cls-4" points="0.53 240.09 0 295.28 167.74 385.74 206.94 353.48 0.53 240.09"/><polygon class="cls-5" points="65.81 308.1 71.85 304.62 80.06 303.33 88.27 304.58 96.43 305.63 96.43 312.77 94.2 317.52 88.16 321 79.94 322.29 71.74 321.04 65.75 317.58 63.58 312.84 65.81 308.1"/><polygon class="cls-6" points="65.81 300.95 71.85 297.47 80.06 296.18 88.27 297.43 94.26 300.89 96.43 305.63 94.2 310.37 88.16 313.85 79.94 315.14 71.74 313.89 65.75 310.43 63.58 305.69 65.81 300.95"/><polygon class="cls-5" points="68.9 301.97 73.62 299.25 80.05 298.24 86.47 299.22 91.16 301.93 92.86 305.63 91.11 309.35 86.39 312.07 79.96 313.08 73.54 312.1 68.85 309.39 67.15 305.69 68.9 301.97"/><polygon class="cls-5" points="65.75 317.58 63.58 312.81 63.58 305.69 65.75 310.43 65.75 317.58"/><polygon class="cls-7" points="94.2 317.52 96.43 312.77 96.43 305.6 94.2 310.37 94.2 317.52"/><polygon class="cls-7" points="79.94 322.29 88.16 321 88.16 313.85 79.94 315.14 79.94 322.29"/><polygon class="cls-5" points="79.94 322.29 71.74 321.04 71.74 313.89 79.94 315.14 79.94 322.29"/><polygon class="cls-5" points="88.16 321 94.2 317.52 94.2 310.37 88.16 313.85 88.16 321"/><polygon class="cls-7" points="71.74 321.04 65.75 317.58 65.75 310.43 71.74 313.89 71.74 321.04"/><polygon class="cls-8" points="261.73 388.08 261.73 380.86 240.88 367.31 240.66 367.28 240.61 367.16 225.38 358.37 204.64 355.12 183.94 358.28 163.36 371.74 163.36 378.96 168.98 390.93 184.21 399.72 184.42 399.76 184.47 399.88 199.7 408.67 220.44 411.92 241.14 408.75 256.25 400.03 261.73 388.08"/><polygon class="cls-9" points="261.73 380.86 256.1 368.88 240.88 360.09 240.66 360.06 240.61 359.94 225.38 351.15 204.64 347.9 183.94 351.06 168.83 359.79 163.36 371.74 168.98 383.71 184.21 392.5 184.42 392.54 184.47 392.66 199.7 401.45 220.44 404.69 241.14 401.53 256.25 392.81 261.73 380.86"/><polygon class="cls-10" points="237.74 387.41 231.78 390.84 223.64 392.09 215.47 390.81 209.48 387.35 209.45 387.3 209.37 387.29 203.38 383.83 203.35 383.78 206.99 383.17 207.01 383.21 211.73 385.94 211.8 385.95 211.81 385.99 216.54 388.71 222.98 389.72 229.4 388.74 234.09 386.03 235.79 382.32 234.04 378.61 229.32 375.88 229.31 375.88 229.25 375.87 229.24 375.83 224.51 373.1 225.5 370.99 225.58 371.01 231.58 374.47 231.6 374.51 231.6 374.52 231.68 374.53 237.68 377.99 239.89 382.7 239.89 382.7 237.74 387.41"/><polygon class="cls-10" points="193.3 361.75 187.35 365.19 185.19 369.89 187.41 374.61 193.4 378.07 193.48 378.08 193.5 378.13 199.5 381.59 199.58 381.6 200.64 379.51 200.57 379.49 195.85 376.77 195.83 376.73 195.76 376.72 191.04 373.99 189.29 370.27 190.99 366.56 195.68 363.86 202.11 362.87 208.54 363.88 213.26 366.61 213.27 366.61 213.28 366.65 213.35 366.66 218.08 369.39 218.1 369.43 221.73 368.81 221.71 368.77 215.71 365.31 215.63 365.3 215.61 365.25 209.61 361.79 201.45 360.51 201.45 360.51 193.3 361.75"/><polygon class="cls-10" points="222.72 383.52 200.43 370.65 201.93 368.83 224.21 381.69 222.72 383.52"/><polygon class="cls-8" points="245.3 399.12 245.3 405.18 376.5 481.85 378.53 481.85 378.53 476.04 245.3 399.12"/><polygon class="cls-9" points="378.53 476.04 245.3 399.12 251.14 395.75 378.53 469.3 378.53 476.04"/><polygon class="cls-11" points="10.93 277.52 17.38 273.8 26.17 272.42 34.94 273.76 43.66 274.87 43.66 282.52 41.28 287.59 34.83 291.31 26.04 292.69 17.27 291.35 10.87 287.65 8.55 282.59 10.93 277.52"/><polygon class="cls-12" points="10.93 269.87 17.38 266.15 26.17 264.77 34.94 266.11 41.34 269.81 43.66 274.87 41.28 279.95 34.83 283.67 26.04 285.05 17.27 283.71 10.87 280.01 8.55 274.95 10.93 269.87"/><polygon class="cls-13" points="14.23 270.97 19.28 268.05 26.15 266.98 33.02 268.03 38.03 270.92 39.85 274.88 37.98 278.85 32.93 281.77 26.05 282.85 19.19 281.8 14.18 278.9 12.36 274.94 14.23 270.97"/><polygon class="cls-13" points="10.87 287.65 8.55 282.56 8.55 274.95 10.87 280.01 10.87 287.65"/><polygon class="cls-14" points="41.28 287.59 43.66 282.52 43.66 274.85 41.28 279.95 41.28 287.59"/><polygon class="cls-14" points="26.04 292.69 34.83 291.31 34.83 283.67 26.04 285.05 26.04 292.69"/><polygon class="cls-13" points="26.04 292.69 17.27 291.35 17.27 283.71 26.04 285.05 26.04 292.69"/><polygon class="cls-13" points="34.83 291.31 41.28 287.59 41.28 279.95 34.83 283.67 34.83 291.31"/><polygon class="cls-14" points="17.27 291.35 10.87 287.65 10.87 280.01 17.27 283.71 17.27 291.35"/><polygon class="cls-11" points="123.81 340.59 129.99 337.02 138.42 335.7 146.84 336.99 155.2 338.06 155.2 345.39 152.92 350.26 146.73 353.83 138.3 355.15 129.89 353.86 123.75 350.32 121.52 345.46 123.81 340.59"/><polygon class="cls-15" points="123.81 333.26 129.99 329.69 138.42 328.37 146.84 329.65 152.98 333.2 155.2 338.06 152.92 342.92 146.73 346.5 138.3 347.82 129.89 346.53 123.75 342.99 121.52 338.13 123.81 333.26"/><polygon class="cls-16" points="126.97 334.31 131.81 331.52 138.41 330.48 144.99 331.49 149.8 334.26 151.54 338.07 149.75 341.87 144.91 344.67 138.31 345.7 131.73 344.7 126.92 341.92 125.18 338.12 126.97 334.31"/><polygon class="cls-17" points="123.75 350.32 121.52 345.43 121.52 338.13 123.75 342.99 123.75 350.32"/><polygon class="cls-16" points="152.92 350.26 155.2 345.39 155.2 338.04 152.92 342.92 152.92 350.26"/><polygon class="cls-16" points="138.3 355.15 146.73 353.83 146.73 346.5 138.3 347.82 138.3 355.15"/><polygon class="cls-17" points="138.3 355.15 129.89 353.86 129.89 346.53 138.3 347.82 138.3 355.15"/><polygon class="cls-17" points="146.73 353.83 152.92 350.26 152.92 342.92 146.73 346.5 146.73 353.83"/><polygon class="cls-16" points="129.89 353.86 123.75 350.32 123.75 342.99 129.89 346.53 129.89 353.86"/><polygon class="cls-18" points="309.94 380.12 309.94 380.18 310.01 481.85 310.01 482 310.03 482 310.03 481.85 378.53 481.85 378.53 340.52 309.94 380.12"/><polygon class="cls-19" points="0.53 93.06 0.53 201.51 309.94 380.12 378.53 340.52 378.53 311.27 0.53 93.06"/><polygon class="cls-20" points="0.53 201.51 0.53 358.9 214.85 482 310 482 309.94 380.18 309.94 380.12 0.53 201.51"/><polygon class="cls-21" points="310.03 380.23 310.03 481.85 378.53 481.85 378.53 340.67 362.95 349.67 310.03 380.23"/><polyline class="cls-21" points="310.03 482 310.03 481.85 310.03 380.23 309.94 380.18 59.95 235.83 57.65 234.5 37.85 223.06 37.05 222.6 25.95 216.19 25.22 215.77 0.53 201.52 0.53 358.9 214.59 481.85 214.85 482 310 482 310.01 482"/><polygon class="cls-21" points="0.53 93.06 0.53 201.52 25.22 215.77 25.95 216.19 37.05 222.6 57.65 234.5 59.95 235.83 309.94 380.17 310.03 380.22 362.95 349.67 378.53 340.67 378.53 311.32 25.22 107.32 0.53 93.06"/><path class="cls-11" d="M259.08,324c6.91-3.64,14.36-8.56,18.49-17.38,17.34-3.61,22.78-6.81,28.81-10.35l33.21,19.11c4,2.3,5.54,5.77,4.13,9.32l-6.27,15.88a2.26,2.26,0,0,1-2,1.16l-27.13,3.7c-6.09.83-12,0-16-2.32Z"/><path class="cls-9" d="M267.31,324c5.73-3,11.92-7.1,15.34-14.4,14.36-3,18.84-5.62,23.83-8.56L334,316.87c3.32,1.9,4.59,4.77,3.42,7.72l-5.19,13.15a1.13,1.13,0,0,1-.57.62,2.81,2.81,0,0,1-1.07.34l-22.47,3.06c-5,.69-10,0-13.26-1.92Z"/><path class="cls-22" d="M21.57,154.23l-3.42-2,7.27-4.2,8.41,4.86c1.43.82,1.3,2-.09,2.81a5.18,5.18,0,0,1-4.87.05l-5-2.88Zm4-2.3,3.2,1.84a1.62,1.62,0,0,0,1.57,0c.47-.27.5-.63,0-.9L27.15,151Z"/><path class="cls-22" d="M33.24,161l-3.42-2,7.27-4.2,8.42,4.86c1.42.82,1.29,2-.1,2.81a5.58,5.58,0,0,1-4.35.27l-.52,2.44-3.43-2,.51-2.36-2.08-1.2Zm4-2.3,3.11,1.79a1.78,1.78,0,0,0,1.65,0c.47-.27.51-.63,0-.9l-3.19-1.85Z"/><path class="cls-22" d="M44.9,163.5c3-1.71,6.39-.82,9.58,1s4.72,3.82,1.76,5.53-6.39.82-9.58-1S41.94,165.21,44.9,163.5Zm3.41,2c-1.43.83-1.23,1.75.13,2.54a4.27,4.27,0,0,0,4.38.06c1.43-.82,1.24-1.74-.12-2.52A4.29,4.29,0,0,0,48.31,165.47Z"/><path class="cls-22" d="M69,175.16l-3.51-2-5.59,3.22-3.41-2,5.59-3.23-3.52-2,1.69-1,10.44,6Z"/><path class="cls-22" d="M64.16,178.82l7.27-4.19L81,180.14l-1.6.92-6.13-3.54-1.23.71,5.58,3.23-1.77.71-5.32-3.07-1.15.67,6.12,3.54-1.77,1Z"/><path class="cls-22" d="M78,182.59c3-1.71,6.4-.82,9.58,1,2.92,1.69,4.31,3.41,2.23,5l-3.45-2c.68-.66.47-1.39-.65-2a4.13,4.13,0,0,0-4.29,0c-1.43.83-1.33,1.7,0,2.48a4.21,4.21,0,0,0,3.53.37l3.45,2c-2.75,1.2-5.74.4-8.66-1.29C76.55,186.28,75,184.3,78,182.59Z"/><path class="cls-22" d="M101.88,194.15l-3.51-2-5.59,3.23-3.41-2L95,190.15l-3.51-2,1.69-1,10.43,6Z"/><path class="cls-22" d="M97,197.81l7.27-4.2,9.55,5.51-1.6.92-6.13-3.54-1.24.72,5.59,3.22-1.78.71-5.31-3.06-1.16.66,6.13,3.54-1.77,1Z"/><path class="cls-22" d="M107.64,203.92l7.27-4.19,7.48,4.31c2,1.18,1.87,3-.14,4.12a7.73,7.73,0,0,1-7.14.08Zm5.1,1,2.25,1.31a4.19,4.19,0,0,0,3.85,0c1.08-.62,1.16-1.58.06-2.22l-2.26-1.3Z"/><path class="cls-22" d="M129,216.24l-3.42-2,7.27-4.2,9.55,5.51-1.69,1L134.57,213l-1.51.87,5.68,3.27-1.87.78-5.41-3.13Z"/><path class="cls-22" d="M139.39,222.25l-3.42-2,7.27-4.2,8.42,4.86c1.42.82,1.29,2-.1,2.81a5.58,5.58,0,0,1-4.35.27l-.53,2.45-3.42-2,.51-2.37-2.08-1.2Zm4-2.3,3.11,1.8a1.78,1.78,0,0,0,1.65,0c.47-.27.51-.63,0-.91L145,219Z"/><path class="cls-22" d="M151.05,224.79c3-1.71,6.39-.82,9.57,1s4.73,3.82,1.77,5.53-6.39.82-9.58-1S148.09,226.5,151.05,224.79Zm3.41,2c-1.43.83-1.23,1.75.13,2.53a4.25,4.25,0,0,0,4.38.07c1.43-.83,1.24-1.74-.12-2.53A4.29,4.29,0,0,0,154.46,226.76Z"/><path class="cls-22" d="M161.87,235.23,159.71,234l7.27-4.19,4.14,2.39L169,236l6.58-1.25,4.59,2.65-7.27,4.2-3.42-2,5-2.87-7.48,1.41-2.52-1.45,2.44-4.32Z"/><path class="cls-22" d="M183.54,247.74l-3.42-2,7.27-4.2,8.42,4.86c1.42.82,1.29,2-.1,2.81a5.18,5.18,0,0,1-4.87.06l-5-2.89Zm4-2.3,3.2,1.84a1.6,1.6,0,0,0,1.57,0c.47-.27.5-.63,0-.91l-3.2-1.84Z"/><path class="cls-22" d="M195.21,254.48l-3.42-2,7.27-4.2,3.42,2-2.79,1.62,4,2.29,2.79-1.62,3.42,2-7.27,4.19-3.42-2,2.8-1.61-4-2.29Z"/><path class="cls-22" d="M203.87,259.48l7.27-4.2,3.41,2-7.27,4.2Z"/><path class="cls-22" d="M221.11,267c-2.27,1.42-5-.15-7.73-1.73s-5.1-3.26-2.83-4.57l3.42,2c-.78.45,0,1.07,1,1.64s2,1.17,2.63.75c.84-.6-6.84-4.26-4.09-5.95,2.2-1.38,5,.06,7.71,1.64s5,3.2,2.75,4.51l-3.33-1.92c.78-.45,0-1.08-1-1.65s-1.92-1.11-2.53-.69C216.25,261.62,223.82,265.36,221.11,267Z"/><path class="cls-22" d="M223.45,270.79l-3.42-2,7.27-4.2,3.42,2-2.8,1.61,4,2.29,2.79-1.61,3.42,2-7.27,4.2-3.42-2,2.8-1.61-4-2.29Z"/><path class="cls-22" d="M232.1,275.78l7.27-4.19,3.42,2-7.27,4.2Z"/><path class="cls-22" d="M239,279.74l-2.16-1.25,7.27-4.2,4.05,2.34-.41,5.55,5-2.89,2.15,1.24-7.27,4.2-4.05-2.34.42-5.54Z"/><path class="cls-22" d="M252.19,283.18c3-1.71,6.49-.76,9.66,1.07,2.71,1.56,5,3.61,2.91,4.81l-3.54-2c.7-.5-.23-1.21-1.14-1.74a4.46,4.46,0,0,0-4.48-.13c-1.43.83-1.14,1.8.22,2.58a4.73,4.73,0,0,0,3.1.62L256.5,287l1.77-.72,5.69,3.29-4,2.33-1.71-1,1.18-.77a9.63,9.63,0,0,1-5.36-1.33C250.87,286.93,249.23,284.89,252.19,283.18Z"/><path class="cls-22" d="M20.24,159.47l-3.09,6.61-3.51-2,.49-1.05-4.84-2.79-1.82.28-2.42-1.4,11.45-1.78Zm-5.41,2,1.09-2.33-4,.63Z"/><path class="cls-22" d="M19.93,167.69l-2.16-1.25,7.27-4.2,4.05,2.34-.41,5.54,5-2.89,2.15,1.25-7.27,4.19-4.05-2.34.42-5.53Z"/><path class="cls-22" d="M29.85,173.41l7.27-4.2,7.47,4.32c2,1.17,1.87,3-.13,4.12a7.73,7.73,0,0,1-7.14.08Zm5.09,1,2.26,1.3a4.14,4.14,0,0,0,3.84,0c1.08-.63,1.16-1.59.07-2.22l-2.26-1.3Z"/><path class="cls-22" d="M49.93,185l-2.16-1.25,7.27-4.2L59.19,182,57,185.74l6.57-1.24,4.59,2.65-7.27,4.19-3.42-2,5-2.86L55,187.92l-2.52-1.46,2.45-4.32Z"/><path class="cls-22" d="M76.74,192.09l-3.08,6.61-3.51-2,.49-1.05-4.85-2.8-1.81.29-2.43-1.4L73,189.93Zm-5.4,2,1.09-2.33-4,.62Z"/><path class="cls-22" d="M85,196.84l-5.59,3.22,6.13,3.54-1.69,1-9.54-5.51,7.27-4.19Z"/><path class="cls-22" d="M85.44,205.5l4.43-5.83,3.42,2-2.67,3.52,6.09-1.54,2.79,1.61-2.67,3.52,6.1-1.54,2.24,1.29-10.11,2.56-3.41-2,2.18-2.87-5,1.26Z"/><path class="cls-22" d="M112.07,212.48,109,219.1l-3.51-2,.49-1-4.84-2.79-1.82.28-2.42-1.4,11.45-1.78Zm-5.41,2.05,1.09-2.33-4,.63Z"/><path class="cls-22" d="M113,221.43l-3.42-2,7.27-4.2,8.42,4.86c1.42.82,1.29,2-.1,2.81a5.58,5.58,0,0,1-4.35.27l-.52,2.44-3.43-2,.51-2.36-2.07-1.2Zm4-2.3,3.11,1.79a1.75,1.75,0,0,0,1.65,0c.47-.27.51-.63,0-.9l-3.19-1.85Z"/><path class="cls-22" d="M121.36,226.24l7.27-4.19,9.54,5.51-1.6.92-6.12-3.54-1.24.72,5.59,3.22-1.78.72-5.31-3.07-1.16.66,6.13,3.54-1.78,1Z"/><path class="cls-22" d="M152.51,235.84l-3.08,6.61-3.51-2,.49-1-4.84-2.79-1.82.28-2.43-1.4,11.46-1.78Zm-5.4,2,1.09-2.34-4,.63Z"/><path class="cls-22" d="M164.29,244.58l-3.52-2-5.58,3.22-3.42-2,5.59-3.22-3.51-2,1.68-1,10.44,6Z"/><path class="cls-22" d="M175,250.73l-3.52-2-5.58,3.23-3.42-2,5.59-3.23-3.51-2,1.68-1,10.44,6Z"/><path class="cls-22" d="M183.4,253.67l-3.09,6.61-3.51-2,.49-1-4.84-2.8-1.82.28-2.42-1.4,11.46-1.78ZM178,255.72l1.09-2.34-4,.63Z"/><path class="cls-22" d="M183.72,258.05c3-1.71,6.39-.82,9.57,1,2.93,1.69,4.31,3.41,2.23,5l-3.45-2c.68-.66.47-1.39-.65-2a4.09,4.09,0,0,0-4.29,0c-1.43.83-1.32,1.69,0,2.48a4.27,4.27,0,0,0,3.53.37l3.45,2c-2.76,1.2-5.75.41-8.67-1.28C182.3,261.74,180.76,259.76,183.72,258.05Z"/><path class="cls-22" d="M203.48,273.66l-4-2.29.55-3.2-2.48-.27-2,1.18-3.42-2,7.27-4.2,3.42,2-2.9,1.67,7.14.78,3.42,2-6.13-.66Z"/><path class="cls-22" d="M216.38,278.69c-2.27,1.42-5-.15-7.73-1.74s-5.1-3.25-2.83-4.56l3.41,2c-.78.45,0,1.08,1,1.65s2,1.17,2.62.74c.85-.59-6.83-4.25-4.08-5.94,2.2-1.38,5,.06,7.71,1.63s5,3.21,2.75,4.52L215.88,275c.78-.45,0-1.07-1-1.64s-1.93-1.11-2.53-.69C211.52,273.29,219.09,277,216.38,278.69Z"/><path class="cls-23" d="M334.08,147c0-1.58,1.33-2.85,2.63-4.07,1.64-1.55,3.19-3,2.52-5.1l.69-.22c.82,2.52-1.06,4.29-2.71,5.85-1.24,1.17-2.41,2.27-2.4,3.54Z"/><path class="cls-24" d="M339.25,140.88a11.12,11.12,0,0,0-7.06,20.82l-8.13,45.78a15.07,15.07,0,0,1-15.7,12.4c-.13,1.83-.28,4.22-.34,6.61a21.7,21.7,0,0,0,22.57-17.84l8.13-45.79a11.12,11.12,0,0,0,.53-22Zm2.47,11.73a4.48,4.48,0,1,1-3.63-5.2A4.48,4.48,0,0,1,341.72,152.61Z"/><path class="cls-25" d="M346.83,63.45c-.07.29-.14.58-.22.86-.91,3.6-2,6.75-3,9.52a47,47,0,0,0-2.1,6.81c-.62,3.33.24,2.42-.92,4.91a93.25,93.25,0,0,0-4.8,16.49c-2.67,14.59.72,25,3.2,32.54a47.91,47.91,0,0,1,2,7c.53,3.43.22,5.93-.94,7.43a4,4,0,0,1-2.84,1.53,3.25,3.25,0,0,1-.54,0,3.94,3.94,0,0,1-2.62-1.71,6.4,6.4,0,0,1,.62-.56,2.91,2.91,0,0,0,2.47,1.53,3.19,3.19,0,0,0,2.33-1.25c1-1.33,1.3-3.65.8-6.87a47,47,0,0,0-1.92-6.86c-2.5-7.65-5.94-18.13-3.23-32.9a98.21,98.21,0,0,1,5.27-17.76,1.84,1.84,0,0,0,.12-.66,20.07,20.07,0,0,1,.33-3,48.82,48.82,0,0,1,2.14-6.92,96.38,96.38,0,0,0,3.13-10c.09-.33.17-.67.24-1A55.82,55.82,0,0,0,347,41.14a76.47,76.47,0,0,0-1.8-8.42c-.79-2.95-3-9.43-3.14-9.88h0c-.56-1.67-1.22-3.38-2-5.14a98.27,98.27,0,0,0-9.29-16.08h.89a97.69,97.69,0,0,1,9.08,15.78,59.23,59.23,0,0,1,2.6,7A92.64,92.64,0,0,1,347.71,41,56.73,56.73,0,0,1,346.83,63.45Z"/><path class="cls-24" d="M306.6,219.68a15.08,15.08,0,0,1-12.19-17.46l1.31-7.37,4.29.79-7.44-21-4.69,26.42a21.72,21.72,0,0,0,17.56,25.15,21,21,0,0,0,2.58.28c.06-2.39.21-4.78.34-6.61C307.78,219.84,307.19,219.78,306.6,219.68Z"/></g></g></g></svg>