<svg width="24" height="24" viewBox="0 0 24 24" fill="none" xmlns="http://www.w3.org/2000/svg">
<path d="M7.64049 17.25C4.52519 17.25 2 14.7323 2 11.6249C2 8.51756 4.52538 6 7.64049 6C10.7556 6 13.2812 8.51832 13.2812 11.6249C13.2812 14.7315 10.7558 17.25 7.64049 17.25Z" fill="white"/>
<path d="M16.649 16.9201C15.0914 16.9201 13.8286 14.5488 13.8286 11.6251C13.8286 8.70137 15.0914 6.33008 16.649 6.33008C18.2065 6.33008 19.4693 8.70137 19.4693 11.6251C19.4693 14.5496 18.2065 16.9201 16.649 16.9201Z" fill="white"/>
<path d="M22 11.625C22 14.2452 21.5559 16.3691 21.0081 16.3691C20.4603 16.3691 20.0161 14.2444 20.0161 11.625C20.0161 9.00554 20.4603 6.88086 21.0083 6.88086C21.5562 6.88086 22 9.00497 22 11.625" fill="white"/>
</svg>
