<svg xmlns="http://www.w3.org/2000/svg" viewBox="0 0 35.97 36.61"><defs><style>.cls-1{fill:#055df5;}.cls-2{fill:#8dcaf1;}.cls-3{fill:#f20049;}.cls-4{fill:#fff;}</style></defs><g id="Layer_2" data-name="Layer 2"><g id="Layer_1-2" data-name="Layer 1"><polygon class="cls-1" points="25.17 4.39 25.17 27.79 24.07 28.67 1.09 28.67 0 27.79 0 4.39 1.09 3.5 24.07 3.5 25.17 4.39"/><path class="cls-2" d="M33.11,17.4H30.46V14.11H27.18V11.45h.34c1.3,0,3.76,0,5.06,0l.53.52Z"/><path class="cls-2" d="M33.11,36.12l-.45.45s-3.83,0-5.12,0h-.37V34h3.27V30.66h2.67Z"/><path class="cls-2" d="M33.11,27.62l-2.06,0h-.57V20.44h2.63Z"/><path class="cls-2" d="M8,30.67h2.64v3.27h3.29v2.67H8.41L8,36V30.67Z"/><path class="cls-2" d="M17,34h7.08V36.6H17Z"/><path class="cls-3" d="M34.06,1.89,30.78,0H27L23.7,1.89,22.77,3.5l-1,1.68V9l1.9,3.29,1.46.84L27,14.16h3.79l2.32-1.34,1-.55L36,9V5.18Zm-7.91,8.77-.85-.85L28,7.08,25.3,4.35l.85-.84,2.74,2.73,2.72-2.73.85.84L29.73,7.08l2.73,2.73-.85.85L28.89,7.93Z"/><polygon class="cls-4" points="29.73 7.08 32.46 9.81 31.61 10.66 28.89 7.93 26.15 10.66 25.3 9.81 28.03 7.08 25.3 4.35 26.15 3.51 28.89 6.24 31.61 3.51 32.46 4.35 29.73 7.08"/></g></g></svg>