<svg width="1512" height="373" viewBox="0 0 1512 373" fill="none" xmlns="http://www.w3.org/2000/svg">
<g opacity="0.05">
<g opacity="0.5" clip-path="url(#clip0_1809_48592)">
<path d="M588.34 196.12L588.34 98.0596L490.28 98.0596L490.28 196.12L588.34 196.12Z" fill="#0446B8"/>
<path d="M686.4 294.86L686.4 196.8L588.34 196.8L588.34 294.86L686.4 294.86Z" fill="#0446B8"/>
<path d="M686.4 98.06L686.4 0L588.34 -4.28634e-06L588.34 98.06L686.4 98.06Z" fill="#377DF7"/>
<path d="M882.51 294.86L882.51 196.8L784.45 196.8L784.45 294.86L882.51 294.86Z" fill="#0446B8"/>
<path d="M882.51 98.7397L882.51 0.679688L784.45 0.679683L784.45 98.7397L882.51 98.7397Z" fill="#0446B8"/>
<path d="M980.57 196.8L980.57 98.7402L882.51 98.7402L882.51 196.8L980.57 196.8Z" fill="#377DF7"/>
<path d="M1078.63 294.86L1078.63 196.8L980.57 196.8L980.57 294.86L1078.63 294.86Z" fill="#0446B8"/>
<path d="M1078.63 98.7397L1078.63 0.679688L980.57 0.679683L980.57 98.7397L1078.63 98.7397Z" fill="#0446B8"/>
<path d="M784.46 392.92L784.46 294.86L686.4 294.86L686.4 392.92L784.46 392.92Z" fill="#377DF7"/>
<path d="M98.0498 294.86L98.0498 196.8L-0.0101929 196.8L-0.0101972 294.86L98.0498 294.86Z" fill="#0446B8"/>
<path d="M294.17 294.86L294.17 196.8L196.11 196.8L196.11 294.86L294.17 294.86Z" fill="#377DF7"/>
<path d="M196.11 392.92L196.11 294.86L98.0499 294.86L98.0499 392.92L196.11 392.92Z" fill="#0446B8"/>
<path d="M392.23 392.92L392.23 294.86L294.17 294.86L294.17 392.92L392.23 392.92Z" fill="#0446B8"/>
<path d="M980.57 392.92L980.57 294.86L882.51 294.86L882.51 392.92L980.57 392.92Z" fill="#377DF7"/>
<path d="M392.23 196.8L392.23 98.7402L294.17 98.7402L294.17 196.8L392.23 196.8Z" fill="#0446B8"/>
</g>
<g opacity="0.5" clip-path="url(#clip1_1809_48592)">
<path d="M1345.12 294.86L1345.12 196.8L1443.18 196.8L1443.18 294.86L1345.12 294.86Z" fill="#0446B8"/>
<path d="M1345.12 98.7397L1345.12 0.679688L1443.18 0.679683L1443.18 98.7397L1345.12 98.7397Z" fill="#0446B8"/>
<path d="M1247.06 196.8L1247.06 98.7402L1345.12 98.7402L1345.12 196.8L1247.06 196.8Z" fill="#377DF7"/>
<path d="M1149 294.86L1149 196.8L1247.06 196.8L1247.06 294.86L1149 294.86Z" fill="#0446B8"/>
<path d="M1149 98.7397L1149 0.679688L1247.06 0.679683L1247.06 98.7397L1149 98.7397Z" fill="#0446B8"/>
<path d="M1443.17 392.92L1443.17 294.86L1541.23 294.86L1541.23 392.92L1443.17 392.92Z" fill="#377DF7"/>
<path d="M1247.06 392.92L1247.06 294.86L1345.12 294.86L1345.12 392.92L1247.06 392.92Z" fill="#377DF7"/>
</g>
</g>
<defs>
<clipPath id="clip0_1809_48592">
<rect width="687.09" height="1078.63" fill="white" transform="translate(1078.63) rotate(90)"/>
</clipPath>
<clipPath id="clip1_1809_48592">
<rect width="687.09" height="1078.63" fill="white" transform="matrix(4.37114e-08 1 1 -4.37114e-08 1149 0)"/>
</clipPath>
</defs>
</svg>
