<svg xmlns="http://www.w3.org/2000/svg" viewBox="0 0 37.57 37.57"><defs><style>.cls-1{fill:#055df5;}.cls-2{fill:#fff;}</style></defs><g id="Layer_2" data-name="Layer 2"><g id="Layer_1-2" data-name="Layer 1"><polygon class="cls-1" points="21.73 0 13.81 2.12 8.02 7.92 8 8 7.92 8.02 2.12 13.81 0 21.73 2.12 29.65 7.92 35.45 15.83 37.57 23.75 35.45 29.55 29.65 29.57 29.57 29.65 29.55 35.45 23.75 37.57 15.83 35.45 7.92 29.65 2.12 21.73 0"/><polygon class="cls-2" points="26.1 9.18 28.38 11.46 29.22 14.58 28.38 17.7 26.1 19.98 26.07 19.99 26.06 20.02 23.78 22.3 23.75 22.31 23.34 20.92 23.36 20.91 25.16 19.12 25.17 19.09 25.2 19.08 26.99 17.29 27.65 14.83 26.99 12.37 25.19 10.57 22.74 9.91 20.28 10.57 18.48 12.37 18.48 12.37 18.48 12.4 18.45 12.4 16.65 14.2 15.25 13.82 15.26 13.79 17.55 11.51 17.57 11.5 17.58 11.5 17.59 11.46 19.87 9.18 22.98 8.35 22.98 8.35 26.1 9.18"/><polygon class="cls-2" points="9.18 26.1 11.46 28.38 14.58 29.22 17.7 28.38 19.98 26.1 19.99 26.07 20.02 26.06 22.3 23.78 22.31 23.75 20.92 23.34 20.91 23.36 19.12 25.16 19.09 25.17 19.08 25.2 17.29 26.99 14.83 27.65 12.37 26.99 10.57 25.2 9.91 22.74 10.57 20.28 12.37 18.48 12.37 18.48 12.4 18.48 12.4 18.45 14.2 16.65 14.23 16.64 13.82 15.25 13.79 15.26 11.51 17.55 11.5 17.57 11.46 17.59 9.18 19.87 8.35 22.98 8.35 22.98 9.18 26.1"/><polygon class="cls-2" points="23.55 14.91 15.06 23.4 13.85 22.82 22.34 14.34 23.55 14.91"/></g></g></svg>