<svg width="99" height="111" viewBox="0 0 99 111" fill="none" xmlns="http://www.w3.org/2000/svg">
<path d="M55.4765 30.9397L55.1946 28.0155L53.204 25.7959L50.0155 24.8975L46.51 25.5316L43.6033 27.5575L42.0884 30.4112L42.3702 33.3531L44.3608 35.5551L47.5493 36.4711L51.0549 35.8193L53.9615 33.8111L55.4765 30.9397Z" fill="#F20049"/>
<path d="M56.9527 33.9163L56.6532 30.7102L54.4689 28.2968L50.9985 27.3103L47.1759 28.0149L44.005 30.2169L42.3491 33.3349L42.6662 36.541L44.833 38.9544L48.3033 39.9409L52.1436 39.2363L55.2968 37.0343L56.9527 33.9163Z" fill="#B50037"/>
<path d="M55.3702 33.8475L55.1236 31.346L53.4324 29.4611L50.7196 28.686L47.7249 29.2321L45.241 30.9585L43.9551 33.4071L44.1841 35.8909L45.8928 37.7935L48.6057 38.5686L51.6004 38.0225L54.0842 36.2961L55.3702 33.8475Z" fill="#F20049"/>
<path d="M56.6725 30.7298L55.3865 28.1931L53.2021 25.7974L54.4705 28.2988L56.6725 30.7298Z" fill="#8A0E32"/>
<path d="M50.9999 27.3108L50.0134 24.8975L46.5078 25.5316L47.1772 28.0155L50.9999 27.3108Z" fill="#8A0E32"/>
<path d="M44.0085 30.2193L43.6033 27.5593L42.0884 30.4131L42.3526 33.3373L44.0085 30.2193Z" fill="#8A0E32"/>
<path d="M29.102 50.7417L26.7943 50.9531L25.0503 52.5385L24.3457 55.04L24.839 57.7881L26.442 60.0781L28.6968 61.276L30.9869 61.047L32.7309 59.4792L33.4531 56.9777L32.9423 54.212L31.3568 51.9396L29.102 50.7417Z" fill="#13AA56"/>
<path d="M31.4316 49.5603L28.9301 49.8069L27.0276 51.5157L26.2349 54.2461L26.7986 57.2585L28.5426 59.7599L30.9912 61.0635L33.5102 60.8169L35.4128 59.1081L36.1879 56.3777L35.6418 53.3477L33.8978 50.8639L31.4316 49.5603Z" fill="#028B3F"/>
<path d="M31.3925 50.8108L29.4195 51.0046L27.9398 52.3434L27.3232 54.4749L27.7636 56.8354L29.1201 58.7908L31.0402 59.7949L32.9956 59.6188L34.4929 58.2799L35.0919 56.1484L34.6691 53.7879L33.3127 51.8325L31.3925 50.8108Z" fill="#02B954"/>
<path d="M28.9238 49.7898L26.9332 50.8115L25.0483 52.5379L27.0213 51.5162L28.9238 49.7898Z" fill="#0E7F40"/>
<path d="M26.2306 54.2483L24.3457 55.041L24.839 57.7891L26.7943 57.2606L26.2306 54.2483Z" fill="#0E7F40"/>
<path d="M28.5406 59.7595L26.4443 60.0766L28.6992 61.2745L30.9892 61.0631L28.5406 59.7595Z" fill="#0E7F40"/>
<path d="M44.1989 62.3493C46.0485 60.8695 47.5811 60.7638 50.7168 59.2313L51.6504 58.7556C54.0964 55.4628 56.3718 52.0467 58.4678 48.5208C59.9475 46.0193 61.2746 43.5942 62.449 41.2454C63.2304 39.9559 64.4305 38.9735 65.8488 38.4621C66.8635 38.0857 67.9668 38.0183 69.0197 38.2683C69.5008 38.4023 69.9626 38.5976 70.3937 38.8496C69.7067 40.3294 69.0021 41.8091 68.2975 43.2712C66.1835 47.7281 64.0696 52.0792 61.9205 56.4479C61.7026 56.9896 61.4435 57.5137 61.1454 58.0158C59.8932 60.1115 58.1136 61.8426 55.9839 63.0363C50.5758 66.1367 43.1948 65.0974 42.9305 63.7233C42.8777 63.3886 43.3181 63.0363 44.1989 62.3493Z" fill="#FF5A00"/>
<path d="M44.2324 63.9167L48.2136 62.754C51.0321 61.9613 53.7802 61.2567 56.4578 60.6225C60.2981 57.9978 64.3674 55.3377 68.648 52.7834C70.2687 51.7969 71.8894 50.8457 73.4924 49.9297L77.2622 47.7805C79.0719 47.1737 81.008 47.0463 82.8817 47.4106C83.2471 47.5237 83.601 47.6711 83.9387 47.851C84.7901 48.3452 85.4952 49.0564 85.9821 49.912L85.7883 50.2996L82.4413 52.5897L75.3949 57.3988C74.1442 58.2268 73.0696 58.949 71.537 60.0764C70.3744 60.922 69.5993 61.5562 69.3879 61.7147C68.6833 62.2608 64.6844 65.2379 51.772 66.7705C50.0104 66.9819 47.6851 67.2461 44.7256 67.4046C44.3403 67.1492 44.0339 66.7912 43.8409 66.3711C43.648 65.9509 43.5761 65.4853 43.6334 65.0265C43.7186 64.6054 43.9271 64.2191 44.2324 63.9167Z" fill="#FF7E00"/>
<path d="M45.6986 64.8328L60.5488 63.4764C65.2875 62.208 69.3568 61.1687 72.2986 60.4112C75.6633 59.548 77.4425 59.1076 79.6973 58.6496C82.7625 57.9626 85.352 57.4869 87.1665 57.1699C88.0283 57.1363 88.8901 57.2373 89.7208 57.4693C90.4164 57.6692 91.0806 57.9656 91.6938 58.3501C92.4448 58.7768 93.0998 59.3537 93.6181 60.0447C94.1364 60.7357 94.5067 61.5261 94.7061 62.3665L94.389 62.7189L81.547 66.3301C80.6838 66.5768 79.4683 66.9291 78.0238 67.3871C76.8964 67.7394 74.7649 68.4088 72.5453 69.272C69.7443 70.3642 67.8418 71.3683 67.2605 71.6678C61.0949 74.6801 47.4426 75.1909 45.0997 70.2233C44.624 69.3072 44.3069 67.6866 45.6986 64.8328Z" fill="#FF9100"/>
<path d="M23.6226 88.5792L19.9585 91.5387L14.7794 96.8234L13.4934 98.1446C10.5868 100.206 5.77767 98.6555 2.62442 94.6214C-0.176514 91.0983 -0.740223 86.6414 1.02137 84.0519L2.13117 82.9245L19.9056 64.7625L23.6226 88.5792Z" fill="#FFA600"/>
<path d="M44.2026 61.6972L44.5726 59.1253L46.4222 57.258L49.2584 56.5886L52.3412 57.2933L54.8074 59.2134L56.0229 61.7853L55.653 64.3572L53.8033 66.2245L50.9495 66.8939L47.8844 66.1717L45.4181 64.2692L44.2026 61.6972Z" fill="#055DF5"/>
<path d="M42.7515 64.2505L43.1566 61.432L45.1825 59.4061L48.2829 58.6663L51.6299 59.459L54.3251 61.5377L55.6463 64.3562L55.2588 67.1571L53.2329 69.2006L50.1149 69.9228L46.7679 69.1477L44.0727 67.0691L42.7515 64.2505Z" fill="#0446B8"/>
<path d="M44.1641 64.2518L44.4811 62.0674L46.049 60.4643L48.48 59.9006L51.1047 60.5172L53.2186 62.1379L54.258 64.3398L53.9409 66.5418L52.3555 68.1273L49.9245 68.7086L47.2997 68.092L45.2034 66.4714L44.1641 64.2518Z" fill="#055DF5"/>
<path d="M43.1455 61.4504L44.3962 59.266L46.4221 57.2578L45.189 59.4069L43.1455 61.4504Z" fill="#377DF7"/>
<path d="M48.2881 58.6673L49.257 56.5886L52.3397 57.2933L51.6351 59.46L48.2881 58.6673Z" fill="#377DF7"/>
<path d="M54.3291 61.5397L54.8047 59.2144L56.0202 61.7863L55.6503 64.3582L54.3291 61.5397Z" fill="#377DF7"/>
<path d="M98.2127 80.017L98.4769 79.5238C98.5079 79.0898 98.5079 78.6541 98.4769 78.2202C98.3878 77.664 98.2341 77.1201 98.0189 76.5995C97.8287 76.1512 97.5988 75.7208 97.3319 75.3135C96.2969 74.1332 94.9738 73.2411 93.4916 72.724C91.4834 72.3893 89.4399 72.0546 87.326 71.7551C85.2121 71.4557 82.693 71.1033 80.4558 70.8567C76.4746 70.8567 72.2292 70.6277 67.7371 70.2402C61.9445 69.9342 56.1875 69.1446 50.5264 67.8796C48.3841 67.3853 46.5149 66.0841 45.3075 64.2467C44.1 62.4094 43.6474 60.1773 44.0437 58.0147C45.1472 54.7956 46.5509 51.6874 48.2363 48.7311C49.9979 45.7012 51.8828 43.0236 52.1823 39.4651C52.2614 38.6391 52.2614 37.8074 52.1823 36.9813C52.1061 35.9106 51.6353 34.9062 50.8611 34.1628C50.3026 33.7759 49.6471 33.5528 48.9685 33.5186C48.29 33.4843 47.6154 33.6403 47.0208 33.969C45.0082 35.2041 43.37 36.9641 42.2821 39.06C40.5205 41.7728 38.7589 44.4857 37.1911 47.269C36.3808 48.6607 35.6233 50.0699 34.8482 51.4792C34.326 52.6558 33.4989 53.6715 32.4524 54.4211C28.6307 56.7155 25.0844 59.4403 21.8829 62.542C18.2188 66.4704 14.3961 72.0898 17.3908 81.1444C18.524 84.2824 20.7337 86.9167 23.6268 88.5783L46.9327 81.7257L66.1869 79.4709C74.1145 79.0558 82.0584 79.0558 89.986 79.4709C92.787 79.5942 95.535 79.7704 98.2127 80.017Z" fill="#FFA600"/>
<path d="M14.7814 96.8757C14.4962 97.3244 14.1391 97.7232 13.7244 98.0559L13.4954 98.1968C10.5888 100.258 5.76204 98.7077 2.60879 94.6737C-0.192139 91.0624 -0.755848 86.6937 1.00574 84.1041C1.28436 83.7025 1.62301 83.346 2.00985 83.0472H2.11555C5.02217 80.9156 9.9194 82.4658 13.1079 86.5703C15.856 89.9878 16.4549 94.3037 14.7814 96.8757Z" fill="#FFA600"/>
<path d="M30.388 35.08L29.789 0.5H28.7144H27.6399L27.0233 35.08L25.0327 36.3132L28.7144 42.5668L32.3962 36.3132L30.388 35.08Z" fill="url(#paint0_linear_364_7117)"/>
<path opacity="0.6" d="M77.2288 47.4112L76.6122 0.5H75.5553H74.4807L73.8641 47.4112L71.8735 48.6619L75.5553 54.898L79.237 48.6619L77.2288 47.4112Z" fill="url(#paint1_linear_364_7117)"/>
<path d="M72.4578 18.6106L74.5893 20.1608L77.2669 20.1432L79.7684 18.5401L81.4243 15.8097L81.8118 12.6564L80.7901 9.92593L78.6586 8.37573L75.9809 8.39335L73.4619 9.9964L71.806 12.7269L71.436 15.8801L72.4578 18.6106Z" fill="#FFBE00"/>
<path d="M69.5478 18.4871L71.8731 20.1958L74.7798 20.1606L77.5278 18.4342L79.3423 15.4395L79.7474 11.9868L78.6376 9.00973L76.2947 7.3186L73.3881 7.33622L70.64 9.0802L68.8432 12.0749L68.4204 15.5276L69.5478 18.4871Z" fill="#FFBE00"/>
<path d="M70.5341 17.4462L72.3485 18.785L74.6386 18.7674L76.7701 17.411L78.197 15.0681L78.5141 12.3728L77.6333 10.0475L75.8189 8.72632L73.5288 8.74393L71.3973 10.1004L69.988 12.4433L69.6709 15.1385L70.5341 17.4462Z" fill="#F7931E"/>
<path d="M80.7884 9.92576L78.6569 8.37556L76.2964 7.3186L78.6393 9.00973L80.7884 9.92576Z" fill="#FFDE2D"/>
<path d="M77.264 20.1401L74.7802 20.1578L71.8735 20.193" fill="#FFDE2D"/>
<g style="mix-blend-mode:multiply" opacity="0.5">
<path d="M81.813 12.6558L80.7912 9.92531L78.6421 9.00928L79.7519 11.9864L81.813 12.6558Z" fill="#FFDE2D"/>
</g>
<path d="M74.7793 20.1603L77.2631 20.1427L79.7646 18.5396L77.5626 18.3811L74.7793 20.1603Z" fill="#FFDE2D"/>
<g style="mix-blend-mode:multiply" opacity="0.4">
<path d="M77.5625 18.3813L79.7645 18.5399L81.4204 15.8094L79.3417 15.4395L77.5625 18.3813Z" fill="#FFDE2D"/>
</g>
<g style="mix-blend-mode:overlay" opacity="0.67">
<path d="M79.3442 15.439L81.4229 15.809L81.8105 12.6557L79.7494 11.9863L79.3442 15.439Z" fill="#FFDE2D"/>
</g>
<defs>
<linearGradient id="paint0_linear_364_7117" x1="28.0627" y1="15.3502" x2="28.9082" y2="42.8134" gradientUnits="userSpaceOnUse">
<stop stop-color="white" stop-opacity="0"/>
<stop offset="1" stop-color="#055DF5"/>
</linearGradient>
<linearGradient id="paint1_linear_364_7117" x1="74.6392" y1="19.719" x2="75.749" y2="55.2327" gradientUnits="userSpaceOnUse">
<stop stop-color="white" stop-opacity="0"/>
<stop offset="1" stop-color="#055DF5"/>
</linearGradient>
</defs>
</svg>
