<svg xmlns="http://www.w3.org/2000/svg" viewBox="0 0 35.5 33.7"><defs><style>.cls-1{fill:#ffbe00;}.cls-2{fill:#02b954;}.cls-3{fill:#fff;}.cls-4{fill:none;stroke:#f7931e;stroke-linecap:round;stroke-linejoin:round;stroke-width:2px;}</style></defs><g id="Layer_2" data-name="Layer 2"><g id="Layer_1-2" data-name="Layer 1"><polygon class="cls-1" points="23.41 1.51 15.72 1.51 9.06 5.36 5.21 12.02 5.21 19.71 9.06 26.37 15.72 30.21 23.41 30.21 30.07 26.37 33.91 19.71 33.91 12.02 30.07 5.36 23.41 1.51"/><path class="cls-2" d="M11.58,2.81C9.89,2,8.24,1,6.57.11a.62.62,0,0,0-.68,0Q3.18,1.58.47,3A.76.76,0,0,0,0,3.77,13,13,0,0,0,1.22,8.91,13.18,13.18,0,0,0,5.4,14.32c.91.64.72.68,1.6,0a14.14,14.14,0,0,0,5.38-10C12.58,3.5,12.23,3.13,11.58,2.81ZM9.89,5.69a4.29,4.29,0,0,1-.54.59L6.59,9.12A1,1,0,0,1,5,9.16c-.48-.44-1-.88-1.44-1.34a1,1,0,0,1-.1-1.37.92.92,0,0,1,1.37,0l.44.41c.14.13.28.25.33.31.91-.84,1.78-1.67,2.66-2.49a1.6,1.6,0,0,1,.57-.37.85.85,0,0,1,1,.36A.87.87,0,0,1,9.89,5.69Z"/><path class="cls-3" d="M9.89,5.69a4.29,4.29,0,0,1-.54.59L6.59,9.12A1,1,0,0,1,5,9.16c-.48-.44-1-.88-1.44-1.34a1,1,0,0,1-.1-1.37.92.92,0,0,1,1.37,0l.44.41c.14.13.28.25.33.31.91-.84,1.78-1.67,2.66-2.49a1.6,1.6,0,0,1,.57-.37.85.85,0,0,1,1,.36A.87.87,0,0,1,9.89,5.69Z"/><path class="cls-4" d="M23,11.08H17.4a2.78,2.78,0,0,0-2.29,2.59c-.07,1.31,1,2.83,2.1,2.83h4.24a2.62,2.62,0,0,1,2.52,3c-.32,1.5-1.42,2.43-2.15,2.43H16.3"/><line class="cls-4" x1="19.77" y1="9.37" x2="19.77" y2="10.99"/><path class="cls-2" d="M2.12,22.43l1.27-.73A13.11,13.11,0,0,1,10,19.93H20a1.9,1.9,0,0,1,1.9,1.9h0a1.9,1.9,0,0,1-1.9,1.9H14.05l-.45.69a2.44,2.44,0,0,0,.75,3.43h0a2.25,2.25,0,0,0,.91.33h8.6a4.41,4.41,0,0,0,3-1.19l4.58-4.24a2.45,2.45,0,0,1,3.21.07h0a2.45,2.45,0,0,1,0,3.65L30.4,30.25a13.87,13.87,0,0,1-9.15,3.45H14.64a19.61,19.61,0,0,1-8.25-1.82L3.44,30.51H0V22.46Z"/></g></g></svg>