<svg width="99" height="103" viewBox="0 0 99 103" fill="none" xmlns="http://www.w3.org/2000/svg">
<g clip-path="url(#clip0_389_7132)">
<path d="M17.5396 37.3168L24.5714 17.5797L81.7054 2.85669L17.5396 37.3168Z" fill="#055DF5"/>
<path d="M21.8745 50.5016L17.5396 37.3169L81.7054 2.85669L21.8745 50.5016Z" fill="#0446B8"/>
<path d="M35.9585 41.472L38.2158 38.935L38.4955 35.4989L36.7575 32.1228L33.4613 29.6857L29.4859 28.8267L25.8901 29.8055L23.6527 32.3426L23.353 35.7586L25.091 39.1347L28.3872 41.5919L32.3826 42.4309L35.9585 41.472Z" fill="#13AA56"/>
<path d="M34.6396 45.048L37.0967 42.2912L37.4164 38.5555L35.5186 34.8598L31.9227 32.1829L27.5678 31.2639L23.6523 32.3227L21.1951 35.0795L20.8755 38.8152L22.7733 42.5109L26.3691 45.1878L30.7241 46.1068L34.6396 45.048Z" fill="#028B3F"/>
<path d="M33.4414 43.6696L35.3592 41.4921L35.5989 38.5755L34.1206 35.6988L31.3039 33.6012L27.9078 32.8821L24.8513 33.7011L22.9335 35.8786L22.6738 38.7952L24.1721 41.6719L26.9888 43.7695L30.3849 44.4887L33.4414 43.6696Z" fill="#02B954"/>
<path d="M37.0972 42.3112L38.2159 39.2147L38.4956 35.499L37.4168 38.5555L37.0972 42.3112Z" fill="#0E7F40"/>
<path d="M35.5187 34.8598L36.7573 32.123L33.4611 29.6858L31.9229 32.1829L35.5187 34.8598Z" fill="#0E7F40"/>
<path d="M27.5678 31.2638L29.4856 28.8267L25.8898 29.8055L23.6523 32.3226L27.5678 31.2638Z" fill="#0E7F40"/>
<path d="M36.1782 29.326L36.2981 26.0698L38.3757 23.4928L41.8317 22.2742L45.7472 22.7536L49.0833 24.8112L50.9412 27.8677L50.8213 31.1239L48.7637 33.701L45.2877 34.9195L41.3722 34.4201L38.0361 32.3825L36.1782 29.326Z" fill="#FFBE00"/>
<path d="M34.0806 32.2226L34.2004 28.6668L36.4578 25.87L40.2335 24.5515L44.5085 25.0709L48.1443 27.3083L50.182 30.6445L50.0421 34.2004L47.7847 37.0171L44.0291 38.3356L39.734 37.7962L36.0982 35.5588L34.0806 32.2226Z" fill="#FFBE00"/>
<path d="M35.8384 32.0628L35.9383 29.2861L37.6962 27.0886L40.6528 26.0498L43.989 26.4693L46.8257 28.2073L48.4238 30.8243L48.324 33.6011L46.566 35.7985L43.6094 36.8174L40.2733 36.4178L37.4166 34.6598L35.8384 32.0628Z" fill="#F7931E"/>
<path d="M50.941 27.8677L50.8211 31.1239L50.042 34.2004L50.1818 30.6445L50.941 27.8677Z" fill="#FFDE2D"/>
<path d="M38.3754 23.4929L36.4576 25.8702L34.2002 28.6669" fill="#FFDE2D"/>
<g style="mix-blend-mode:multiply" opacity="0.5">
<path d="M49.083 24.8113L50.9408 27.8677L50.1817 30.6445L48.144 27.3084L49.083 24.8113Z" fill="#FFDE2D"/>
</g>
<path d="M36.4575 25.87L38.3753 23.4928L41.8313 22.2742L40.2931 24.5316L36.4575 25.87Z" fill="#FFDE2D"/>
<g style="mix-blend-mode:multiply" opacity="0.4">
<path d="M40.2935 24.5316L41.8317 22.2742L45.7472 22.7536L44.5086 25.0709L40.2935 24.5316Z" fill="#FFDE2D"/>
</g>
<g style="mix-blend-mode:overlay" opacity="0.67">
<path d="M44.5083 25.071L45.7469 22.7537L49.083 24.8113L48.1441 27.3084L44.5083 25.071Z" fill="#FFDE2D"/>
</g>
<path d="M56.115 24.5317L57.2937 22.8736L57.2537 20.816L55.9951 18.9182L53.8776 17.6796L51.4604 17.4199L49.3828 18.219L48.2241 19.8771L48.2641 21.9347L49.5026 23.8325L51.6202 25.0711L54.0374 25.3308L56.115 24.5317Z" fill="#F20049"/>
<path d="M55.5558 26.7291L56.8344 24.9312L56.7944 22.6938L55.436 20.6162L53.1187 19.2577L50.4817 18.998L48.2243 19.877L46.9458 21.675L46.9858 23.9124L48.3442 25.99L50.6615 27.3484L53.2985 27.6081L55.5558 26.7291Z" fill="#B50037"/>
<path d="M54.7566 25.99L55.7555 24.5717L55.7155 22.8337L54.6568 21.2155L52.8588 20.1568L50.7812 19.937L49.0233 20.6162L48.0244 22.0346L48.0444 23.7726L49.1231 25.3907L50.9211 26.4495L52.9787 26.6692L54.7566 25.99Z" fill="#F20049"/>
<path d="M56.8344 24.9511L57.3138 23.0533L57.2539 20.8159L56.7944 22.6937L56.8344 24.9511Z" fill="#8A0E32"/>
<path d="M55.436 20.616L55.9953 18.918L53.8778 17.6794L53.1187 19.2576L55.436 20.616Z" fill="#8A0E32"/>
<path d="M50.4815 18.9981L51.4604 17.4199L49.3828 18.219L48.2241 19.8771L50.4815 18.9981Z" fill="#8A0E32"/>
<path d="M11.0672 58.9119L81.7056 2.85669C81.7056 2.85669 11.9662 86.0805 -0.439453 91.4943L11.0672 58.9119Z" fill="#055DF5"/>
<path d="M15.0023 54.3372L12.4053 55.2761L9.92817 57.4336L8.23014 60.2503L6.47217 62.9672L8.62967 64.7851L10.6473 65.3245L13.2244 64.3855L15.7015 62.228L17.3995 59.4313L17.879 56.7344L17 54.8765L15.0023 54.3372Z" fill="#0446B8"/>
<path d="M12.8449 52.5193L10.2479 53.4582L7.77075 55.6157L6.07271 58.4324L5.59326 61.1094L6.47225 62.9672L8.46994 63.5066L11.0669 62.5677L13.5441 60.4102L15.2421 57.6134L15.7216 54.9165L14.8426 53.0587L12.8449 52.5193Z" fill="#0446B8"/>
<path d="M12.3653 53.718L10.3277 54.4572L8.38993 56.1552L7.07146 58.3327L6.69189 60.4502L7.37111 61.8886L8.94929 62.3081L10.967 61.5689L12.9047 59.8909L14.2432 57.6934L14.6227 55.5958L13.9235 54.1375L12.3653 53.718Z" fill="#055DF5"/>
<path d="M17.8793 56.7343L16.9803 54.8565L14.8428 53.0586L15.7218 54.9164L17.8793 56.7343Z" fill="#032F7B"/>
<path d="M10.6473 65.3246L8.62968 64.7852L6.47217 62.9673L8.46986 63.5067L10.6473 65.3246Z" fill="#055DF5"/>
<path d="M15.7015 62.2281L13.2244 64.3856L11.0669 62.5677L13.544 60.4102L15.7015 62.2281Z" fill="#055DF5"/>
<path d="M15.7015 62.2282L17.3995 59.4314L15.242 57.6135L13.5439 60.4103L15.7015 62.2282Z" fill="#032F7B"/>
<path d="M13.2247 64.3855L10.6477 65.3244L8.47021 63.5065L11.0672 62.5676L13.2247 64.3855Z" fill="#032F7B"/>
<path d="M17.3997 59.4313L17.8791 56.7344L15.7216 54.9165L15.2422 57.6134L17.3997 59.4313Z" fill="#055DF5"/>
<path opacity="0.6" d="M40.5332 78.2295L-0.439453 103.36L19.6373 103.181L45.927 84.2626L48.1244 85.581L56.5547 71.9568L42.0315 74.6736L40.5332 78.2295Z" fill="url(#paint0_linear_389_7132)"/>
<path opacity="0.6" d="M72.416 39.6741L13.1245 82.4446L13.3443 83.5434L13.584 84.6221L73.1551 43.0902L75.0729 44.069L81.7652 34.9995L73.4747 36.5777L72.416 39.6741Z" fill="url(#paint1_linear_389_7132)"/>
<path opacity="0.6" d="M18.858 4.65462L-11.0674 29.7856V33.1617L19.5972 8.09065L21.515 9.06952L28.2072 0L19.9168 1.57818L18.858 4.65462Z" fill="url(#paint2_linear_389_7132)"/>
<path opacity="0.6" d="M92.9125 54.2972L60.8496 76.3118L60.9695 76.8911L61.0694 77.4904L93.2521 56.1151L94.271 56.6745L97.9467 51.9399L93.5118 52.6591L92.9125 54.2972Z" fill="url(#paint3_linear_389_7132)"/>
</g>
<defs>
<linearGradient id="paint0_linear_389_7132" x1="20.323" y1="96.845" x2="59.5806" y2="92.1658" gradientUnits="userSpaceOnUse">
<stop stop-color="white" stop-opacity="0"/>
<stop offset="1" stop-color="#055DF5"/>
</linearGradient>
<linearGradient id="paint1_linear_389_7132" x1="37.8395" y1="68.2315" x2="86.8037" y2="59.1773" gradientUnits="userSpaceOnUse">
<stop stop-color="white" stop-opacity="0"/>
<stop offset="1" stop-color="#055DF5"/>
</linearGradient>
<linearGradient id="paint2_linear_389_7132" x1="2.75225" y1="20.1139" x2="31.4783" y2="14.8228" gradientUnits="userSpaceOnUse">
<stop stop-color="white" stop-opacity="0"/>
<stop offset="1" stop-color="#055DF5"/>
</linearGradient>
<linearGradient id="paint3_linear_389_7132" x1="73.9129" y1="69.1121" x2="99.9293" y2="64.9044" gradientUnits="userSpaceOnUse">
<stop stop-color="white" stop-opacity="0"/>
<stop offset="1" stop-color="#055DF5"/>
</linearGradient>
<clipPath id="clip0_389_7132">
<rect width="98.5" height="102.927" fill="white"/>
</clipPath>
</defs>
</svg>
