<svg xmlns="http://www.w3.org/2000/svg" viewBox="0 0 37.14 36.57"><defs><style>.cls-1{fill:#055df5;}.cls-2{fill:#8dcaf1;}.cls-3{fill:#032f7b;}.cls-4{fill:#fff;}</style></defs><g id="Layer_2" data-name="Layer 2"><g id="Layer_1-2" data-name="Layer 1"><polygon class="cls-1" points="18.73 22.85 28.24 10.01 26.58 8.78 17.12 21.56 1.15 16.88 32.98 0 34.13 0.14 27.74 36.57 26.59 36.43 18.73 22.85"/><polygon class="cls-2" points="17.58 22.71 27.09 9.88 25.43 8.65 15.97 21.42 0 16.74 32.98 0 26.59 36.43 17.58 22.71"/><path class="cls-3" d="M36.18,19.57c-1.89-.95-3.73-2-5.6-3a.7.7,0,0,0-.76,0c-2,1.1-4,2.19-6.05,3.26a.84.84,0,0,0-.52.85,14.19,14.19,0,0,0,1.37,5.73,14.6,14.6,0,0,0,4.66,6c1,.72.8.76,1.79,0a15.85,15.85,0,0,0,6-11.21C37.29,20.34,36.9,19.93,36.18,19.57Zm-1.89,3.22a4.1,4.1,0,0,1-.6.65L30.6,26.62a1.07,1.07,0,0,1-1.72.05c-.54-.49-1.08-1-1.61-1.5a1.07,1.07,0,0,1-.12-1.53,1,1,0,0,1,1.53,0c.18.15.34.3.5.45l.37.35c1-.94,2-1.87,3-2.78a2,2,0,0,1,.63-.42,1,1,0,0,1,1.14.4A1,1,0,0,1,34.29,22.79Z"/><path class="cls-4" d="M34.29,22.79a4.1,4.1,0,0,1-.6.65L30.6,26.62a1.07,1.07,0,0,1-1.72.05c-.54-.49-1.08-1-1.61-1.5a1.07,1.07,0,0,1-.12-1.53,1,1,0,0,1,1.53,0c.18.15.34.3.5.45l.37.35c1-.94,2-1.87,3-2.78a2,2,0,0,1,.63-.42,1,1,0,0,1,1.14.4A1,1,0,0,1,34.29,22.79Z"/></g></g></svg>