<svg width="62" height="62" viewBox="0 0 62 62" fill="none" xmlns="http://www.w3.org/2000/svg">
<circle cx="31" cy="31" r="31" fill="#055DF5"/>
<path d="M20.4127 44.7012V38.3999C20.4127 37.1396 20.6227 36.0369 21.0428 35.0917C21.4891 34.1203 22.1718 33.267 23.0907 32.5318C24.0359 31.7967 25.2568 31.1141 26.7533 30.4839L31.1248 28.6329C32.2538 28.1603 33.0677 27.5958 33.5666 26.9395C34.0917 26.2831 34.3542 25.456 34.3542 24.4583C34.3542 23.5394 34.0392 22.7649 33.409 22.1347C32.8052 21.4784 31.9125 21.1502 30.731 21.1502C29.5233 21.1502 28.6174 21.4915 28.0136 22.1741C27.4097 22.8305 27.1078 23.7232 27.1078 24.8522H20.0188C20.0188 22.9618 20.4258 21.2814 21.2397 19.8112C22.0536 18.3409 23.2482 17.1856 24.8236 16.3455C26.4251 15.5053 28.3943 15.0852 30.731 15.0852C33.0415 15.0852 34.9844 15.4922 36.5597 16.3061C38.1612 17.0937 39.369 18.1833 40.1829 19.5749C41.0231 20.9401 41.4432 22.4892 41.4432 24.222V24.6946C41.4432 26.9263 40.8393 28.7642 39.6315 30.2082C38.4238 31.6523 36.4809 32.9519 33.8029 34.1072L29.4314 35.9582C28.8012 36.2207 28.3286 36.5095 28.0136 36.8246C27.7248 37.1396 27.5804 37.5597 27.5804 38.0848V39.5026L25.8869 38.3999H41.3644V44.7012H20.4127Z" fill="white"/>
</svg>
