<svg width="62" height="62" viewBox="0 0 62 62" fill="none" xmlns="http://www.w3.org/2000/svg">
<circle cx="31" cy="31" r="31" fill="#0446B8"/>
<path d="M30.5744 45.4888C28.3164 45.4888 26.3473 45.0819 24.6669 44.268C22.9866 43.4278 21.687 42.2988 20.768 40.881C19.8754 39.437 19.429 37.796 19.429 35.9582H26.5179C26.5179 36.9821 26.8724 37.8223 27.5813 38.4787C28.2902 39.1088 29.2879 39.4239 30.5744 39.4239C31.4408 39.4239 32.176 39.2663 32.7798 38.9513C33.3837 38.6099 33.8432 38.1636 34.1582 37.6122C34.4733 37.0346 34.6308 36.3914 34.6308 35.6825C34.6308 34.606 34.2764 33.7133 33.5675 33.0044C32.8849 32.2955 31.8872 31.9411 30.5744 31.9411C29.813 31.9411 29.1303 32.0592 28.5265 32.2955C27.9489 32.5318 27.45 32.8338 27.0299 33.2014L23.7611 27.7665L31.7165 22.883L31.362 22.2529H20.6499V15.9516H40.6564V22.2135L30.2987 28.5148L26.9905 27.2939C27.5419 27.1364 28.1195 27.0182 28.7234 26.9395C29.3535 26.8607 29.9968 26.8213 30.6532 26.8213C32.9111 26.8213 34.8671 27.1758 36.5212 27.8847C38.1753 28.5935 39.4487 29.6175 40.3414 30.9565C41.2603 32.2693 41.7198 33.8446 41.7198 35.6825V36.1551C41.7198 37.9667 41.2603 39.5814 40.3414 40.9992C39.4487 42.3907 38.1622 43.4934 36.4818 44.3073C34.8277 45.095 32.8586 45.4888 30.5744 45.4888Z" fill="white"/>
</svg>
