<svg width="24" height="24" viewBox="0 0 24 24" fill="none" xmlns="http://www.w3.org/2000/svg">
<path d="M3.3749 10.9541C8.74359 8.67445 12.3236 7.17154 14.1148 6.44541C19.2292 4.37216 20.2919 4.01202 20.9846 4.00013C21.1369 3.99751 21.4776 4.03431 21.6982 4.2088C21.8845 4.35615 21.9358 4.55518 21.9603 4.69488C21.9848 4.83457 22.0154 5.1528 21.9911 5.40146C21.714 8.23958 20.5147 15.1269 19.9046 18.3057C19.6465 19.6507 19.1382 20.1017 18.6461 20.1458C17.5766 20.2418 16.7645 19.457 15.7287 18.7952C14.1078 17.7597 13.1921 17.1151 11.6188 16.1046C9.80053 14.9368 10.9792 14.295 12.0154 13.2461C12.2866 12.9715 16.9987 8.79434 17.0899 8.4154C17.1013 8.368 17.1119 8.19135 17.0042 8.09807C16.8965 8.00479 16.7376 8.03668 16.6229 8.06205C16.4604 8.09801 13.871 9.76604 8.85486 13.0661C8.11988 13.558 7.45416 13.7977 6.8577 13.7851C6.20015 13.7713 4.93528 13.4228 3.99498 13.1249C2.84166 12.7595 1.92503 12.5663 2.00485 11.9458C2.04642 11.6226 2.5031 11.292 3.3749 10.9541Z" fill="url(#paint0_linear_512_9339)"/>
<defs>
<linearGradient id="paint0_linear_512_9339" x1="2.07417" y1="4" x2="2.07417" y2="20.034" gradientUnits="userSpaceOnUse">
<stop stop-color="#2AABEE"/>
<stop offset="1" stop-color="#229ED9"/>
</linearGradient>
</defs>
</svg>
