<svg xmlns="http://www.w3.org/2000/svg" xmlns:xlink="http://www.w3.org/1999/xlink" viewBox="0 0 280 296"><defs><style>.cls-1{isolation:isolate;}.cls-2{fill:#ccf1dd;}.cls-3{fill:url(#Áåçûìÿííûé_ãðàäèåíò_526);}.cls-4{fill:#02b954;}.cls-5{fill:#d0478c;}.cls-11,.cls-12,.cls-14,.cls-15,.cls-5,.cls-6,.cls-7,.cls-8,.cls-9{mix-blend-mode:multiply;}.cls-11,.cls-12,.cls-14,.cls-15,.cls-6,.cls-7,.cls-8{opacity:0.85;}.cls-6{fill:url(#Áåçûìÿííûé_ãðàäèåíò_393);}.cls-7{fill:url(#Áåçûìÿííûé_ãðàäèåíò_393-2);}.cls-8{fill:url(#Áåçûìÿííûé_ãðàäèåíò_393-3);}.cls-9{fill:#d177b8;opacity:0.6;}.cls-10{fill:url(#Áåçûìÿííûé_ãðàäèåíò_76);}.cls-11{fill:url(#Áåçûìÿííûé_ãðàäèåíò_393-4);}.cls-12{fill:url(#Áåçûìÿííûé_ãðàäèåíò_393-5);}.cls-13{fill:url(#Áåçûìÿííûé_ãðàäèåíò_76-2);}.cls-14{fill:url(#Áåçûìÿííûé_ãðàäèåíò_393-6);}.cls-15{fill:url(#Áåçûìÿííûé_ãðàäèåíò_393-7);}.cls-16{fill:url(#Áåçûìÿííûé_ãðàäèåíò_99);}.cls-17{stroke:#000;}.cls-17,.cls-18{stroke-miterlimit:10;}.cls-18{fill:#1a1a1a;stroke:#1a1a1a;stroke-width:0;}</style><linearGradient id="Áåçûìÿííûé_ãðàäèåíò_526" x1="139.21" y1="296" x2="139.21" y2="221.05" gradientUnits="userSpaceOnUse"><stop offset="0" stop-color="#c34433"/><stop offset="0.08" stop-color="#b73b31"/><stop offset="0.31" stop-color="#9b272c"/><stop offset="0.54" stop-color="#871828"/><stop offset="0.77" stop-color="#7b0f26"/><stop offset="1" stop-color="#770c25"/></linearGradient><linearGradient id="Áåçûìÿííûé_ãðàäèåíò_393" x1="161.69" y1="278.49" x2="161.69" y2="230.92" gradientUnits="userSpaceOnUse"><stop offset="0" stop-color="#ffe9da"/><stop offset="0.99" stop-color="#b44cf3"/></linearGradient><linearGradient id="Áåçûìÿííûé_ãðàäèåíò_393-2" x1="179.57" y1="290.2" x2="179.57" y2="272.07" xlink:href="#Áåçûìÿííûé_ãðàäèåíò_393"/><linearGradient id="Áåçûìÿííûé_ãðàäèåíò_393-3" x1="91.93" y1="290.2" x2="91.93" y2="270.86" xlink:href="#Áåçûìÿííûé_ãðàäèåíò_393"/><linearGradient id="Áåçûìÿííûé_ãðàäèåíò_76" x1="210.1" y1="190.84" x2="210.1" y2="134.89" gradientUnits="userSpaceOnUse"><stop offset="0" stop-color="#c3313b"/><stop offset="0.08" stop-color="#b72b38"/><stop offset="0.31" stop-color="#9b1e2f"/><stop offset="0.54" stop-color="#87142a"/><stop offset="0.77" stop-color="#7b0e26"/><stop offset="1" stop-color="#770c25"/></linearGradient><linearGradient id="Áåçûìÿííûé_ãðàäèåíò_393-4" x1="211.21" y1="173.81" x2="211.21" y2="144.8" xlink:href="#Áåçûìÿííûé_ãðàäèåíò_393"/><linearGradient id="Áåçûìÿííûé_ãðàäèåíò_393-5" x1="205.43" y1="173.07" x2="205.43" y2="150.58" xlink:href="#Áåçûìÿííûé_ãðàäèåíò_393"/><linearGradient id="Áåçûìÿííûé_ãðàäèåíò_76-2" x1="1418.98" y1="190.84" x2="1418.98" y2="134.89" gradientTransform="matrix(-1, 0, 0, 1, 1486.4, 0)" xlink:href="#Áåçûìÿííûé_ãðàäèåíò_76"/><linearGradient id="Áåçûìÿííûé_ãðàäèåíò_393-6" x1="1420.08" y1="173.81" x2="1420.08" y2="144.8" gradientTransform="matrix(-1, 0, 0, 1, 1486.4, 0)" xlink:href="#Áåçûìÿííûé_ãðàäèåíò_393"/><linearGradient id="Áåçûìÿííûé_ãðàäèåíò_393-7" x1="1414.31" y1="173.07" x2="1414.31" y2="150.58" gradientTransform="matrix(-1, 0, 0, 1, 1486.4, 0)" xlink:href="#Áåçûìÿííûé_ãðàäèåíò_393"/><linearGradient id="Áåçûìÿííûé_ãðàäèåíò_99" x1="137.64" y1="245.6" x2="137.64" y2="67.09" gradientUnits="userSpaceOnUse"><stop offset="0" stop-color="#dc4a44"/><stop offset="1" stop-color="#770020"/></linearGradient></defs><g class="cls-1"><g id="Layer_2" data-name="Layer 2"><g id="Layer_1-2" data-name="Layer 1"><rect class="cls-2" width="280" height="296"/><path class="cls-3" d="M92.25,221.05s-1.56,42.8-2.65,47S32.79,296,32.79,296H245.63s-60.55-21.39-62.18-26.29-1.67-45.7-1.67-45.7Z"/><path class="cls-4" d="M89.81,266.84s-4.44-.52-4.92,0,0,4,0,4L32.79,296H245.63l-56.2-23.93s-1.93-5.32-6-2.36l1.39,2S166,291.89,134.56,291.89A51.83,51.83,0,0,1,89.81,266.84Z"/><path class="cls-5" d="M91.55,238.12s10.5,2.94,13,7.48,18.85,38.62,31.72,39.16,21.21-17.59,27.74-21.75,18.35-4.48,18.35-4.48L181.78,224l-89.53-3Z"/><path class="cls-6" d="M153.12,244.52l-3.32,34s8-9,12.07-15.48,11.7-32.09,11.7-32.09Z"/><path class="cls-7" d="M189.43,272.07s-13.67,12.33-27.75,18.13c0,0,27.95-8.89,35.77-14.72Z"/><path class="cls-8" d="M84.89,270.86a186.7,186.7,0,0,0,23.46,19.34s-17.69-4.73-32.84-14.81Z"/><path class="cls-9" d="M98,277.17s14.26,13,39,13,39.67-11.71,39.67-11.71a73.38,73.38,0,0,1-42.09,13.4C109.48,291.89,98,277.17,98,277.17Z"/><path class="cls-10" d="M198.32,148.43s8.91-13.57,15-13.54c3.67,0,12.55,7.74,12.45,15.11-.14,9.86-8.87,21.07-11.05,26.82s-7.81,13.24-11.55,14-8.63-6.36-8.63-6.36S196.31,157.37,198.32,148.43Z"/><path class="cls-11" d="M199,162.86s14.62-18.06,19.94-18.06,5.32,10.28,3.17,16.14c-1.48,4.06-4.38,9.92-4.38,9.92s2.29-6.3,2.57-11c.42-7.25-1.19-12.52-3-12.51-3.37,0-6,4.62-6.44,6.26s2.66,8.79,1.84,13.77-3.8,6.89-4.8,6.35.54-6.16-.36-8.16-3.54-4.89-5.08-4.26S199,162.86,199,162.86Z"/><path class="cls-12" d="M199,162.86s3.6-2.15,4.7-1.46,3.88,3.19,4,4.76-.89,6.06,0,6.83,4.06-4.26,4.2-8.73-2.36-9.61-2.36-10.21.58-3.47.58-3.47S201.61,158.63,199,162.86Z"/><path class="cls-13" d="M79.2,148.43s-8.9-13.57-14.94-13.54c-3.68,0-12.55,7.74-12.45,15.11.13,9.86,8.86,21.07,11,26.82s7.81,13.24,11.56,14S83,184.42,83,184.42,81.21,157.37,79.2,148.43Z"/><path class="cls-14" d="M78.55,162.86S63.92,144.8,58.61,144.8s-5.32,10.28-3.18,16.14c1.49,4.06,4.39,9.92,4.39,9.92s-2.3-6.3-2.57-11c-.43-7.25,1.18-12.52,3-12.51,3.36,0,6,4.62,6.43,6.26s-2.66,8.79-1.84,13.77,3.81,6.89,4.8,6.35-.54-6.16.37-8.16,3.53-4.89,5.07-4.26S78.55,162.86,78.55,162.86Z"/><path class="cls-15" d="M78.55,162.86s-3.61-2.15-4.71-1.46-3.87,3.19-4,4.76.88,6.06,0,6.83-4.06-4.26-4.2-8.73S68,154.65,68,154.05s-.58-3.47-.58-3.47S75.92,158.63,78.55,162.86Z"/><path class="cls-16" d="M200.79,154.23c-1,10.63-3,20.54-3.51,31.66s-1.4,20.16-3.14,24.3a21.56,21.56,0,0,1-3.9,5.74h0c-4.94,5.56-12.79,11.4-18.11,16.88a50.85,50.85,0,0,1-6.07,5.3h0a45.55,45.55,0,0,1-9.13,5.38c-5.07,2.09-18.22,2.09-18.22,2.09s-13.15,0-18.22-2.09a49.41,49.41,0,0,1-15.23-10.69c-6.29-6.47-16.09-13.45-20.47-19.86a15.92,15.92,0,0,1-1.56-2.77c-1.73-4.14-2.66-13.18-3.14-24.3s-2.54-21-3.51-31.66-5.1-49.67-2-58.14,43.3-29,64.09-29c14.59,0,37.29,11.19,50.6,20.8,5.65,4.07,9.61,7.86,10.55,10.38C203,106.74,201.76,143.59,200.79,154.23Z"/><path class="cls-5" d="M190.23,215.94c-4.94,5.56-12.79,11.4-18.11,16.88a50.85,50.85,0,0,1-6.07,5.3h0a45.55,45.55,0,0,1-9.13,5.38c-5.07,2.09-18.22,2.09-18.22,2.09s-13.15,0-18.22-2.09a49.41,49.41,0,0,1-15.23-10.69c-6.29-6.47-16.09-13.45-20.47-19.86,0,0,7.11,6.61,14.65,12.88s20,18.19,39.27,18.19,33.62-14.26,36.62-16.44S189.84,216.24,190.23,215.94Z"/><rect x="108.2" y="140.66" width="7.55" height="7.55"/><rect x="164.94" y="140.66" width="7.55" height="7.55"/><path class="cls-17" d="M205.55,138.08v-1.21c-1.79-.13-11.88-.19-13.65-.37a2.28,2.28,0,0,1-1.55-.61c-3.41-5.23-8.56-7.55-14.4-8.67a31,31,0,0,0-17,1.52c-5.29,2-9.48,5.24-11.48,10.79a27.44,27.44,0,0,0-15.93-.08,17.33,17.33,0,0,0-9.74-11c-9-4.25-18.12-4.68-27.18-.05a13.22,13.22,0,0,0-5.77,5.48c-.91,1.68-15.5-.12-15.7-.23l-.25,2c1.18.26,13.16,2.21,14.51,2.51,0,1.11-.15,2.32-.17,3.52-.09,6.78,1.71,12.89,6.75,17.68,6.26,6,13.83,8,22.06,5.68s13.38-7.94,15.22-16.35a30.53,30.53,0,0,0,.42-6c0-.84.16-1.31,1-1.6a24.21,24.21,0,0,1,12.12-.61c1.94.36,2.36,1,2.18,3.08a20.08,20.08,0,0,0,4.61,14.89c6.23,7.64,14.38,10.34,24,8.16a21.39,21.39,0,0,0,16.24-17.38,53.32,53.32,0,0,0,.18-7.49c0-.61,0-1.22,0-2C194.05,139.58,205.55,138.08,205.55,138.08Zm-87,24.31c-7.31,3.38-14.37,2.7-21-2-7.39-5.23-9.14-12.7-8.63-21.16.34-5.48,3.51-8.74,8.25-10.6,9.59-3.77,18.74-2.53,27.18,3.22,4.71,3.21,6.11,7,5.65,15.37A19.16,19.16,0,0,1,118.53,162.39Zm55,3.44C161.07,168.3,149,158.64,148.33,146c-.3-6,2.1-10.25,6.92-13.45,4.67-3.1,9.89-4.48,17.19-4.36a26.31,26.31,0,0,1,13,4.33c3.93,2.63,5,6.48,5.31,10.81A21.14,21.14,0,0,1,173.54,165.83Z"/><path class="cls-18" d="M201.27,144.8s-8.71-12.07-8.5-20.93,1-28.51-2.31-30.57-18.9.26-50.06.26-53.19-1.79-56,2.47-1.71,13.68-1,25-7.5,22.5-7.5,22.5-8.69-7.14-8.44-10.13,2.32-3.61,2.32-3.61-7.22-2.37-7.12-8,3-7.73,3-7.73-2.29-1.13-1.88-2.78a3.87,3.87,0,0,1,1.88-2.37s-6-12.12-3-16.37S69.12,88,69.12,88s-.55-12.16,9.43-7.83c0,0-2.91-13.61,13-8.25,0,0-3.57-11.85,3-13.92a12,12,0,0,1,11,1.76s1.24-7,7-7.74,8.46,1.86,8.46,1.86,3.3-6.8,6.9-6.91,6.19,4.44,6.19,4.44S141.08,45,145.06,47s4.68,8,4.68,8,6.32-4.94,10.58-3.71,5,7.29,5,7.29,11-5.91,15.39.68,1.74,10.45,1.74,10.45,12.09-12,7.83,2.2c0,0,11.62-8.55,12.91,9.9,0,0,10.55,4.67,8.75,12.09a20.38,20.38,0,0,1-6.46,10.95s6.63-3.52,5.78,5.27S205.43,123,205.43,123,213.09,132.2,201.27,144.8Z"/><path class="cls-18" d="M106.44,63.36a42.12,42.12,0,0,0-8-5.77c-2.81-1.52-6.09-2.38-8.76-1.15S86.12,61,86,64.18a43.19,43.19,0,0,0,1,9.79,27.44,27.44,0,0,1-2.43-9.79A12.87,12.87,0,0,1,85.31,59a7.41,7.41,0,0,1,3.62-4.16,8.92,8.92,0,0,1,5.43-.5,13.93,13.93,0,0,1,4.79,2.08A27.51,27.51,0,0,1,106.44,63.36Z"/><path class="cls-18" d="M143.14,51.29a12.22,12.22,0,0,1,4.72-6,7.77,7.77,0,0,1,8-.3,10.63,10.63,0,0,1,4.45,6.57,21.33,21.33,0,0,1,.6,7.61A41.54,41.54,0,0,0,158.93,52c-.89-2.21-2.11-4.38-4-5.44a6.76,6.76,0,0,0-6.38,0A16.2,16.2,0,0,0,143.14,51.29Z"/><path class="cls-18" d="M167.47,60.57a21.76,21.76,0,0,1,6.8-6.42,12.81,12.81,0,0,1,4.58-1.69,9.74,9.74,0,0,1,2.53,0,5.29,5.29,0,0,1,2.52,1.07,8.72,8.72,0,0,1,2.59,4.36,21.46,21.46,0,0,1,.65,4.74,35.59,35.59,0,0,1-.91,9.28,79.3,79.3,0,0,0-.47-9.17c-.43-2.9-1-6.16-3-7.79a3.5,3.5,0,0,0-1.66-.75l-1-.09-1,0a13.54,13.54,0,0,0-4.14,1.23A31.86,31.86,0,0,0,167.47,60.57Z"/><path class="cls-18" d="M199,76a8.3,8.3,0,0,1,4.43-.26,6.07,6.07,0,0,1,3.94,2.64A7.33,7.33,0,0,1,208.2,83a17.13,17.13,0,0,1-.57,2.16c-.33.67-.61,1.34-1,2,0-.75.09-1.45.12-2.15l0-2.06a7.93,7.93,0,0,0-.95-3.59A5.74,5.74,0,0,0,203,77.11,18,18,0,0,0,199,76Z"/><path class="cls-18" d="M72.38,82.91a30.57,30.57,0,0,0-5.43.53c-1.7.37-3.27,1.1-3.75,2.4s0,3.13.57,4.78,1.43,3.32,2.15,5.07c-.67-.66-1.25-1.4-1.88-2.11a18.17,18.17,0,0,1-1.56-2.39c-.81-1.71-1.73-3.69-1-6A4.85,4.85,0,0,1,63.8,82.8a5.53,5.53,0,0,1,1.47-.53,6.39,6.39,0,0,1,1.48-.22A13.51,13.51,0,0,1,72.38,82.91Z"/></g></g></g></svg>