<svg width="24" height="24" viewBox="0 0 24 24" fill="none" xmlns="http://www.w3.org/2000/svg">
<path d="M19.9525 8.0454C19.9647 8.2217 19.9647 8.398 19.9647 8.57592C19.9647 13.9974 15.8371 20.25 8.28966 20.25V20.2468C6.06013 20.25 3.8769 19.6114 2 18.4074C2.32419 18.4464 2.65001 18.4659 2.97664 18.4667C4.82429 18.4683 6.61913 17.8484 8.07272 16.7069C6.31688 16.6736 4.77717 15.5289 4.23928 13.8577C4.85436 13.9763 5.48812 13.9519 6.09181 13.787C4.17753 13.4002 2.80032 11.7185 2.80032 9.76535C2.80032 9.74748 2.80032 9.73041 2.80032 9.71335C3.37071 10.031 4.00934 10.2073 4.6626 10.2268C2.85964 9.02196 2.30388 6.62361 3.39265 4.74848C5.47593 7.31175 8.54966 8.87003 11.8493 9.03496C11.5186 7.60992 11.9703 6.11664 13.0364 5.11489C14.689 3.56149 17.2882 3.64111 18.8418 5.29282C19.7607 5.11164 20.6415 4.77448 21.4475 4.29676C21.1412 5.24651 20.5001 6.05327 19.6437 6.56593C20.457 6.47006 21.2517 6.25232 22 5.92003C21.4491 6.74548 20.7552 7.46449 19.9525 8.0454Z" fill="#1D9BF0"/>
</svg>
