<svg id="eaIqiJwBASU1" xmlns="http://www.w3.org/2000/svg" xmlns:xlink="http://www.w3.org/1999/xlink" viewBox="0 0 578.63 540.52" shape-rendering="geometricPrecision" text-rendering="geometricPrecision" style="background-color:transparent">
<style><![CDATA[
#eaIqiJwBASU7_to {animation: eaIqiJwBASU7_to__to 22000ms linear infinite normal forwards}@keyframes eaIqiJwBASU7_to__to { 0% {offset-distance: 0%} 13.636364% {offset-distance: 0%} 31.818182% {offset-distance: 31.942632%} 50% {offset-distance: 60.986567%} 68.181818% {offset-distance: 84.664289%} 86.363636% {offset-distance: 100%} 100% {offset-distance: 100%}} #eaIqiJwBASU25_to {animation: eaIqiJwBASU25_to__to 22000ms linear infinite normal forwards}@keyframes eaIqiJwBASU25_to__to { 0% {offset-distance: 0%} 13.636364% {offset-distance: 0%} 31.818182% {offset-distance: 14.524598%} 50% {offset-distance: 39.634548%} 68.181818% {offset-distance: 65.411148%} 86.363636% {offset-distance: 100%} 100% {offset-distance: 100%}} #eaIqiJwBASU36_to {animation: eaIqiJwBASU36_to__to 22000ms linear infinite normal forwards}@keyframes eaIqiJwBASU36_to__to { 0% {offset-distance: 0%} 13.636364% {offset-distance: 0%} 31.818182% {offset-distance: 13.387532%} 50% {offset-distance: 38.329027%} 68.181818% {offset-distance: 63.018376%} 86.363636% {offset-distance: 100%} 100% {offset-distance: 100%}} #eaIqiJwBASU41_to {animation: eaIqiJwBASU41_to__to 22000ms linear infinite normal forwards}@keyframes eaIqiJwBASU41_to__to { 0% {offset-distance: 0%} 4.545455% {offset-distance: 0%} 18.181818% {offset-distance: 9.550179%} 27.272727% {offset-distance: 23.069663%} 40.909091% {offset-distance: 38.33977%} 54.545455% {offset-distance: 58.732718%} 66.363636% {offset-distance: 72.294023%} 86.363636% {offset-distance: 100%} 100% {offset-distance: 100%}} #eaIqiJwBASU69_to {animation: eaIqiJwBASU69_to__to 22000ms linear infinite normal forwards}@keyframes eaIqiJwBASU69_to__to { 0% {offset-distance: 0%} 4.545455% {offset-distance: 0%} 22.727273% {offset-distance: 21.370445%} 40.909091% {offset-distance: 46.779389%} 59.090909% {offset-distance: 71.639572%} 77.272727% {offset-distance: 100%} 100% {offset-distance: 100%}} #eaIqiJwBASU89_to {animation: eaIqiJwBASU89_to__to 22000ms linear infinite normal forwards}@keyframes eaIqiJwBASU89_to__to { 0% {offset-distance: 0%} 4.545455% {offset-distance: 0%} 22.727273% {offset-distance: 21.858275%} 40.909091% {offset-distance: 46.813516%} 59.090909% {offset-distance: 71.642256%} 77.272727% {offset-distance: 100%} 100% {offset-distance: 100%}} #eaIqiJwBASU105_to {animation: eaIqiJwBASU105_to__to 22000ms linear infinite normal forwards}@keyframes eaIqiJwBASU105_to__to { 0% {offset-distance: 0%} 4.545455% {offset-distance: 0%} 22.727273% {offset-distance: 26.244596%} 40.909091% {offset-distance: 50.092167%} 59.090909% {offset-distance: 75.168083%} 77.272727% {offset-distance: 100%} 100% {offset-distance: 100%}} #eaIqiJwBASU118_to {animation: eaIqiJwBASU118_to__to 22000ms linear infinite normal forwards}@keyframes eaIqiJwBASU118_to__to { 0% {offset-distance: 0%} 4.545455% {offset-distance: 0%} 22.727273% {offset-distance: 23.524575%} 40.909091% {offset-distance: 49.194095%} 59.090909% {offset-distance: 76.871269%} 77.272727% {offset-distance: 100%} 100% {offset-distance: 100%}}
]]></style>
<g style="isolation:isolate" transform="matrix(.883765 0 0 0.883765 33.527598 31.413672)"><g><g><polygon points="274.55,107.07 224.96,120.35 181.9,148.31 149.59,188.21 131.19,236.14 128.51,287.41 141.8,337 169.76,380.06 209.66,412.37 257.59,430.77 308.86,433.46 358.45,420.17 401.5,392.21 433.81,352.31 452.21,304.38 454.9,253.11 441.61,203.52 413.65,160.46 373.75,128.15 325.82,109.75 274.55,107.07" fill="none" stroke="#055df5" stroke-miterlimit="10"/><polygon points="214.64,69.5 156.38,103.14 111.36,153.14 83.99,214.6 76.96,281.51 90.95,347.32 124.59,405.59 174.59,450.61 236.05,477.97 302.96,485.01 368.77,471.02 427.03,437.38 472.05,387.38 499.42,325.92 506.45,259.01 492.46,193.2 458.82,134.93 408.82,89.91 347.36,62.55 280.45,55.52 214.64,69.5" opacity="0.5" fill="none" stroke="#055df5" stroke-miterlimit="10"/><g id="eaIqiJwBASU7_to" style="offset-path:path('M169.357247,380.397492C256.783559,467.549877,393.505689,441.922506,443.762939,334.01C492.753443,179.494044,365.432924,111.739787,315.10166,108.576666C216.320544,101.571298,155.822282,149.456091,131.54802,233.186666C117.320646,305.180273,143.700918,346.006935,169.357247,380.397492');offset-rotate:0deg"><g transform="translate(-169.357246,-380.397491)"><path d="M156.89,414.69c6.699458,2.863831,14.464601,1.406553,19.669873-3.691428s6.823935-12.831095,4.100236-19.588737-9.252516-11.206874-16.538135-11.270344-13.890957,4.271345-16.731974,10.980509c-3.867057,9.132195.381017,19.671889,9.5,23.57Zm11.22-26.38c3.991266,1.683438,6.573766,5.607244,6.541397,9.938885s-2.673219,8.216416-6.689197,9.840018-8.614666.665671-11.648341-2.426413-3.903744-7.708201-2.203859-11.69249c2.312245-5.419574,8.570936-7.949873,14-5.66Z" fill="#f98b12"/><rect width="7.06" height="42.57" rx="0" ry="0" transform="matrix(-.920164-.391534 0.391534-.920164 173.470664 385.259763)" fill="#f98b12"/><rect width="7.06" height="17.52" rx="0" ry="0" transform="matrix(.391534-.920164 0.920164 0.391534 167.800848 350.03935)" fill="#f98b12"/><rect width="7.06" height="17.52" rx="0" ry="0" transform="matrix(.39-.92 0.92 0.39 161.86631 362.695393)" fill="#f98b12"/><rect width="7.06" height="42.57" rx="0" ry="0" transform="matrix(-.920095-.391695 0.391695-.920095 176.079457 386.339437)" fill="#ffc933"/><rect width="7.06" height="17.52" rx="0" ry="0" transform="matrix(.391534-.920164 0.920164 0.391534 170.356153 351.110503)" fill="#ffc933"/><rect width="7.06" height="17.52" rx="0" ry="0" transform="matrix(.391534-.920164 0.920164 0.391534 164.737405 364.293038)" fill="#ffc933"/><rect width="7.06" height="1.5" rx="0" ry="0" transform="matrix(.391534-.920164 0.920164 0.391534 170.351745 351.108879)" fill="#ffe98a"/><rect width="7.06" height="1.5" rx="0" ry="0" transform="matrix(.391534-.920164 0.920164 0.391534 164.7522 364.30533)" fill="#ffe98a"/><rect width="15.83" height="1.5" rx="0" ry="0" transform="matrix(.391534-.920164 0.920164 0.391534 169.551857 383.560611)" fill="#ffe98a"/><rect width="5.35" height="1.5" rx="0" ry="0" transform="matrix(.391695-.920095 0.920095 0.391695 184.124758 349.344858)" fill="#ffe98a"/><rect width="7.27" height="1.5" rx="0" ry="0" transform="matrix(.391534-.920164 0.920164 0.391534 178.518701 362.491257)" fill="#ffe98a"/><path d="M159.64,415.86c6.698433,2.867447,14.464853,1.413748,19.672701-3.682288s6.829741-12.82908,4.108329-19.588161-9.249258-11.210792-16.535338-11.276391-13.893022,4.267854-16.735692,10.97684c-3.868249,9.129455.374905,19.668035,9.49,23.57Zm11.23-26.37c3.984121,1.686522,6.558881,5.608188,6.522414,9.934417s-2.676967,8.203934-6.688952,9.823056-8.604334.660389-11.633402-2.428678-3.897553-7.699336-2.20006-11.678795c2.311943-5.419926,8.573725-7.947002,14-5.65Z" fill="#ffc933"/><path d="M163.2,409.43c.22.11.44.23.67.33c5.422922,2.248723,11.644998-.291931,13.943988-5.693734s-.183769-11.647208-5.563988-13.996266c-.24-.1-.47-.17-.71-.26c4.965582,2.569313,7.112634,8.530914,4.925465,13.676268s-7.969697,7.736277-13.265465,5.943732Z" fill="#ffe98a"/><path d="M159.64,415.86c.24.1.47.17.71.26-8.187287-3.900924-12.175619-13.298576-9.293203-21.897445s11.728915-13.694173,20.613203-11.872555l.1-.25c-9.038911-2.413505-18.419822,2.499754-21.583291,11.304264s.945288,18.564617,9.453291,22.455736Z" fill="#ffe98a"/><path d="M176.52,403.52c-2.023615,4.788326-7.198466,7.42678-12.26238,6.25211s-8.548715-5.821894-8.25762-11.01211l-7.13,2.87c.908788,7.517634,6.425369,13.662629,13.801807,15.374022s15.035198-1.376816,19.161274-7.72632s3.837061-14.602389-.723081-20.647702L174,391.52c3.281267,3.071303,4.288619,7.868221,2.52,12Z" fill="#ffe98a"/><polygon points="164.75,364.33 175.75,369.01 174.78,371.3 184.03,367.56 190.17,353.14 180.91,356.87 178.51,362.52 172.87,360.12 165.23,363.19 164.75,364.33" fill="#ffe98a"/></g></g><g id="eaIqiJwBASU25_to" style="offset-path:path('M161.25291,103.49862C128.51,132.160001,77.813539,169.781455,77.813539,270.26C77.813539,370.738545,171.889182,480.823524,296.975506,482.89946C422.06183,484.975396,499.841474,389.767255,503.692795,255.839481C507.544116,121.911707,327.715358,-17.946669,161.25291,103.49862');offset-rotate:0deg"><g transform="translate(-159.92,-103.498619)"><polygon points="158.07,74.9 160.94,74.9 160.92,72.32 158.06,72.32 158.07,74.9" fill="#ed8406"/><polygon points="179.76,80.93 182.26,80.93 182.25,78.35 179.74,78.35 179.76,80.93" fill="#ed8406"/><polygon points="158.49,134.74 161.37,134.74 161.35,132.16 158.47,132.16 158.49,134.74" fill="#ed8406"/><path d="M182.29,78.39c-5.9.32-12.7-.24-21.37-6.07-10.54,5.79-15.77,5.75-21.19,5.69l-.06,34.69c-.007213,4.181979,1.970683,8.119218,5.33,10.61l15.08,11.1c.515526.429723,1.264474.429723,1.78,0l15-10.83c3.364472-2.434589,5.354772-6.337064,5.35-10.49Z" fill="#ed8406"/><path d="M179.75,78.39c-5.9.32-13-.24-21.69-6.07-10.55,5.79-15.44,5.75-20.87,5.69l-.05,34.69c-.006626,4.188844,1.984306,8.129849,5.36,10.61l15.08,11.1c.515526.429723,1.264474.429723,1.78,0l15-10.83c3.35932-2.440084,5.351019-6.338018,5.36-10.49Z" fill="#ffe98a"/><path d="M177.31,81.27c-6.843147.523096-13.651791-1.381766-19.23-5.38-9.33,5.14-13.65,5.1-18.46,5l-.05,30.71c.004545,3.708525,1.771472,7.194122,4.76,9.39l13.35,9.83c.457042.382984,1.122958.382984,1.58,0l13.26-9.59c2.972504-2.157859,4.73416-5.60684,4.74-9.28Z" fill="#f99012"/><path d="M176.08,82.71c-6.400713.49595-12.772086-1.273876-18-5-8.73,4.8-12.76,4.76-17.25,4.72l-.05,28.72c.002194,3.470683,1.654096,6.733653,4.45,8.79l12.49,9.2c.212483.164952.471216.259355.74.27.265943-.000424.523665-.092215.73-.26l12.4-9c2.786216-2.013994,4.437459-5.242099,4.44-8.68Z" fill="#ffc024"/><path d="M177,78.45c-5.33,0-11.56-1.19-18.9-6.13l-.43.23c7.51,4.98,13.88,5.97,19.33,5.9Z" fill="#fff7d7"/><path d="M179,78.42l-.06,34.68c.004772,4.152936-1.985528,8.055411-5.35,10.49l-15,10.83c-.141931.114198-.305067.199165-.48.25.435176.136528.909915.042333,1.26-.25l15-10.83c3.35932-2.440084,5.351019-6.338018,5.36-10.49l.05-34.71Z" fill="#fff7d7"/><path style="mix-blend-mode:hard-light" d="M175,84.07c-5.98133.455235-11.932136-1.208584-16.81-4.7-8.19,4.49-11.96,4.45-16.19,4.41v26.84c.001415,3.245438,1.545705,6.296895,4.16,8.22l11.67,8.59c.190004.16777.436628.257126.69.25.250896.00258.494862-.082277.69-.24l11.59-8.38c2.604978-1.883859,4.145426-4.905221,4.14-8.12Z" opacity="0.3" fill="#ffeea6"/></g></g><g id="eaIqiJwBASU36_to" style="offset-path:path('M414.089344,160.366453C379.635701,122.241478,325.686347,106.819742,291.7,108.318031C196.0899,108.318031,137.281216,174.552585,129.658594,270.265C138.368606,374.631875,200.420453,427.39406,289.170001,433.46C443.881833,433.097901,499.135465,255.34374,414.240004,160.366455');offset-rotate:0deg"><g transform="translate(-403.224991,-146.634998)"><polygon points="427.25,129.13 416.15,122.73 403.34,122.73 403.23,122.79 403.11,122.73 390.3,122.73 379.21,129.13 372.8,140.23 372.8,153.04 379.21,164.13 390.3,170.54 403.11,170.54 403.23,170.47 403.34,170.54 416.15,170.54 427.25,164.13 433.65,153.04 433.65,140.23 427.25,129.13" fill="#055df5"/><polygon points="421.92,144.11 421.92,149.15 419.4,153.52 415.03,156.05 409.99,156.05 409.95,156.02 409.9,156.05 404.86,156.05 404.81,156.02 405.89,154.03 405.94,154.05 409.91,154.05 409.95,154.03 409.98,154.05 413.96,154.05 417.4,152.06 419.39,148.62 419.39,144.64 417.4,141.2 413.96,139.21 409.98,139.21 409.98,139.22 409.95,139.24 409.91,139.21 405.94,139.21 404.81,137.25 404.86,137.22 409.9,137.22 409.94,137.25 409.95,137.25 409.99,137.22 415.04,137.22 419.4,139.74 419.4,139.74 421.92,144.11" fill="#fff"/><polygon points="384.53,144.11 384.53,149.15 387.05,153.52 391.42,156.05 396.46,156.05 396.51,156.02 396.55,156.05 401.6,156.05 401.64,156.02 400.56,154.03 400.52,154.05 396.54,154.05 396.51,154.03 396.47,154.05 392.5,154.05 389.05,152.06 387.06,148.62 387.06,144.64 389.05,141.2 392.5,139.21 396.47,139.21 396.47,139.22 396.51,139.24 396.54,139.21 400.52,139.21 400.56,139.24 401.64,137.25 401.6,137.22 396.55,137.22 396.51,137.25 396.46,137.22 391.42,137.22 387.05,139.74 387.05,139.74 384.53,144.11" fill="#fff"/><polygon points="412.77,147.62 394.02,147.62 393.31,145.65 412.07,145.65 412.77,147.62" fill="#fff"/></g></g><g id="eaIqiJwBASU41_to" style="offset-path:path('M410.025003,447.555014C462.079394,423.556703,487.132648,367.674202,490.924395,351.751167C514.134159,286.331522,516.191229,236.059685,483.745001,175.753194C451.298774,115.446703,385.790665,69.451628,322.365633,58.124979C211.054309,48.579446,130.789353,103.33742,94.252967,178.76796C55.881747,268.446244,78.431003,318.080298,94.432968,355.370183C172.984276,516.012804,327.187748,495.895358,410.025003,447.555014');offset-rotate:0deg"><g transform="translate(-431.845001,-425.654999)"><polygon points="423.55,391.1 454.42,388.22 455.2,388.2 460.69,448 429.03,450.9 423.55,391.1" fill="#2c8100"/><rect width="31.79" height="60.05" rx="0" ry="0" transform="matrix(-.995821 0.091328-.091328-.995821 459.7104 448.046123)" fill="#56b512"/><path d="M432.36,420.38c-.437906-4.855329,3.141842-9.14688,7.996962-9.587092s9.148371,3.137497,9.590889,7.992408-3.133151,9.14986-7.987851,9.594684c-2.334263.213883-4.657781-.509152-6.458524-2.009771s-2.93092-3.655663-3.141476-5.990229Z" fill="#4a9b05"/><path d="M438.56,437.73c-.158661-1.707933.727356-3.343212,2.244753-4.143033s3.367217-.606602,4.686577.489526s1.848321,2.879205,1.340139,4.517485-1.953386,2.808985-3.661469,2.966022c-2.330285.21424-4.393543-1.49992-4.61-3.83Z" fill="#80d52f"/><path d="M435.3,402.2c-.211067-2.331501,1.507374-4.392872,3.838791-4.604858s4.393466,1.505643,4.60637,3.836976-1.503911,4.394059-3.835161,4.607882c-2.332074.208366-4.393417-1.508675-4.61-3.84Z" fill="#80d52f"/><path d="M459.72,448l-5.48-59.8-31.66,2.9l5.48,59.8Zm-35.29-55.29l28.28-2.6l5.16,56.28L429.59,449Z" fill="#4a9b05"/><path d="M451.68,448.32c0,.15.06.29.08.43l8-.72-.79-8.68c-4.460256.518651-7.694246,4.497923-7.29,8.97Z" fill="#4a9b05"/><path d="M427.27,442.25l.79,8.68l8-.73c0-.15,0-.3,0-.45-.41811-4.46651-4.313353-7.790096-8.79-7.5Z" fill="#4a9b05"/><path d="M446.28,389.4c.407862,4.456617,4.283072,7.782654,8.75,7.51l-.79-8.68-8,.73c.05.15.02.29.04.44Z" fill="#4a9b05"/><path d="M430.62,390.84c0-.15-.06-.29-.08-.44l-8,.73.8,8.68c4.453492-.528597,7.679129-4.503043,7.28-8.97Z" fill="#4a9b05"/><path d="M438.67,421.37c.358391-.019798.69523-.177467.94-.44.287196-.387506.491445-.830045.6-1.3.173918-.935834.541808-1.8249,1.08-2.61.492495-.604619,1.220808-.968776,2-1c.765464-.100324,1.537958.124533,2.13.62.613928.549268,1.017078,1.295449,1.14,2.11l1.59-.15.11,1.18-1.61.15c-.012378.808148-.313938,1.585108-.85,2.19-.57471.574622-1.347614.907401-2.16.93v0l-.2-2.11c.447271-.012532.875768-.182515,1.21-.48.273392-.284488.399031-.679883.34-1.07.014297-.387494-.156462-.75871-.46-1-.294157-.19599-.649775-.277782-1-.23-.339715.020042-.658564.17051-.89.42-.282203.402732-.488892.853382-.61,1.33-.170911.929176-.542933,1.809742-1.09,2.58-.510445.609164-1.255714.97271-2.05,1-.767505.10852-1.545063-.11312-2.14-.61-.604606-.557932-.999873-1.306117-1.12-2.12l-1.46.14-.11-1.18l1.46-.14c-.02391-.868887.235861-1.721918.74-2.43.569428-.695792,1.420904-1.099509,2.32-1.1h.05l.19,2.1c-.501267-.00121-.978704.213819-1.31.59-.248055.362646-.351499.804958-.29,1.24.000751.399594.163053.781904.45,1.06.27492.24083.635739.3599,1,.33Z" fill="#80d52f"/><polygon points="404.11,407.16 432.58,395.57 433.67,395.46 455.77,451.29 454.69,451.4 425.99,462.42 404.11,407.16" fill="#398e01"/><rect width="31.79" height="60.05" rx="0" ry="0" transform="matrix(-.929776 0.368125-.368125-.929776 454.699876 451.372684)" fill="#63c21f"/><path d="M420.64,432.59c-1.77234-4.538281.466032-9.654491,5.001948-11.432874s9.655104.453172,11.439527,4.986716-.440312,9.655698-4.971475,11.446158c-2.183895.860087-4.620186.816344-6.771798-.121586s-3.841885-2.693038-4.698202-4.878414Z" fill="#57a812"/><path d="M431.48,447.49c-.632385-1.594535-.241705-3.413012.989788-4.607112s3.061149-1.528542,4.635433-.847306s2.583002,2.243918,2.555589,3.959057-1.085559,3.244785-2.68081,3.875361c-2.175776.848299-4.62892-.213244-5.5-2.38Z" fill="#8de23c"/><path d="M418.35,414.32c-.632385-1.594535-.241705-3.413012.989788-4.607112s3.061149-1.528542,4.635433-.847306s2.583002,2.243918,2.555589,3.959057-1.085559,3.244785-2.68081,3.875361c-1.044784.415844-2.212148.398566-3.244167-.048017s-1.843746-1.285711-2.255833-2.331983Z" fill="#8de23c"/><path d="M454.69,451.4l-22.11-55.83L403,407.28l22.11,55.83Zm-49.44-43.1l26.4-10.46l20.81,52.55-26.4,10.45Z" fill="#57a812"/><path d="M447.05,454c.06.14.14.26.21.4l7.43-3-3.21-8.1c-4.136081,1.773098-6.102271,6.522135-4.43,10.7Z" fill="#57a812"/><path d="M421.92,455l3.21,8.11l7.43-2.94c-.05-.15-.07-.29-.12-.43-1.655418-4.157673-6.308915-6.2544-10.52-4.74Z" fill="#57a812"/><path d="M425.27,398.94c1.651345,4.161566,6.308696,6.260031,10.52,4.74l-3.21-8.11-7.43,2.95c.05.14.06.28.12.42Z" fill="#57a812"/><path d="M410.66,404.73c-.06-.14-.15-.26-.21-.39L403,407.28l3.21,8.1c4.116952-1.764802,6.087472-6.480767,4.45-10.65Z" fill="#57a812"/><path d="M427,431.76c.342799-.118935.626032-.366316.79-.69.164811-.454245.232933-.937904.2-1.42-.090901-.944725.014644-1.898039.31-2.8.695188-1.44516,2.382974-2.115054,3.88-1.54.746882.348644,1.345768.951074,1.69,1.7l1.48-.59.44,1.11-1.51.59c.225644.77692.158028,1.60966-.19,2.34-.387622.716614-1.035509,1.257116-1.81,1.51h-.05l-.78-2c.419685-.135895.775293-.420382,1-.8.17052-.353862.17052-.766138,0-1.12-.104859-.359571-.36543-.653173-.71-.8-.330437-.10186-.686976-.076903-1,.07-.319051.107263-.58192.337724-.73.64-.158359.470006-.232826.964199-.22,1.46.097735.938177-.008002,1.886398-.31,2.78-.316113.730639-.92632,1.293628-1.68,1.55-.711016.309982-1.518984.309982-2.23,0-.735167-.363176-1.324324-.966444-1.67-1.71l-1.36.54-.44-1.11l1.36-.54c-.273729-.821122-.273729-1.708878,0-2.53.348508-.833086,1.053747-1.464863,1.92-1.72h.05l.78,2c-.478787.141381-.875008.47944-1.09.93-.140414.420027-.11538.87779.07,1.28.118204.380381.380091.699669.73.89.346862.145155.738751.137897,1.08-.02Z" fill="#8de23c"/></g></g><g><polygon points="278.89,283.01 304.51,283.01 304.51,308.51 330.13,308.51 330.13,334.01 253.27,334.01 253.27,308.51 278.89,308.51 278.89,283.01" fill="#055df5"/><polygon points="355.75,232.01 355.75,257.51 330.13,257.51 330.13,283.01 304.51,283.01 304.51,257.51 278.89,257.51 278.89,283.01 253.27,283.01 253.27,257.51 227.66,257.51 227.66,232.01 253.27,232.01 253.27,206.51 330.13,206.51 330.13,232.01 355.75,232.01" fill="#055df5"/></g><g transform="translate(.000001 0)"><polygon points="87.98,105.29 46.97,176.32 29.92,256.54 38.49,338.11 71.85,413.03 126.73,473.98 197.76,514.99 277.98,532.04 359.55,523.47 434.48,490.11 495.43,435.23 536.43,364.2 553.49,283.98 544.91,202.41 511.56,127.49 456.68,66.54 385.65,25.53 305.42,8.48 223.86,17.05 148.93,50.41 87.98,105.29" opacity="0.88" fill="none" stroke="#8fd4f5" stroke-miterlimit="10"/><g id="eaIqiJwBASU69_to" style="offset-path:path('M234.646789,525.68C143.775727,511.299567,29.231285,404.934198,29.92,272.707075C44.910729,108.821356,128.634842,18.567109,294.980633,8.48C506.140825,34.749422,544.113505,173.493933,553.49,273.1707C531.718697,458.385386,428.881853,544.283513,234.646795,525.68');offset-rotate:0deg"><g transform="translate(-234.43,-525.680008)"><polygon points="282.94,518.43 282.94,530.27 278.55,537.87 182.59,537.87 178.2,530.27 178.2,518.43 182.58,510.84 278.56,510.84 282.94,518.43" fill="#fff"/><polygon points="290.66,521.09 290.66,532.93 286.27,540.52 190.31,540.52 182.59,537.87 185.92,521.09 190.3,513.5 278.56,510.84 286.28,513.5 290.66,521.09" fill="#0446b8"/><polygon points="282.94,518.43 282.94,530.27 278.55,537.87 182.59,537.87 178.2,530.27 178.2,518.43 182.58,510.84 278.56,510.84 282.94,518.43" fill="#055df5"/><path d="M187.06,528.19h-1.21v-7.44h1.21Zm3.19-6.38h-3.39v-1.06h3.39Zm-.19,3.13h-3.2v-1.06h3.2Zm.28,3.25h-3.48v-1.06h3.48Z" fill="#fff"/><path d="M193.35,528.33c-.343216-.000524-.682984-.068478-1-.2-.288256-.130837-.52919-.347328-.69-.62-.176389-.302917-.263088-.649714-.25-1-.01393-.354458.084029-.704314.28-1c.204197-.26742.482344-.469076.8-.58.402245-.136374.8254-.200694,1.25-.19h1.38v.78h-1.41c-.299329-.019202-.595122.073455-.83.26-.189253.17414-.291761.42309-.28.68-.01156.253969.091166.499778.28.67.238392.178874.532473.267453.83.25.20604.000808.41012-.040008.6-.12.193503-.077808.357836-.214169.47-.39.144035-.234188.216987-.505153.21-.78l.31.4c-.014447.350548-.110311.692919-.28,1-.143556.262307-.363199.474978-.63.61-.323519.158064-.679998.236901-1.04.23Zm2.74-.14h-1v-1.64h-.2v-1.85c.027666-.281861-.07603-.560756-.281117-.756077s-.488706-.285297-.768883-.243923h-.63-.68-.59v-1h.5.56.56c.469907-.016737.93859.057981,1.38.22.34794.122158.641778.362892.83.68.19742.378825.290601.803317.27,1.23Z" fill="#fff"/><path d="M199.64,528.37c-.610931.037337-1.216686-.13171-1.72-.48-.411066-.305314-.652388-.787959-.65-1.3h1.1c.023359.2233.139478.426507.32.56.290497.205663.646118.298124,1,.26.313164.015727.623666-.064515.89-.23.202137-.114316.327932-.327787.33-.56.004645-.19232-.089752-.373562-.25-.48-.241511-.146348-.51764-.225736-.8-.23l-.54-.06c-.485218-.035426-.950176-.208918-1.34-.5-.332212-.270582-.517488-.681896-.5-1.11-.011678-.329285.086859-.653051.28-.92.190818-.266148.454853-.471123.76-.59.353556-.137923.730539-.205848,1.11-.2.558555-.024342,1.110816.125957,1.58.43.40529.294633.640629.769045.63,1.27h-1.1c-.016825-.209593-.126976-.400521-.3-.52-.236217-.165262-.522635-.243055-.81-.22-.274485-.016199-.547176.053722-.78.2-.170031.118391-.270981.312814-.27.52-.007213.175199.07109.342992.21.45.195928.131932.424099.207989.66.22h.54c.526325.03776,1.03338.213677,1.47.51.362758.268356.568796.699162.55,1.15.00509.33457-.100362.661471-.3.93-.212608.276644-.495887.490831-.82.62-.392148.180766-.81821.276204-1.25.28Z" fill="#fff"/><path d="M205.5,528.07h-1.13l-1.88-5.38h1.22Zm-1.71,2.27h-.79v-1.05h.91c.182567.005318.364824-.018308.54-.07.148165-.049809.277367-.144092.37-.27.105693-.151719.183571-.32102.23-.5l1.59-5.76h1.16l-1.73,6c-.090734.338408-.243302.657107-.45.94-.194843.237344-.450672.417116-.74.52-.350051.124226-.718563.188462-1.09.19Zm2.06-2.27h-1.19v-1h1.19Z" fill="#fff"/><path d="M216.18,521.84h-5.65v-1.09h5.65ZM214,528.19h-1.22v-6.56h1.22Z" fill="#fff"/><path d="M218.18,528.19h-1.18v-5.5h1v2.31v0c-.052296-.637176.132919-1.271181.52-1.78.404584-.409005.965702-.623978,1.54-.59h.2v1.06h-.37c-.43541-.027046-.863653.1205-1.19.41-.293477.315983-.442045.739946-.41,1.17Z" fill="#fff"/><path d="M222.71,528.33c-.360199.00826-.718059-.059904-1.05-.2-.290891-.13077-.535057-.347031-.7-.62-.172903-.303952-.256118-.650683-.24-1-.017944-.688142.422978-1.304615,1.08-1.51.39857-.137281.818611-.201642,1.24-.19h1.38v.78h-1.42c-.296192-.018616-.58865.074115-.82.26-.196573.16966-.303631.420694-.29.68-.013569.256421.093762.504392.29.67.234919.178171.525637.266805.82.25.20604.000808.41012-.040008.6-.12.193154-.082833.359381-.217892.48-.39.135146-.23793.207421-.506379.21-.78l.3.4c-.009403.351329-.105595.694872-.28,1-.143556.262307-.363199.474978-.63.61-.307586.124183-.638826.17882-.97.16Zm2.73-.14h-.95v-1.64h-.19v-1.85c.019084-.285801-.078309-.56716-.27-.78-.216619-.18423-.496167-.277412-.78-.26h-.64-.68-.59v-1h.5.56.6c.473111-.015774.944885.058895,1.39.22.343808.124911.633623.365246.82.68.19742.378825.290601.803317.27,1.23Z" fill="#fff"/><path d="M228.29,528.19h-1.2v-5.5h1v2.36h-.11c-.013307-.469691.061308-.937729.22-1.38.126676-.347699.361505-.645617.67-.85.33374-.202991.719619-.303806,1.11-.29h.02c.579258-.038396,1.142665.198828,1.52.64.367407.555291.543009,1.215556.5,1.88v3.14h-1.22v-3.3c.018746-.336855-.096257-.667489-.32-.92-.231788-.240339-.55659-.36807-.89-.35-.349543-.014593-.689626.115651-.94.36-.257003.266813-.387965.630599-.36,1Z" fill="#fff"/><path d="M235.57,528.37c-.614045.037271-1.222942-.131672-1.73-.48-.407341-.308423-.647666-.789073-.65-1.3h1.1c.027897.221812.143063.423353.32.56.291274.203987.646256.296283,1,.26.313295.017027.624182-.063314.89-.23.202137-.114316.327932-.327787.33-.56.005035-.190008-.084973-.370024-.24-.48-.245745-.145008-.52472-.224223-.81-.23l-.54-.06c-.484861-.037056-.949378-.210383-1.34-.5-.332212-.270582-.517488-.681896-.5-1.11-.006566-.328597.091489-.650775.28-.92.192844-.26419.456248-.468675.76-.59.357159-.137496.737327-.205383,1.12-.2.558406-.023017,1.110272.127175,1.58.43.402869.295676.634667.770487.62,1.27h-1.1c-.015809-.207451-.121814-.397528-.29-.52-.237598-.16229-.522947-.239792-.81-.22-.274485-.016199-.547176.053722-.78.2-.170031.118391-.270981.312814-.27.52-.011296.173746.063465.341957.2.45.197405.128901.424735.204678.66.22h.54c.529301.038348,1.039437.214138,1.48.51.357606.271657.559365.70133.54,1.15.003698.332807-.097794.658282-.29.93-.214643.274584-.497315.488311-.82.62-.392534.179623-.818349.275005-1.25.28Z" fill="#fff"/><path d="M240.74,528.33c-.360025.006195-.717462-.061889-1.05-.2-.289203-.133368-.532682-.34902-.7-.62-.172903-.303952-.256118-.650683-.24-1-.018927-.355027.079463-.706422.28-1c.202055-.269606.480932-.471792.8-.58.398777-.136441.818665-.200778,1.24-.19h1.38v.78h-1.45c-.296192-.018616-.58865.074115-.82.26-.191803.173104-.297844.421752-.29.68-.00763.255318.09863.500816.29.67.234919.178171.525637.266805.82.25.209377.001885.416939-.038947.61-.12.190338-.08303.353286-.218242.47-.39.144035-.234188.216987-.505153.21-.78l.31.4c-.017518.351361-.11682.693781-.29,1-.143556.262307-.363199.474978-.63.61-.292608.144858-.613566.22339-.94.23Zm2.73-.14h-.95v-1.64h-.19v-1.85c.023702-.280843-.081234-.557284-.285326-.751657s-.48532-.285708-.764674-.248343h-.63-.69-.59v-1h.51.56.56c.473111-.015774.944885.058895,1.39.22.345086.122672.635587.363575.82.68.19742.378825.290601.803317.27,1.23Z" fill="#fff"/><path d="M247.52,528.39c-.423424.008439-.843467-.076936-1.23-.25-.336863-.150225-.634569-.37607-.87-.66-.219707-.272669-.3921-.580274-.51-.91-.113017-.321268-.170505-.659434-.17-1v-.18c-.003852-.357151.05365-.712311.17-1.05.115375-.332967.291711-.641555.52-.91.242602-.273769.53868-.494977.87-.65.788278-.339779,1.681722-.339779,2.47,0c.361403.161155.66992.421141.89.75.230654.333315.362385.725043.38,1.13h-1.15c-.036366-.303744-.186433-.582441-.42-.78-.279708-.231425-.637901-.346047-1-.32-.312625-.013808-.621328.073892-.88.25-.235394.167395-.416256.400429-.52.67-.227.623309-.227,1.306691,0,1.93.099303.272051.281101.506291.52.67.26494.16959.575715.253395.89.24.247603.009716.494079-.038209.72-.14.191046-.090918.356121-.228481.48-.4.11978-.17237.195332-.371553.22-.58h1.16c-.009786.412541-.142062.812848-.38,1.15-.23306.327253-.546453.588987-.91.76-.391649.182239-.818034.277749-1.25.28Z" fill="#fff"/><path d="M254.42,523.59h-3.85v-.9h3.85Zm0,4.67h-.83c-.392069.01246-.782775-.052091-1.15-.19-.308859-.115066-.564953-.339149-.72-.63-.176736-.381517-.259054-.799967-.24-1.22v-5.13h1.13v5.24c-.013784.238769.069111.473038.23.65.174447.165046.410571.248598.65.23h.92Z" fill="#fff"/><path d="M257.17,523.62h-2v-.93h2Zm-.81-1.69c-.1982.011673-.392777-.05679-.54-.19-.24178-.28949-.24178-.71051,0-1c.142974-.141045.339644-.213886.54-.2.288172-.009488.554215.153854.676145.415133s.07623.5701-.116145.784867c-.153362.136337-.355338.204864-.56.19Zm.81,6.26h-1.17v-5.5h1.2Z" fill="#fff"/><path d="M261.52,528.39c-.435347.008353-.867723-.073356-1.27-.24-.686911-.298961-1.229096-.855509-1.51-1.55-.12751-.335297-.191926-.691281-.19-1.05v-.2c-.003436-.359783.064543-.716673.2-1.05.136362-.341401.336608-.653651.59-.92.259318-.276517.577025-.491738.93-.63.395831-.16477.821293-.246458,1.25-.24.428883-.0085.854761.073268,1.25.24.354602.140702.675078.355489.94.63.250202.266898.447069.57917.58.92.135457.333327.203436.690217.2,1.05v.2c.001926.358719-.06249.714703-.19,1.05-.131957.333051-.32531.638346-.57.9-.261057.279407-.577899.500856-.93.65-.405541.167445-.841345.249159-1.28.24Zm0-1.06c.34958.01895.697099-.064454,1-.24.26215-.163168.470744-.399574.6-.68.280292-.612803.280292-1.317197,0-1.93-.130491-.280154-.343281-.513874-.61-.67-.585852-.333544-1.304148-.333544-1.89,0-.266978.15884-.482301.391528-.62.67-.280292.612803-.280292,1.317197,0,1.93.136182.278955.347419.514432.61.68.276496.159736.59069.2426.91.24Z" fill="#fff"/><path d="M267.05,528.19h-1.2v-5.5h1v2.36h-.11c-.011425-.468753.059657-.935864.21-1.38.130273-.345681.364307-.642591.67-.85.33374-.202991.719619-.303806,1.11-.29h.06c.579258-.038396,1.142665.198828,1.52.64.367407.555291.543009,1.215556.5,1.88v3.14h-1.21v-3.3c.01452-.336248-.099947-.665343-.32-.92-.231788-.240339-.55659-.36807-.89-.35-.349543-.014593-.689626.115651-.94.36-.257003.266813-.387965.630599-.36,1Z" fill="#fff"/><path d="M274.32,528.37c-.610931.037337-1.216686-.13171-1.72-.48-.411066-.305314-.652388-.787959-.65-1.3h1.1c.023359.2233.139478.426507.32.56.290098.20652.646049.299067,1,.26.316459.017146.630568-.063126.9-.23.202137-.114316.327932-.327787.33-.56.004645-.19232-.089752-.373562-.25-.48-.241511-.146348-.51764-.225736-.8-.23l-.54-.06c-.485218-.035426-.950176-.208918-1.34-.5-.332212-.270582-.517488-.681896-.5-1.11-.011678-.329285.086859-.653051.28-.92.190818-.266148.454853-.471123.76-.59.353556-.137923.730539-.205848,1.11-.2.558555-.024342,1.110816.125957,1.58.43.40529.294633.640629.769045.63,1.27h-1.1c-.016825-.209593-.126976-.400521-.3-.52-.236217-.165262-.522635-.243055-.81-.22-.274485-.016199-.547176.053722-.78.2-.170031.118391-.270981.312814-.27.52-.007213.175199.07109.342992.21.45.195928.131932.424099.207989.66.22h.54c.526325.03776,1.03338.213677,1.47.51.362758.268356.568796.699162.55,1.15.00509.33457-.100362.661471-.3.93-.212608.276644-.495887.490831-.82.62-.395215.182153-.824834.277623-1.26.28Z" fill="#fff"/></g></g><g id="eaIqiJwBASU89_to" style="offset-path:path('M343.044999,14.84C452.038807,30.273663,558.283671,157.091814,553.49,270.26C537.877464,430.011136,446.05022,522.589729,291.795631,528.19C172.012962,525.68,34.418587,456.00163,34.152794,274.4957C42.273412,94.684833,159.50631,-6.087779,343.044998,14.84');offset-rotate:0deg"><g transform="translate(-343.044998,-14.84)"><polygon points="391.56,7.59 391.56,19.43 387.17,27.03 291.2,27.03 286.81,19.43 286.81,7.59 291.2,0 387.17,0 391.56,7.59" fill="#fff"/><polygon points="399.28,10.25 399.28,22.09 394.89,29.68 298.93,29.68 291.2,27.03 294.54,10.25 298.92,2.65 387.17,0 394.89,2.65 399.28,10.25" fill="#0446b8"/><polygon points="391.56,7.59 391.56,19.43 387.17,27.03 291.2,27.03 286.81,19.43 286.81,7.59 291.2,0 387.17,0 391.56,7.59" fill="#055df5"/><path d="M304.06,17.06h-2.23l-2.19-8.35h1.42l1.84,7.45-.49-.28h1.25l-.54.28L304.59,9h1.22Zm5,0h-2.25l-1.92-8h1.27l1.68,7.12-.53-.28h1.24l-.51.28l1.64-7.45h1.35Z" fill="#fff"/><path d="M314.76,17.28c-.481769.012947-.96027-.082754-1.4-.28-.385742-.161946-.728214-.41195-1-.73-.247115-.297367-.44005-.635849-.57-1-.126992-.373512-.191196-.765491-.19-1.16v-.22c-.003647-.397966.060607-.793639.19-1.17.127793-.365138.320936-.703986.57-1c.277697-.309099.618782-.55468,1-.72.424983-.18719.885712-.279336,1.35-.27.583385-.021229,1.160289.12821,1.66.43.431826.276466.778102.667757,1,1.13.220824.465471.333632.974817.33,1.49v.54h-5.46v-.9h4.56l-.38.47c.010925-.369186-.053731-.736709-.19-1.08-.108651-.283636-.304792-.525309-.56-.69-.284193-.177268-.615363-.264418-.95-.25-.35287-.012346-.701296.081729-1,.27-.26666.185992-.472021.447045-.59.75-.266316.72292-.266316,1.51708,0,2.24.1184.308261.327634.573291.6.76.653923.372838,1.456077.372838,2.11,0c.243527-.1449.422414-.377453.5-.65h1.25c-.07633.400215-.251663.774945-.51,1.09-.26744.322706-.611147.573612-1,.73-.42013.163544-.869539.238446-1.32.22Z" fill="#fff"/><path d="M322.55,17.27c-.470933.008299-.936002-.105384-1.35-.33-.399988-.233559-.720525-.581969-.92-1-.240712-.474711-.370637-.99783-.38-1.53h.28v2.61h-1.08v-8.31h1.35v4.12l-.4.74c.003353-.562847.136831-1.117294.39-1.62.20669-.397615.526921-.724808.92-.94.393152-.211052.833849-.317783,1.28-.31.405996-.005577.808438.076276,1.18.24.351413.154344.665262.382908.92.67.256336.292579.453326.632217.58,1c.13517.399333.202764.81842.2,1.24v.22c.001852.424778-.065704.847006-.2,1.25-.135155.368185-.338733.707482-.6,1-.276585.302984-.618576.538958-1,.69-.368541.164483-.766482.252914-1.17.26Zm-.24-1.16c.352728.01112.700802-.08286,1-.27.281195-.192923.50839-.454542.66-.76.156641-.352345.235107-.734438.23-1.12.009241-.387017-.072988-.770752-.24-1.12-.292985-.630625-.935071-1.024543-1.63-1-.326597-.004525-.649332.071009-.94.22-.289795.15115-.532079.379589-.7.66-.172761.304806-.26242.649647-.26,1v.49c-.009924.352588.083964.700321.27,1c.16935.27173.411995.49011.7.63.277272.161721.589395.254329.91.27Z" fill="#fff"/><path d="M329.54,17.28c-.566082.018591-1.127422-.10883-1.63-.37-.420618-.232823-.767177-.579382-1-1-.233387-.407744-.354179-.870205-.35-1.34h1.33c-.016965.417559.147052.822135.45,1.11.343387.287316.782901.433821,1.23.41.304319.00808.606124-.057083.88-.19.244077-.116348.446537-.304845.58-.54.376324-.64531.278315-1.462047-.24-2-.334115-.298498-.772559-.453032-1.22-.43-.202789-.002033-.404828.024906-.6.08-.163552.054253-.318466.13171-.46.23l-.65-1.13l3-2.11-.12-.19h-3.82v-1.1h5.27v1.6l-2.73,1.9-.85-.07c.127761-.052684.257901-.099401.39-.14.182947-.016841.367053-.016841.55,0c.553019-.018156,1.10215.098535,1.6.34.411183.20486.757384.519902,1,.91.23721.384184.358722.82857.35,1.28v.15c.005152.454128-.116024.900751-.35,1.29-.23578.418383-.581617.76422-1,1-.501071.240089-1.055603.346862-1.61.31Z" fill="#fff"/><path d="M338.32,11.94h-2.25v-1h2.25Zm-.9-1.9c-.225448.017343-.447521-.062749-.61-.22-.138963-.152355-.211009-.354083-.2-.56-.008812-.20559.062943-.406506.2-.56.160274-.160752.384015-.241445.61-.22.21768-.027696.436271.043997.595265.195235s.24152.365973.224735.584765c.011009.205917-.061037.407645-.2.56-.173359.142255-.397415.207303-.62.18Zm.9,7h-1.32v-6.15h1.35Z" fill="#fff"/><path d="M342.86,17.27c-.412241.003301-.820739-.078399-1.2-.24-.377273-.154141-.717961-.385809-1-.68-.266148-.292563-.476301-.631519-.62-1-.151536-.395578-.226204-.816436-.22-1.24v-.22c-.003509-.42247.067581-.842243.21-1.24.140279-.367925.347054-.706901.61-1c.258098-.290242.575157-.52207.93-.68.379894-.171753.793145-.257136,1.21-.25.441722-.007425.878291.095702,1.27.3.390571.21395.710284.537139.92.93.249943.489164.38018,1.030679.38,1.58l-.45-.63v-4.19h1.33v8.35h-1.06v-2.68h.3c-.00222.571755-.142897,1.134465-.41,1.64-.217609.399734-.547986.726633-.95.94-.385419.203022-.814379.309404-1.25.31Zm.27-1.16c.321023.00104.637234-.078013.92-.23.288451-.150467.525276-.383809.68-.67.175941-.303508.265829-.649232.26-1v-.49c.01176-.351451-.078547-.698784-.26-1-.173649-.264438-.410899-.481057-.69-.63-.285526-.142381-.600973-.214385-.92-.21-.351644-.013515-.699471.07692-1,.26-.291576.175009-.524731.432523-.67.74-.165948.34961-.248122.733089-.24,1.12-.01014.39353.072056.783962.24,1.14.152447.303178.388382.556461.68.73.30354.173942.650579.257231,1,.24Z" fill="#fff"/><path d="M350.94,17.28c-.478561.013165-.953859-.082579-1.39-.28-.387252-.15926-.730312-.409693-1-.73-.254033-.29252-.447745-.632366-.57-1-.126992-.373512-.191196-.765491-.19-1.16v-.22c.000477-.405842.071536-.808509.21-1.19.120009-.368631.313964-.708903.57-1c.273379-.313872.615625-.560289,1-.72.421116-.188262.878837-.28049,1.34-.27.583385-.021229,1.160289.12821,1.66.43.430797.277666.776786.668632,1,1.13.220824.465471.333632.974817.33,1.49v.54h-5.47v-.9h4.57l-.37.47c.005926-.368807-.05856-.735359-.19-1.08-.115359-.282644-.314213-.523362-.57-.69-.284193-.177268-.615363-.264418-.95-.25-.353158-.014892-.702329.079385-1,.27-.272088.182655-.481527.444454-.6.75-.253022.725231-.253022,1.514769,0,2.24.118772.310937.33213.57676.61.76.65029.373078,1.44971.373078,2.1,0c.248709-.141348.431882-.374804.51-.65h1.24c-.072068.401581-.247882.777341-.51,1.09-.264075.326265-.608783.577902-1,.73-.421948.171176-.874835.2529-1.33.24Z" fill="#fff"/><path d="M356.64,17.06h-1.35v-6.17h1.07v2.65h-.12c-.013695-.526885.067602-1.05193.24-1.55.136737-.404903.399579-.75536.75-1c.375177-.230463.809956-.345245,1.25-.33h.06c.650167-.051544,1.284628.217168,1.7.72.413526.622656.610342,1.364232.56,2.11v3.52h-1.35v-3.66c.008919-.366566-.119481-.723232-.36-1-.264769-.262115-.627976-.400134-1-.38-.373336-.005349-.733342.138653-1,.4-.277241.284946-.422332.673065-.4,1.07Z" fill="#fff"/><path d="M366.12,11.9h-4.31v-1h4.31Zm0,5.24h-.93c-.439404.0121-.877122-.059156-1.29-.21-.345556-.134396-.630073-.390461-.8-.72-.199411-.424581-.292097-.891443-.27-1.36v-5.75h1.27v5.9c-.03258.273915.062252.547643.257304.742696s.468781.289884.742696.257304h1Z" fill="#fff"/><path d="M369.21,11.94h-2.21v-1h2.25Zm-.9-1.9c-.228148.015198-.452459-.064397-.62-.22-.134385-.155068-.205749-.354884-.2-.56-.004784-.204961.066459-.404441.2-.56.165557-.158848.391348-.238967.62-.22.228996-.021672.455881.058836.62.22.133541.155559.204784.355039.2.56.016785.218792-.065742.433528-.224735.584765s-.377585.222931-.595265.195235Zm.9,7h-1.35v-6.15h1.35Z" fill="#fff"/><path d="M374.66,11.9h-4.32v-1h4.32Zm0,5.24h-.93c-.439404.0121-.877122-.059156-1.29-.21-.347061-.131941-.632357-.388707-.8-.72-.208129-.421919-.304535-.890179-.28-1.36v-5.75h1.27v5.9c-.01497.268388.078742.531501.26.73.198499.181258.461612.27497.73.26h1Z" fill="#fff"/><path d="M378.65,16.92h-1.27l-2.11-6h1.38Zm-1.92,2.55h-.92v-1.17h1c.206913.003961.413048-.026453.61-.09.161861-.06001.303825-.163886.41-.3.115131-.172083.202842-.361001.26-.56l1.78-6.46h1.31l-1.95,6.78c-.103007.363463-.276275.703204-.51,1-.2118.270503-.496212.475141-.82.59-.375275.135821-.770915.206833-1.17.21ZM379,16.92h-1.33v-1.08h1.33Z" fill="#fff"/></g></g><g id="eaIqiJwBASU105_to" style="offset-path:path('M549.316773,268.025566C557.034994,399.151013,432.587853,552.220023,270.823447,530.34C109.059042,508.459977,32.06222,420.829971,35.88476,269.689906C39.7073,118.549842,91.807218,15.724448,286.595411,8.71C481.383604,1.695551,538.244034,179.668445,549.316772,268.025566');offset-rotate:0deg"><g transform="translate(-549.316773,-268.025566)"><path d="M572.47,241.42c-6.71859-4.94-16.169713-3.498379-21.11,3.22l-4.72,6.42l5,3.69l5-6.84c1.879217-2.565167,4.984185-3.932929,8.145294-3.588063s5.898109,2.349967,7.18,5.260001.913923,6.282895-.965294,8.848062l-5,6.83l5,3.69l4.72-6.42c2.369141-3.230073,3.357737-7.269154,2.748208-11.228279s-2.767228-7.513817-5.998208-9.881721Z" fill="#5c9acb"/><path d="M570.3,239.82c-6.708154-4.948587-16.157361-3.525164-21.11,3.18l-4.72,6.42l5,3.69l5-6.84c2.95706-3.788007,8.390979-4.536346,12.261882-1.688661s4.774106,8.258019,2.038118,12.208661l-5,6.83l5,3.69l4.72-6.41c4.920257-6.706894,3.494393-16.129218-3.19-21.08Z" fill="#8dcaf1"/><path d="M565.9,243.67c-3.949353-2.902917-9.503863-2.056985-12.41,1.89l-5,6.84l1,.75l5-6.84c2.761028-3.73452,7.939198-4.699424,11.86-2.21-.14-.1-.28-.3-.45-.43Z" fill="#a9e4ff"/><path d="M570.3,239.82c-.17-.12-.35-.23-.53-.34c6.313284,5.056051,7.51741,14.190651,2.73,20.71l-4.73,6.41l1,.75l4.72-6.41c4.947455-6.713956,3.519688-16.166758-3.19-21.12Z" fill="#a9e4ff"/><path style="mix-blend-mode:screen" d="M549.19,243l-4.47,6.07l8-.35l1.8-2.45c1.874869-2.558539,4.974453-3.91961,8.126925-3.568647s5.876819,2.360408,7.143075,5.268647l6.05-.26c-1.600528-5.519842-6.199438-9.650028-11.858933-10.650262s-11.395491,1.303408-14.791067,5.940262Z" opacity="0.2" fill="#a9e4ff"/><rect width="40" height="33.34" rx="0.38" ry="0.38" transform="matrix(.805515 0.592576-.592576 0.805515 543.55574 248.663083)" fill="#5c9acb"/><rect width="40" height="33.34" rx="0.38" ry="0.38" transform="matrix(.805515 0.592576-.592576 0.805515 539.745941 245.859928)" fill="#8dcaf1"/><path style="mix-blend-mode:screen" d="M570.3,270.27c-.04411-1.284786-.674186-2.478614-1.71-3.24L543.2,248.35c-1.887312-1.383885-4.538285-.981545-5.93.9l-14.73,20c-.660629.896747-.940909,2.017868-.78,3.12Z" transform="translate(.000001 0)" opacity="0.2" fill="#a9e4ff"/><path d="M568.59,267l-1.15-.84c1.883624,1.384946,2.290714,4.033273.91,5.92l-14.73,20c-1.391715,1.881545-4.042688,2.283885-5.93.9l1.15.84c.905608.667324,2.039284.947416,3.151468.778619s2.111705-.772646,2.778532-1.678619l14.73-20c1.374955-1.888131.968551-4.531986-.91-5.92Z" fill="#a9e4ff"/><path d="M552.38,271c1.219073-1.647063,1.038676-3.940484-.422923-5.376689s-3.75783-1.576382-5.383275-.32863-2.083475,3.502199-1.073802,5.285319l-4.5,6.07l2.71,2l4.46-6.07c1.592744.358503,3.246401-.262109,4.21-1.58Z" fill="#a9e4ff"/><path d="M551.61,270.44c1.207599-1.644472,1.022322-3.926644-.434726-5.354787s-3.742474-1.567661-5.362422-.327357-2.081451,3.482992-1.082852,5.262144l-4.46,6.07l2.72,2l4.46-6.07c1.577313.345125,3.209496-.274791,4.16-1.58Z" fill="#5c9acb"/><path d="M551.61,270.44c.68566-1.445187.202675-3.174649-1.132563-4.055462s-3.115212-.64415-4.173907.554958-1.072993,2.994688-.03353,4.210504l-4.47,6.07l1.19.87l4.46-6.07c1.577313.345125,3.209496-.274791,4.16-1.58Z" fill="#2c72a0"/></g></g><g id="eaIqiJwBASU118_to" style="offset-path:path('M28.636923,265.081398C43.833438,177.604802,80.746505,34.281592,273.870368,10.65376C438.929534,12.116301,530.185917,100.458231,554.186873,264.444885C527.223102,525.87309,349.072923,531.561749,255.170001,526.515C202.490008,526.515,33.662475,459.713239,29.335003,263.913239');offset-rotate:0deg"><g transform="translate(-29.334998,-263.913239)"><circle r="25.4" transform="matrix(.164359-.986401 0.986401 0.164359 27.478616 268.962979)" fill="#007cff"/><circle r="25.4" transform="matrix(.164359-.986401 0.986401 0.164359 27.478616 268.962979)" opacity="0.3"/><circle r="25.4" transform="matrix(.164359-.986401 0.986401 0.164359 28.789675 263.395315)" fill="#007cff"/><circle r="23.33" transform="matrix(.930801-.365527 0.365527 0.930801 28.781197 263.418712)" opacity="0.7" fill="#fff"/><path d="M37.29,241.68L6.59,270.6c0,0,2.11,5.34,4,7.45l33-32.64c-1.866957-1.600451-3.998954-2.862728-6.3-3.73Z" opacity="0.4" fill="#fff"/><path d="M46.64,248.55L12.27,279.88c.838182.999564,1.855613,1.833857,3,2.46L49.2,252.07c-.615167-1.329316-1.484891-2.525187-2.56-3.52Z" opacity="0.4" fill="#fff"/><polygon points="28.29,263.46 28.81,248.33 29.52,248.33 30.38,263.46 28.29,263.46" fill="#1a2e35"/><polygon points="28.43,264.48 21.36,257.44 21.84,256.9 29.82,262.93 28.43,264.48" fill="#1a2e35"/><polygon points="24.6,266.7 41.11,257.32 24.95,267.2 24.6,266.7" fill="#007cff"/><path d="M31.53,263.46c0,1.209504-.980496,2.19-2.19,2.19s-2.19-.980496-2.19-2.19.980496-2.19,2.19-2.19c1.207228.005475,2.184525.982772,2.19,2.19Z" fill="#007cff"/><path d="M31.53,263.46c0,1.209504-.980496,2.19-2.19,2.19s-2.19-.980496-2.19-2.19.980496-2.19,2.19-2.19c1.207228.005475,2.184525.982772,2.19,2.19Z" opacity="0.3"/><path d="M11.44,285.59c0,0-4.1,7.87-2.72,8s6.18-5.46,6.18-5.46c-.308776-1.623017-1.819032-2.731701-3.46-2.54Z" fill="#007cff"/><path d="M46,284.83c0,0,4.1,7.86,2.72,8s-6.18-5.47-6.18-5.47c.313316-1.618984,1.822231-2.722324,3.46-2.53Z" fill="#007cff"/><path d="M1.41,250.18c.15-.18,17.45-15.84,17.45-15.84s-6.62-5.73-14.39,2-3.06,13.84-3.06,13.84Z" fill="#007cff"/><path d="M18.86,234.34c.7.76-2.83,4.78-7.62,9.17s-9.24,7.32-9.92,6.56s2.62-4.93,7.4-9.31s9.45-7.18,10.14-6.42Z" fill="#007cff"/><path d="M18.86,234.34c.7.76-2.83,4.78-7.62,9.17s-9.24,7.32-9.92,6.56s2.62-4.93,7.4-9.31s9.45-7.18,10.14-6.42Z" opacity="0.3"/><rect width="3.5" height="8.93" rx="0" ry="0" transform="matrix(.737277-.67559 0.67559 0.737277 5.121795 239.126611)" fill="#007cff"/><circle r="2.5" transform="translate(5.21 236.63)" fill="#007cff"/><path d="M4.46,236.55l-1.41,1.33c-.2.25-3.67,5.17-.78,9.81c1.170633-1.552769,2.446996-3.022926,3.82-4.4-2.188741-1.498043-2.892327-4.407351-1.63-6.74Z" opacity="0.4" fill="#fff"/><polygon points="7.59,241.82 10.18,239.47 10.76,240.1 8.3,242.6 7.59,241.82" opacity="0.2"/><polygon points="3.05,237.88 6.58,234.54 6.29,234.38 2.89,237.56 3.05,237.88" opacity="0.3"/><path d="M37.82,234.14c.2.12,18.18,15,18.18,15s4.73-7.38-4-13.95-14.18-1.05-14.18-1.05Z" fill="#007cff"/><path d="M56,249.13c-.65.8-5.14-2.12-10.16-6.22s-8.57-8.08-7.92-8.88s5.25,1.88,10.28,6s8.45,8.3,7.8,9.1Z" fill="#007cff"/><path d="M56,249.13c-.65.8-5.14-2.12-10.16-6.22s-8.57-8.08-7.92-8.88s5.25,1.88,10.28,6s8.45,8.3,7.8,9.1Z" opacity="0.3"/><rect width="3.5" height="8.93" rx="0" ry="0" transform="matrix(.77 0.63-.63 0.77 49.689991 235.036815)" fill="#007cff"/><path d="M52.14,238.42c-1.001057.147498-1.992311-.322983-2.510992-1.191799s-.462495-1.964617.142329-2.775826s1.638999-1.177838,2.619721-.928725s1.714568,1.064837,1.858942,2.06635c.196567,1.363571-.747049,2.629179-2.11,2.83Z" fill="#007cff"/><path d="M51.75,235.2L50.23,234c-.27-.16-5.65-2.89-9.82.64c1.706334.931853,3.343844,1.984538,4.9,3.15c1.165253-2.386642,3.94679-3.505304,6.44-2.59Z" opacity="0.4" fill="#fff"/><polygon points="46.99,239.05 49.68,241.28 49.14,241.94 46.32,239.87 46.99,239.05" opacity="0.2"/><polygon points="50.23,233.99 54.04,237 54.16,236.7 50.53,233.79 50.23,233.99" opacity="0.3"/></g></g></g></g></g></g></svg>
