<svg width="24" height="24" viewBox="0 0 24 24" fill="none" xmlns="http://www.w3.org/2000/svg">
<path fill-rule="evenodd" clip-rule="evenodd" d="M19.792 5.41552C20.6521 5.64217 21.3325 6.30952 21.5635 7.15316C21.9872 8.68933 22 11.875 22 11.875C22 11.875 22 15.0733 21.5764 16.5968C21.3453 17.4405 20.665 18.1078 19.8049 18.3345C18.2516 18.75 12 18.75 12 18.75C12 18.75 5.7484 18.75 4.19512 18.3345C3.33504 18.1078 2.65469 17.4405 2.42362 16.5968C2 15.0607 2 11.875 2 11.875C2 11.875 2 8.68933 2.41078 7.16575C2.64185 6.32212 3.32221 5.65476 4.18229 5.42811C5.73556 5.01259 11.9872 5 11.9872 5C11.9872 5 18.2388 5 19.792 5.41552ZM15.1837 11.8742L9.99756 14.8206V8.92773L15.1837 11.8742Z" fill="#FF0000"/>
</svg>
